M48
INCH
T93C0.020
T92C0.040
T91C0.110
T90C0.125
T89C0.108
T88C0.045
T87C0.038
T86C0.048
T85C0.129
T84C0.128
T83C0.035
%
T93
X000950Y013950
X000950Y012950
X000950Y011950
X000950Y010900
X002700Y019600
X002700Y017450
X003900Y020200
X003950Y030150
X004200Y034700
X004200Y034150
X004200Y033600
X004200Y033000
X004450Y030150
X004700Y034700
X004700Y033000
X004800Y029500
X005000Y021250
X005150Y019350
X005250Y024700
X005300Y029500
X005700Y022050
X005750Y024700
X005800Y029500
X006100Y030150
X006300Y024700
X006350Y020400
X006600Y030150
X006750Y027550
X006850Y024250
X006850Y023750
X006850Y020400
X006950Y026550
X006950Y026050
X007200Y010950
X007450Y019250
X007650Y032150
X007950Y019250
X008050Y009200
X008150Y027550
X008250Y020250
X008450Y019250
X008450Y015800
X008650Y019950
X008750Y030750
X008800Y016200
X009350Y016200
X010300Y021600
X010350Y032450
X010350Y031950
X010500Y027150
X010700Y012300
X010700Y011800
X011000Y020200
X011150Y011800
X011200Y023300
X011300Y018050
X011500Y027200
X011500Y026700
X011900Y022450
X011950Y026950
X012100Y018500
X012800Y025450
X013000Y014200
X013000Y013700
X013100Y016800
X013200Y019250
X013450Y013700
X013700Y019250
X013900Y013700
X014200Y019250
X014700Y019250
X014900Y015500
X014900Y015050
X014900Y014550
X014900Y014100
X014900Y013650
X015800Y031400
X015800Y030850
X016100Y027450
X016100Y026950
X016200Y034750
X016400Y023300
X016400Y022800
X016400Y020300
X016446Y018900
X016450Y031400
X016450Y030850
X016450Y018300
X016600Y027450
X016600Y026950
X016700Y034750
X016850Y015800
X017100Y031400
X017100Y030850
X017200Y001400
X017500Y023250
X017750Y031400
X017750Y030850
X018050Y029900
X018300Y033850
X018300Y003450
X018300Y000900
X018650Y034150
X018850Y032000
X019050Y007550
X019050Y007100
X019400Y028350
X019500Y019200
X019500Y018700
X019500Y018250
X019500Y017800
X019750Y006350
X020000Y019200
X020000Y018700
X020000Y018250
X020000Y017800
X020500Y019200
X020500Y018700
X020500Y018250
X020500Y017800
X021600Y028000
X022700Y027600
X022850Y006050
X023350Y027600
X023350Y006600
X023600Y022600
X023600Y022100
X023600Y021600
X023600Y021100
X023600Y020650
X023600Y020200
X024100Y022600
X024100Y022100
X024100Y021600
X024100Y021100
X024100Y020650
X024100Y020200
X024600Y022600
X024600Y022100
X024600Y021600
X024600Y021100
X024600Y020650
X024600Y020200
X024800Y027600
X024800Y027050
X024800Y006600
X024800Y006050
X025100Y022600
X025100Y022100
X025600Y022600
X025600Y022100
X026100Y022600
X026100Y022100
X026600Y022600
X026600Y022100
X026700Y015900
X026700Y015400
X026700Y014900
X026700Y014400
X026700Y013950
X026700Y013500
X027100Y022600
X027100Y022100
X027200Y015900
X027200Y015400
X027200Y014900
X027200Y014400
X027200Y013950
X027200Y013500
X027600Y022600
X027600Y022100
X027700Y015900
X027700Y015400
X027700Y014900
X027700Y014400
X027700Y013950
X027700Y013500
X029650Y021250
X030550Y019450
X030550Y018950
X030550Y018450
X030550Y017950
X030550Y017500
X031050Y019450
X031050Y018950
X031050Y018450
X031050Y017950
X031050Y017500
X031550Y019450
X031550Y018950
X031550Y018450
X031550Y017950
X031550Y017500
X032050Y019450
X032050Y018950
X032050Y018450
X032050Y017950
X032050Y017500
X032100Y022100
X032650Y022100
X035000Y017400
X035000Y016900
X035500Y017400
X035500Y016900
X036000Y020900
X036000Y020400
X036000Y019900
X036000Y016900
X036200Y014500
X036450Y024000
X036500Y020900
X036500Y020400
X036500Y019900
X036850Y033700
X036850Y011200
X037000Y020400
X037000Y019900
X037050Y023000
X037250Y019400
X037250Y018900
X037250Y018400
X037250Y017900
X037250Y017400
X037250Y016900
X037550Y024000
X038000Y024000
T83
X005250Y033750
X005750Y034750
X006250Y033750
X006750Y034750
X007250Y033750
X007750Y034750
X008250Y033750
X008750Y034750
X010750Y033750
X011250Y034750
X011750Y033750
X012250Y034750
X012750Y033750
X013250Y034750
X013750Y033750
X014250Y034750
T87
X001200Y008300
X001200Y005300
X004200Y008300
X004200Y005300
X006200Y008300
X006200Y005300
X008200Y008300
X008200Y005300
X009850Y008300
X009850Y005300
X011400Y017200
X011400Y016200
X011400Y015200
X012400Y017200
X012400Y016200
X012400Y015200
X012850Y008300
X012850Y005300
X013900Y012800
X014850Y008300
X014850Y005300
X014900Y012800
X016850Y008300
X016850Y005300
X022500Y031440
X022500Y030720
X022500Y030000
X022500Y029280
X022500Y028560
X022500Y010440
X022500Y009720
X022500Y009000
X022500Y008280
X022500Y007560
X030800Y029250
X030800Y027250
X030800Y025250
X030800Y022250
X030800Y008300
X030800Y006300
X030800Y004300
X030800Y001300
X033800Y029250
X033800Y027250
X033800Y025250
X033800Y022250
X033800Y008300
X033800Y006300
X033800Y004300
X033800Y001300
T92
X031615Y034500
X031715Y013500
X033585Y034500
X033685Y013500
T88
X015350Y028450
X016350Y028450
X017350Y028450
X025700Y031000
X025700Y030000
X025700Y029000
X025700Y010000
X025700Y009000
X025700Y008000
T86
X005200Y002750
X006800Y037000
X007200Y002750
X008800Y037000
X009200Y002750
X010800Y037000
X011200Y002750
X012800Y037000
X013200Y002750
X015200Y002750
X036850Y029200
X036850Y027200
X036850Y008350
X036850Y006350
T89
X024100Y035000
X024100Y025000
X024100Y014000
X024100Y004000
T91
X034800Y020400
X036000Y018500
T90
X033600Y018500
T84
X004750Y037250
X014750Y037250
T85
X001700Y037300
X001750Y001700
X037300Y037300
X037300Y001700
M30
