G04 start of page 7 for group -4062 idx -4062 *
G04 Title: (unknown), soldermask *
G04 Creator: pcb 20140316 *
G04 CreationDate: Thu 11 Jun 2015 05:42:57 PM GMT UTC *
G04 For: ndholmes *
G04 Format: Gerber/RS-274X *
G04 PCB-Dimensions (mil): 3900.00 3900.00 *
G04 PCB-Coordinate-Origin: lower left *
%MOIN*%
%FSLAX25Y25*%
%LNBOTTOMMASK*%
%ADD129C,0.1700*%
%ADD128C,0.1950*%
%ADD127C,0.0660*%
%ADD126C,0.2500*%
%ADD125C,0.0900*%
%ADD124C,0.0750*%
%ADD123C,0.0001*%
%ADD122C,0.0860*%
%ADD121C,0.2997*%
%ADD120C,0.1500*%
%ADD119C,0.0760*%
G54D119*X87500Y347500D03*
X82500Y337500D03*
X72500D03*
X62500D03*
X52500D03*
X77500Y347500D03*
X67500D03*
X57500D03*
G54D120*X47500Y372500D03*
G54D121*X17000Y373000D03*
G54D122*X68000Y370000D03*
G54D123*G36*
X83700Y374300D02*Y365700D01*
X92300D01*
Y374300D01*
X83700D01*
G37*
G54D121*X17500Y17000D03*
G54D123*G36*
X47700Y31800D02*Y23200D01*
X56300D01*
Y31800D01*
X47700D01*
G37*
G54D122*X72000Y27500D03*
G54D123*G36*
X8250Y56750D02*Y49250D01*
X15750D01*
Y56750D01*
X8250D01*
G37*
G54D124*X12000Y83000D03*
X42000Y53000D03*
Y83000D03*
X62000Y53000D03*
Y83000D03*
X82000Y53000D03*
Y83000D03*
G54D125*X225000Y82800D03*
Y90000D03*
Y97200D03*
X257000Y100000D03*
Y90000D03*
G54D123*G36*
X252500Y84500D02*Y75500D01*
X261500D01*
Y84500D01*
X252500D01*
G37*
G36*
X220500Y108900D02*Y99900D01*
X229500D01*
Y108900D01*
X220500D01*
G37*
G54D126*X241000Y140000D03*
G54D119*X142500Y347500D03*
X137500Y337500D03*
X132500Y347500D03*
G54D120*X147500Y372500D03*
G54D119*X127500Y337500D03*
X122500Y347500D03*
X117500Y337500D03*
X112500Y347500D03*
X107500Y337500D03*
G54D125*X153500Y284500D03*
X163500D03*
G54D123*G36*
X169000Y289000D02*Y280000D01*
X178000D01*
Y289000D01*
X169000D01*
G37*
G36*
X123700Y374300D02*Y365700D01*
X132300D01*
Y374300D01*
X123700D01*
G37*
G54D122*X108000Y370000D03*
G54D125*X225000Y75600D03*
G54D126*X241000Y40000D03*
G54D123*G36*
X87700Y31800D02*Y23200D01*
X96300D01*
Y31800D01*
X87700D01*
G37*
G54D122*X112000Y27500D03*
G54D123*G36*
X127700Y31800D02*Y23200D01*
X136300D01*
Y31800D01*
X127700D01*
G37*
G54D122*X152000Y27500D03*
G54D123*G36*
X94750Y56750D02*Y49250D01*
X102250D01*
Y56750D01*
X94750D01*
G37*
G54D124*X98500Y83000D03*
X128500Y53000D03*
Y83000D03*
X148500Y53000D03*
Y83000D03*
X168500Y53000D03*
Y83000D03*
G54D123*G36*
X145700Y131300D02*Y124700D01*
X152300D01*
Y131300D01*
X145700D01*
G37*
G54D127*X139000Y128000D03*
G54D123*G36*
X110700Y175300D02*Y168700D01*
X117300D01*
Y175300D01*
X110700D01*
G37*
G54D127*X114000Y162000D03*
Y152000D03*
X124000Y172000D03*
Y162000D03*
Y152000D03*
G54D123*G36*
X334250Y226250D02*Y218750D01*
X341750D01*
Y226250D01*
X334250D01*
G37*
G54D124*X338000Y252500D03*
Y272500D03*
Y292500D03*
X308000Y252500D03*
Y222500D03*
G54D128*X336000Y185000D03*
G54D129*X360000D03*
X348000Y204000D03*
G54D122*X368500Y83500D03*
G54D125*X336850Y135000D03*
G54D123*G36*
X364200Y67800D02*Y59200D01*
X372800D01*
Y67800D01*
X364200D01*
G37*
G54D121*X373000Y17000D03*
G54D123*G36*
X334250Y16750D02*Y9250D01*
X341750D01*
Y16750D01*
X334250D01*
G37*
G54D124*X338000Y43000D03*
Y63000D03*
G54D125*X317150Y135000D03*
G54D124*X338000Y83000D03*
X308000D03*
Y63000D03*
Y43000D03*
Y13000D03*
Y292500D03*
G54D123*G36*
X364200Y276300D02*Y267700D01*
X372800D01*
Y276300D01*
X364200D01*
G37*
G54D122*X368500Y292000D03*
G54D124*X308000Y272500D03*
G54D126*X241000Y250000D03*
G54D121*X373000Y373000D03*
G54D125*X335850Y345000D03*
X316150D03*
X225000Y285600D03*
Y292800D03*
Y300000D03*
Y307200D03*
G54D123*G36*
X220500Y318900D02*Y309900D01*
X229500D01*
Y318900D01*
X220500D01*
G37*
G54D126*X241000Y350000D03*
G54D125*X257000Y310000D03*
Y300000D03*
G54D123*G36*
X252500Y294500D02*Y285500D01*
X261500D01*
Y294500D01*
X252500D01*
G37*
M02*
