G04 start of page 6 for group -4063 idx -4063 *
G04 Title: (unknown), componentmask *
G04 Creator: pcb 20140316 *
G04 CreationDate: Mon 02 Nov 2015 06:26:01 PM GMT UTC *
G04 For: ndholmes *
G04 Format: Gerber/RS-274X *
G04 PCB-Dimensions (mil): 3900.00 3900.00 *
G04 PCB-Coordinate-Origin: lower left *
%MOIN*%
%FSLAX25Y25*%
%LNTOPMASK*%
%ADD117R,0.0217X0.0217*%
%ADD116R,0.0847X0.0847*%
%ADD115R,0.0520X0.0520*%
%ADD114R,0.1005X0.1005*%
%ADD113R,0.0438X0.0438*%
%ADD112R,0.0690X0.0690*%
%ADD111R,0.0965X0.0965*%
%ADD110R,0.0400X0.0400*%
%ADD109R,0.0490X0.0490*%
%ADD108R,0.0300X0.0300*%
%ADD107R,0.0420X0.0420*%
%ADD106R,0.0560X0.0560*%
%ADD105R,0.0572X0.0572*%
%ADD104R,0.0227X0.0227*%
%ADD103C,0.1700*%
%ADD102C,0.1950*%
%ADD101C,0.2500*%
%ADD100C,0.0750*%
%ADD99C,0.0660*%
%ADD98C,0.2997*%
%ADD97C,0.1500*%
%ADD96C,0.0860*%
%ADD95C,0.0001*%
%ADD94C,0.0900*%
%ADD93C,0.0760*%
G54D93*X142500Y347500D03*
X137500Y337500D03*
X132500Y347500D03*
X127500Y337500D03*
X122500Y347500D03*
X117500Y337500D03*
X112500Y347500D03*
X107500Y337500D03*
G54D94*X153500Y284500D03*
X163500D03*
G54D95*G36*
X169000Y289000D02*Y280000D01*
X178000D01*
Y289000D01*
X169000D01*
G37*
G54D93*X87500Y347500D03*
X77500D03*
X67500D03*
X57500D03*
G54D95*G36*
X83700Y374300D02*Y365700D01*
X92300D01*
Y374300D01*
X83700D01*
G37*
G54D96*X68000Y370000D03*
G54D93*X82500Y337500D03*
X72500D03*
X62500D03*
X52500D03*
G54D97*X47500Y372500D03*
G54D98*X17000Y373000D03*
G54D95*G36*
X34700Y253800D02*Y247200D01*
X41300D01*
Y253800D01*
X34700D01*
G37*
G54D99*X28000Y250500D03*
X18000D03*
X8000D03*
G54D98*X17500Y17000D03*
G54D95*G36*
X47700Y31800D02*Y23200D01*
X56300D01*
Y31800D01*
X47700D01*
G37*
G36*
X8250Y56750D02*Y49250D01*
X15750D01*
Y56750D01*
X8250D01*
G37*
G54D100*X42000Y53000D03*
X62000D03*
Y83000D03*
X42000D03*
X12000D03*
G54D95*G36*
X87700Y31800D02*Y23200D01*
X96300D01*
Y31800D01*
X87700D01*
G37*
G54D96*X112000Y27500D03*
X72000D03*
G54D95*G36*
X127700Y31800D02*Y23200D01*
X136300D01*
Y31800D01*
X127700D01*
G37*
G54D96*X152000Y27500D03*
G54D100*X82000Y53000D03*
G54D95*G36*
X94750Y56750D02*Y49250D01*
X102250D01*
Y56750D01*
X94750D01*
G37*
G54D100*X128500Y53000D03*
X148500D03*
X168500D03*
X82000Y83000D03*
X128500D03*
X98500D03*
X168500D03*
X148500D03*
G54D95*G36*
X145700Y131300D02*Y124700D01*
X152300D01*
Y131300D01*
X145700D01*
G37*
G54D99*X139000Y128000D03*
G54D95*G36*
X110700Y175300D02*Y168700D01*
X117300D01*
Y175300D01*
X110700D01*
G37*
G54D99*X124000Y172000D03*
Y162000D03*
Y152000D03*
X114000Y162000D03*
Y152000D03*
G54D94*X315650Y143000D03*
G54D101*X241000Y250000D03*
G54D95*G36*
X226700Y108800D02*Y102200D01*
X233300D01*
Y108800D01*
X226700D01*
G37*
G54D101*X241000Y140000D03*
G54D99*X230000Y95500D03*
Y85500D03*
Y75500D03*
G54D95*G36*
X364200Y67800D02*Y59200D01*
X372800D01*
Y67800D01*
X364200D01*
G37*
G54D96*X368500Y83500D03*
G54D98*X373000Y17000D03*
G54D94*X335350Y143000D03*
X257000Y100000D03*
Y90000D03*
G54D95*G36*
X252500Y84500D02*Y75500D01*
X261500D01*
Y84500D01*
X252500D01*
G37*
G54D100*X338000Y80500D03*
X308000D03*
G54D95*G36*
X334250Y14250D02*Y6750D01*
X341750D01*
Y14250D01*
X334250D01*
G37*
G54D100*X308000Y10500D03*
X338000Y40500D03*
X308000D03*
X338000Y60500D03*
X308000D03*
G54D101*X241000Y40000D03*
G54D97*X147500Y372500D03*
G54D98*X373000Y373000D03*
G54D101*X241000Y350000D03*
G54D95*G36*
X123700Y374300D02*Y365700D01*
X132300D01*
Y374300D01*
X123700D01*
G37*
G54D96*X108000Y370000D03*
G54D94*X335350Y352500D03*
X315650D03*
G54D100*X338000Y290000D03*
X308000Y270000D03*
Y250000D03*
Y220000D03*
G54D95*G36*
X334250Y223750D02*Y216250D01*
X341750D01*
Y223750D01*
X334250D01*
G37*
G54D100*X338000Y250000D03*
Y270000D03*
G54D102*X336000Y185000D03*
G54D103*X360000D03*
X348000Y204000D03*
G54D95*G36*
X364200Y276300D02*Y267700D01*
X372800D01*
Y276300D01*
X364200D01*
G37*
G54D96*X368500Y292000D03*
G54D100*X308000Y290000D03*
G54D94*X257000Y310000D03*
Y300000D03*
G54D95*G36*
X252500Y294500D02*Y285500D01*
X261500D01*
Y294500D01*
X252500D01*
G37*
G36*
X226700Y318300D02*Y311700D01*
X233300D01*
Y318300D01*
X226700D01*
G37*
G54D99*X230000Y305000D03*
Y295000D03*
Y285000D03*
G54D104*X204413Y299925D02*X206283D01*
X204413Y303075D02*X206283D01*
X197717D02*X199587D01*
X197717Y299925D02*X199587D01*
G54D105*X200914Y283893D02*Y283107D01*
X208000Y283893D02*Y283107D01*
X147107Y319543D02*X147893D01*
X147107Y312457D02*X147893D01*
X166457Y299393D02*Y298607D01*
X173543Y299393D02*Y298607D01*
G54D106*X178760Y367500D02*X185413D01*
X164587Y357500D02*X171240D01*
X178760Y347500D02*X185413D01*
X164587Y337500D02*X171240D01*
G54D105*X162607Y222000D02*X163393D01*
G54D107*X160500Y242600D02*Y241400D01*
G54D105*X152457Y252893D02*Y252107D01*
X159543Y252893D02*Y252107D01*
G54D108*X185000Y226500D02*Y220000D01*
X180000Y226500D02*Y220000D01*
X175000Y226500D02*Y220000D01*
X170000Y226500D02*Y220000D01*
G54D107*X173400Y242600D02*Y241400D01*
G54D105*X162607Y214914D02*X163393D01*
G54D108*X170000Y206000D02*Y199500D01*
X175000Y206000D02*Y199500D01*
X180000Y206000D02*Y199500D01*
X185000Y206000D02*Y199500D01*
G54D109*X213500Y212500D02*Y203500D01*
Y187000D02*Y177900D01*
G54D105*X109607Y189457D02*X110393D01*
X109607Y196543D02*X110393D01*
X118607Y233457D02*X119393D01*
X111543Y224893D02*Y224107D01*
X120457Y216893D02*Y216107D01*
X127543Y216893D02*Y216107D01*
G54D108*X110000Y245500D02*Y239000D01*
G54D105*X118607Y240543D02*X119393D01*
X117607Y254457D02*X118393D01*
G54D104*X114217Y281075D02*X116087D01*
X114217Y277925D02*X116087D01*
X120913D02*X122783D01*
X120913Y281075D02*X122783D01*
G54D105*X117607Y261543D02*X118393D01*
X151914Y186893D02*Y186107D01*
X159000Y186893D02*Y186107D01*
G54D108*X156500Y168000D02*X163000D01*
X156500Y173000D02*X163000D01*
X156500Y178000D02*X163000D01*
X136000D02*X142500D01*
X136000Y173000D02*X142500D01*
X136000Y168000D02*X142500D01*
X136000Y163000D02*X142500D01*
X136000Y158000D02*X142500D01*
X136000Y153000D02*X142500D01*
X136000Y148000D02*X142500D01*
X156500D02*X163000D01*
X156500Y153000D02*X163000D01*
X156500Y158000D02*X163000D01*
X156500Y163000D02*X163000D01*
G54D104*X363717Y319075D02*X365587D01*
X363717Y315925D02*X365587D01*
X370413D02*X372283D01*
X370413Y319075D02*X372283D01*
G54D105*X371450Y343700D02*Y342100D01*
X365550Y343700D02*Y342100D01*
X371450Y331900D02*Y330300D01*
X365550Y331900D02*Y330300D01*
G54D108*X374500Y217500D02*X381000D01*
X374500Y222500D02*X381000D01*
X374500Y227500D02*X381000D01*
X374500Y232500D02*X381000D01*
G54D105*X280957Y273393D02*Y272607D01*
X288043Y273393D02*Y272607D01*
X271107Y274457D02*X271893D01*
X271107Y281543D02*X271893D01*
X280957Y283393D02*Y282607D01*
X271107Y306543D02*X271893D01*
X271107Y299457D02*X271893D01*
G54D110*X280200Y300000D02*X280800D01*
X288400Y296100D02*X289000D01*
G54D105*X288043Y283393D02*Y282607D01*
G54D110*X280200Y292200D02*X280800D01*
G54D111*X319142Y320500D02*X319929D01*
X336071D02*X336858D01*
G54D105*X331905Y306755D02*Y301245D01*
X320095Y306755D02*Y301245D01*
G54D112*X7508Y322500D02*X13807D01*
X27193D02*X33492D01*
G54D105*X25595Y284681D02*Y282319D01*
Y296181D02*Y293819D01*
G54D107*X27500Y345600D02*Y344400D01*
X14600Y345600D02*Y344400D01*
G54D105*X31457Y272893D02*Y272107D01*
X38543Y272893D02*Y272107D01*
X10957Y272893D02*Y272107D01*
X18043Y272893D02*Y272107D01*
X98107Y288043D02*X98893D01*
G54D106*X107087Y291500D02*X113740D01*
X121260Y301500D02*X127913D01*
X107087Y311500D02*X113740D01*
X121260Y321500D02*X127913D01*
G54D108*X97500Y303500D02*Y297000D01*
X92500Y303500D02*Y297000D01*
X97500Y324000D02*Y317500D01*
X92500Y324000D02*Y317500D01*
G54D105*X84607Y289043D02*X85393D01*
X84607Y281957D02*X85393D01*
X68607Y320543D02*X69393D01*
G54D113*X58906Y319484D02*Y315390D01*
X53000Y319484D02*Y307674D01*
G54D105*X37405Y284681D02*Y282319D01*
X68607Y313457D02*X69393D01*
X37405Y296181D02*Y293819D01*
G54D114*X53000Y305940D02*Y304050D01*
G54D95*G36*
X54885Y313929D02*X58149Y310665D01*
X56305Y308821D01*
X53041Y312085D01*
X54885Y313929D01*
G37*
G36*
X47851Y310665D02*X51115Y313929D01*
X52959Y312085D01*
X49695Y308821D01*
X47851Y310665D01*
G37*
G54D113*X47094Y319484D02*Y315390D01*
G54D108*X82500Y303500D02*Y297000D01*
Y324000D02*Y317500D01*
X87500Y303500D02*Y297000D01*
Y324000D02*Y317500D01*
G54D105*X98107Y280957D02*X98893D01*
G54D108*X110000Y266000D02*Y259500D01*
X105000Y266000D02*Y259500D01*
X100000Y266000D02*Y259500D01*
X95000Y266000D02*Y259500D01*
X90000Y266000D02*Y259500D01*
X85000Y266000D02*Y259500D01*
X80000Y266000D02*Y259500D01*
X75000Y266000D02*Y259500D01*
Y245500D02*Y239000D01*
X80000Y245500D02*Y239000D01*
X85000Y245500D02*Y239000D01*
X90000Y245500D02*Y239000D01*
X95000Y245500D02*Y239000D01*
X100000Y245500D02*Y239000D01*
X105000Y245500D02*Y239000D01*
G54D105*X104457Y224893D02*Y224107D01*
G54D115*X14450Y144500D02*X19650D01*
X48350D02*X53550D01*
G54D110*X112700Y131500D02*X113300D01*
X112700Y123700D02*X113300D01*
X120900Y127600D02*X121500D01*
G54D115*X14450Y134500D02*X19650D01*
X14450Y124500D02*X19650D01*
X14450Y114500D02*X19650D01*
X14450Y104500D02*X19650D01*
X48350Y134500D02*X53550D01*
X48350Y124500D02*X53550D01*
X48350Y114500D02*X53550D01*
X48350Y104500D02*X53550D01*
G54D108*X79700Y97000D02*X81300D01*
X71500D02*X73100D01*
X79700Y100900D02*X81300D01*
X79700Y104800D02*X81300D01*
X71500D02*X73100D01*
X71500Y100900D02*X73100D01*
G54D105*X44107Y192500D02*X44893D01*
X44107Y199586D02*X44893D01*
X44107Y206914D02*X44893D01*
X33607Y188957D02*X34393D01*
X33607Y196043D02*X34393D01*
X44107Y214000D02*X44893D01*
G54D116*X18500Y211091D02*Y195343D01*
G54D117*X55508Y206023D02*X59934D01*
X55508Y202874D02*X59934D01*
X55508Y199724D02*X59934D01*
X55508Y196575D02*X59934D01*
G54D105*X33607Y182043D02*X34393D01*
X33607Y174957D02*X34393D01*
G54D116*X18500Y175657D02*Y159909D01*
G54D117*X55508Y193425D02*X59934D01*
X55508Y190275D02*X59934D01*
X55508Y187126D02*X59934D01*
X55508Y183976D02*X59934D01*
X65477Y178434D02*Y174008D01*
X68626Y178434D02*Y174008D01*
X71776Y178434D02*Y174008D01*
X74925Y178434D02*Y174008D01*
X78075Y178434D02*Y174008D01*
X81225Y178434D02*Y174008D01*
X84374Y178434D02*Y174008D01*
X87524Y178434D02*Y174008D01*
X93066Y183977D02*X97492D01*
X93066Y187126D02*X97492D01*
X93066Y190276D02*X97492D01*
X93066Y193425D02*X97492D01*
X93066Y196575D02*X97492D01*
X93066Y199725D02*X97492D01*
X93066Y202874D02*X97492D01*
X93066Y206024D02*X97492D01*
X87523Y215992D02*Y211566D01*
X84374Y215992D02*Y211566D01*
X81224Y215992D02*Y211566D01*
X78075Y215992D02*Y211566D01*
X74925Y215992D02*Y211566D01*
X71775Y215992D02*Y211566D01*
X68626Y215992D02*Y211566D01*
X65476Y215992D02*Y211566D01*
G54D105*X360107Y153957D02*X360893D01*
X360107Y161043D02*X360893D01*
X328043Y208393D02*Y207607D01*
X320957Y208393D02*Y207607D01*
G54D108*X354000Y232500D02*X360500D01*
X354000Y227500D02*X360500D01*
X354000Y222500D02*X360500D01*
X354000Y217500D02*X360500D01*
G54D105*X203414Y63893D02*Y63107D01*
X210500Y63893D02*Y63107D01*
G54D108*X175000Y20800D02*Y19200D01*
X178900Y20800D02*Y19200D01*
X182800Y20800D02*Y19200D01*
Y29000D02*Y27400D01*
X178900Y29000D02*Y27400D01*
X175000Y29000D02*Y27400D01*
G54D109*X270500Y212500D02*Y203500D01*
Y187000D02*Y177900D01*
G54D111*X319142Y111000D02*X319929D01*
G54D105*X239245Y202905D02*X244755D01*
X239245Y191095D02*X244755D01*
X280957Y63393D02*Y62607D01*
Y73393D02*Y72607D01*
G54D110*X280200Y82200D02*X280800D01*
G54D105*X288043Y63393D02*Y62607D01*
Y73393D02*Y72607D01*
G54D110*X288400Y86100D02*X289000D01*
G54D105*X271107Y89457D02*X271893D01*
G54D110*X280200Y90000D02*X280800D01*
G54D105*X271107Y96543D02*X271893D01*
X271107Y71543D02*X271893D01*
X271107Y64457D02*X271893D01*
G54D111*X336071Y111000D02*X336858D01*
G54D105*X331905Y97255D02*Y91745D01*
X320095Y97255D02*Y91745D01*
X365550Y106900D02*Y105300D01*
X371450Y106900D02*Y105300D01*
X365550Y118700D02*Y117100D01*
X371450Y118700D02*Y117100D01*
G54D104*X370717Y133575D02*X372587D01*
X370717Y130425D02*X372587D01*
X377413D02*X379283D01*
X377413Y133575D02*X379283D01*
G54D105*X370319Y142095D02*X372681D01*
X370319Y153905D02*X372681D01*
M02*
