G04 start of page 10 for group -4015 idx -4015 *
G04 Title: (unknown), toppaste *
G04 Creator: pcb 20140316 *
G04 CreationDate: Tue 07 Jul 2015 02:36:49 AM GMT UTC *
G04 For: ndholmes *
G04 Format: Gerber/RS-274X *
G04 PCB-Dimensions (mil): 3900.00 3900.00 *
G04 PCB-Coordinate-Origin: lower left *
%MOIN*%
%FSLAX25Y25*%
%LNTOPPASTE*%
%ADD147R,0.0906X0.0906*%
%ADD146R,0.0157X0.0157*%
%ADD145R,0.0787X0.0787*%
%ADD144R,0.0440X0.0440*%
%ADD143C,0.0001*%
%ADD142R,0.0945X0.0945*%
%ADD141R,0.0378X0.0378*%
%ADD140R,0.0360X0.0360*%
%ADD139R,0.0200X0.0200*%
%ADD138R,0.0340X0.0340*%
%ADD137R,0.0240X0.0240*%
%ADD136R,0.0630X0.0630*%
%ADD135R,0.0500X0.0500*%
%ADD134R,0.0512X0.0512*%
%ADD133R,0.0430X0.0430*%
%ADD132R,0.0167X0.0167*%
G54D132*X370717Y136075D02*X372587D01*
X370717Y132925D02*X372587D01*
X377413D02*X379283D01*
X377413Y136075D02*X379283D01*
X363717Y319075D02*X365587D01*
X363717Y315925D02*X365587D01*
X370413D02*X372283D01*
X370413Y319075D02*X372283D01*
X204413Y299925D02*X206283D01*
X204413Y303075D02*X206283D01*
X197717D02*X199587D01*
X197717Y299925D02*X199587D01*
G54D133*X371450Y343700D02*Y342100D01*
X365550Y343700D02*Y342100D01*
X371450Y331900D02*Y330300D01*
X365550Y331900D02*Y330300D01*
G54D134*X147107Y319543D02*X147893D01*
X147107Y312457D02*X147893D01*
X166457Y299393D02*Y298607D01*
X173543Y299393D02*Y298607D01*
X162607Y214914D02*X163393D01*
X162607Y222000D02*X163393D01*
X203414Y63893D02*Y63107D01*
X210500Y63893D02*Y63107D01*
X260414Y62893D02*Y62107D01*
X267500Y62893D02*Y62107D01*
X282107Y89657D02*X282893D01*
X282107Y96743D02*X282893D01*
G54D135*X178760Y367500D02*X185413D01*
X164587Y357500D02*X171240D01*
X178760Y347500D02*X185413D01*
X164587Y337500D02*X171240D01*
G54D134*X360543Y161393D02*Y160607D01*
X353457Y161393D02*Y160607D01*
X200914Y283893D02*Y283107D01*
X208000Y283893D02*Y283107D01*
X260414Y273393D02*Y272607D01*
X267500Y273393D02*Y272607D01*
G54D136*X7508Y322500D02*X13807D01*
X27193D02*X33492D01*
G54D134*X84607Y289043D02*X85393D01*
X84607Y281957D02*X85393D01*
X98107Y288043D02*X98893D01*
X98107Y280957D02*X98893D01*
X37405Y284681D02*Y282319D01*
X25595Y284681D02*Y282319D01*
X31457Y272893D02*Y272107D01*
X38543Y272893D02*Y272107D01*
X68607Y313457D02*X69393D01*
X68607Y320543D02*X69393D01*
X37405Y296181D02*Y293819D01*
X25595Y296181D02*Y293819D01*
X10957Y272893D02*Y272107D01*
X18043Y272893D02*Y272107D01*
G54D137*X175000Y20800D02*Y19200D01*
X178900Y20800D02*Y19200D01*
X182800Y20800D02*Y19200D01*
Y29000D02*Y27400D01*
X178900Y29000D02*Y27400D01*
X175000Y29000D02*Y27400D01*
G54D133*X215500Y212500D02*Y203500D01*
Y187000D02*Y177900D01*
X268500Y212500D02*Y203500D01*
Y187000D02*Y177900D01*
G54D134*X278107Y299457D02*X278893D01*
X278107Y306543D02*X278893D01*
G54D138*X285900Y288000D02*Y287400D01*
X278100Y288000D02*Y287400D01*
X282000Y279800D02*Y279200D01*
G54D139*X185000Y226500D02*Y220000D01*
X180000Y226500D02*Y220000D01*
X175000Y226500D02*Y220000D01*
X170000Y226500D02*Y220000D01*
Y206000D02*Y199500D01*
X175000Y206000D02*Y199500D01*
X180000Y206000D02*Y199500D01*
X185000Y206000D02*Y199500D01*
G54D138*X278200Y79500D02*X278800D01*
X278200Y71700D02*X278800D01*
X286400Y75600D02*X287000D01*
G54D140*X160500Y242600D02*Y241400D01*
X173400Y242600D02*Y241400D01*
G54D134*X152457Y252893D02*Y252107D01*
X159543Y252893D02*Y252107D01*
G54D133*X365550Y106900D02*Y105300D01*
X371450Y106900D02*Y105300D01*
X365550Y118700D02*Y117100D01*
X371450Y118700D02*Y117100D01*
G54D134*X328043Y212893D02*Y212107D01*
X320957Y212893D02*Y212107D01*
G54D139*X374500Y217500D02*X381000D01*
X374500Y222500D02*X381000D01*
X374500Y227500D02*X381000D01*
X374500Y232500D02*X381000D01*
X354000D02*X360500D01*
X354000Y227500D02*X360500D01*
X354000Y222500D02*X360500D01*
X354000Y217500D02*X360500D01*
G54D134*X370319Y145095D02*X372681D01*
X370319Y156905D02*X372681D01*
G54D140*X27500Y345600D02*Y344400D01*
X14600Y345600D02*Y344400D01*
G54D141*X58906Y319484D02*Y315390D01*
X53000Y319484D02*Y307674D01*
G54D142*Y305940D02*Y304050D01*
G54D143*G36*
X54885Y313505D02*X57725Y310665D01*
X56305Y309245D01*
X53465Y312085D01*
X54885Y313505D01*
G37*
G36*
X48275Y310665D02*X51115Y313505D01*
X52535Y312085D01*
X49695Y309245D01*
X48275Y310665D01*
G37*
G54D141*X47094Y319484D02*Y315390D01*
G54D134*X151914Y186893D02*Y186107D01*
X159000Y186893D02*Y186107D01*
G54D144*X14450Y144500D02*X19650D01*
X48350D02*X53550D01*
X14450Y134500D02*X19650D01*
X48350D02*X53550D01*
X14450Y124500D02*X19650D01*
X48350D02*X53550D01*
X14450Y114500D02*X19650D01*
X48350D02*X53550D01*
X14450Y104500D02*X19650D01*
X48350D02*X53550D01*
G54D134*X44107Y192500D02*X44893D01*
X44107Y199586D02*X44893D01*
X44107Y206914D02*X44893D01*
X44107Y214000D02*X44893D01*
X109607Y189457D02*X110393D01*
X109607Y196543D02*X110393D01*
X33607Y188957D02*X34393D01*
X33607Y196043D02*X34393D01*
X33607Y182043D02*X34393D01*
X33607Y174957D02*X34393D01*
G54D145*X18500Y211091D02*Y195343D01*
Y175657D02*Y159909D01*
G54D135*X107087Y291500D02*X113740D01*
X121260Y301500D02*X127913D01*
X107087Y311500D02*X113740D01*
X121260Y321500D02*X127913D01*
G54D139*X110000Y266000D02*Y259500D01*
X105000Y266000D02*Y259500D01*
X100000Y266000D02*Y259500D01*
X95000Y266000D02*Y259500D01*
X90000Y266000D02*Y259500D01*
X85000Y266000D02*Y259500D01*
X80000Y266000D02*Y259500D01*
X75000Y266000D02*Y259500D01*
Y245500D02*Y239000D01*
X80000Y245500D02*Y239000D01*
X85000Y245500D02*Y239000D01*
X90000Y245500D02*Y239000D01*
X95000Y245500D02*Y239000D01*
X100000Y245500D02*Y239000D01*
X105000Y245500D02*Y239000D01*
X110000Y245500D02*Y239000D01*
X82500Y303500D02*Y297000D01*
X87500Y303500D02*Y297000D01*
X92500Y303500D02*Y297000D01*
X97500Y303500D02*Y297000D01*
Y324000D02*Y317500D01*
X92500Y324000D02*Y317500D01*
X87500Y324000D02*Y317500D01*
X82500Y324000D02*Y317500D01*
G54D132*X114217Y281075D02*X116087D01*
X114217Y277925D02*X116087D01*
X120913D02*X122783D01*
X120913Y281075D02*X122783D01*
G54D134*X118607Y240543D02*X119393D01*
X118607Y233457D02*X119393D01*
X120457Y216893D02*Y216107D01*
X127543Y216893D02*Y216107D01*
X104457Y224893D02*Y224107D01*
X111543Y224893D02*Y224107D01*
G54D137*X79700Y97000D02*X81300D01*
X79700Y100900D02*X81300D01*
X79700Y104800D02*X81300D01*
X71500D02*X73100D01*
X71500Y100900D02*X73100D01*
X71500Y97000D02*X73100D01*
G54D138*X112700Y131500D02*X113300D01*
X112700Y123700D02*X113300D01*
X120900Y127600D02*X121500D01*
G54D146*X55508Y206023D02*X59934D01*
X55508Y202874D02*X59934D01*
X55508Y199724D02*X59934D01*
X55508Y196575D02*X59934D01*
X55508Y193425D02*X59934D01*
X55508Y190275D02*X59934D01*
X55508Y187126D02*X59934D01*
X55508Y183976D02*X59934D01*
X65477Y178434D02*Y174008D01*
X68626Y178434D02*Y174008D01*
X71776Y178434D02*Y174008D01*
X74925Y178434D02*Y174008D01*
X78075Y178434D02*Y174008D01*
X81225Y178434D02*Y174008D01*
X84374Y178434D02*Y174008D01*
X87524Y178434D02*Y174008D01*
X93066Y183977D02*X97492D01*
X93066Y187126D02*X97492D01*
X93066Y190276D02*X97492D01*
X93066Y193425D02*X97492D01*
X93066Y196575D02*X97492D01*
X93066Y199725D02*X97492D01*
X93066Y202874D02*X97492D01*
X93066Y206024D02*X97492D01*
X87523Y215992D02*Y211566D01*
X84374Y215992D02*Y211566D01*
X81224Y215992D02*Y211566D01*
X78075Y215992D02*Y211566D01*
X74925Y215992D02*Y211566D01*
X71775Y215992D02*Y211566D01*
X68626Y215992D02*Y211566D01*
X65476Y215992D02*Y211566D01*
G54D147*X319142Y100500D02*X319929D01*
X336071D02*X336858D01*
X319142Y309500D02*X319929D01*
X336071D02*X336858D01*
G54D134*X117607Y254457D02*X118393D01*
X117607Y261543D02*X118393D01*
G54D139*X136000Y178000D02*X142500D01*
X136000Y173000D02*X142500D01*
X136000Y168000D02*X142500D01*
X136000Y163000D02*X142500D01*
X136000Y158000D02*X142500D01*
X136000Y153000D02*X142500D01*
X136000Y148000D02*X142500D01*
X156500D02*X163000D01*
X156500Y153000D02*X163000D01*
X156500Y158000D02*X163000D01*
X156500Y163000D02*X163000D01*
X156500Y168000D02*X163000D01*
X156500Y173000D02*X163000D01*
X156500Y178000D02*X163000D01*
M02*
