G04 start of page 2 for group 0 idx 0 *
G04 Title: (unknown), component *
G04 Creator: pcb 20140316 *
G04 CreationDate: Tue 07 Jul 2015 02:36:49 AM GMT UTC *
G04 For: ndholmes *
G04 Format: Gerber/RS-274X *
G04 PCB-Dimensions (mil): 3900.00 3900.00 *
G04 PCB-Coordinate-Origin: lower left *
%MOIN*%
%FSLAX25Y25*%
%LNTOP*%
%ADD54C,0.1100*%
%ADD53C,0.1250*%
%ADD52C,0.1080*%
%ADD51C,0.0450*%
%ADD50C,0.0380*%
%ADD49C,0.0480*%
%ADD48C,0.1285*%
%ADD47C,0.1280*%
%ADD46C,0.0350*%
%ADD45C,0.0200*%
%ADD44C,0.0360*%
%ADD43R,0.0378X0.0378*%
%ADD42R,0.0945X0.0945*%
%ADD41R,0.0157X0.0157*%
%ADD40R,0.0787X0.0787*%
%ADD39R,0.0440X0.0440*%
%ADD38R,0.0630X0.0630*%
%ADD37R,0.0360X0.0360*%
%ADD36R,0.0200X0.0200*%
%ADD35R,0.0906X0.0906*%
%ADD34R,0.0340X0.0340*%
%ADD33R,0.0240X0.0240*%
%ADD32R,0.0430X0.0430*%
%ADD31R,0.0500X0.0500*%
%ADD30R,0.0512X0.0512*%
%ADD29R,0.0167X0.0167*%
%ADD28C,0.0900*%
%ADD27C,0.1500*%
%ADD26C,0.1750*%
%ADD25C,0.2420*%
%ADD24C,0.0787*%
%ADD23C,0.0650*%
%ADD22C,0.0680*%
%ADD21C,0.2937*%
%ADD20C,0.1440*%
%ADD19C,0.0700*%
%ADD18C,0.0500*%
%ADD17C,0.0800*%
%ADD16C,0.0150*%
%ADD15C,0.0600*%
%ADD14C,0.0100*%
%ADD13C,0.0250*%
%ADD12C,0.0400*%
%ADD11C,0.0001*%
G54D11*G36*
X341964Y356000D02*X353500D01*
Y266000D01*
X341964D01*
Y269596D01*
X341976Y269611D01*
X342379Y270269D01*
X342675Y270981D01*
X342855Y271731D01*
X342900Y272500D01*
X342855Y273269D01*
X342675Y274019D01*
X342379Y274731D01*
X341976Y275389D01*
X341964Y275404D01*
Y290064D01*
X342049Y290089D01*
X342155Y290139D01*
X342253Y290206D01*
X342339Y290287D01*
X342411Y290380D01*
X342466Y290484D01*
X342641Y290912D01*
X342770Y291355D01*
X342857Y291809D01*
X342900Y292269D01*
Y292731D01*
X342857Y293191D01*
X342770Y293645D01*
X342641Y294088D01*
X342471Y294518D01*
X342415Y294622D01*
X342342Y294716D01*
X342255Y294797D01*
X342157Y294864D01*
X342050Y294914D01*
X341964Y294940D01*
Y342789D01*
X342010Y342904D01*
X342179Y343489D01*
X342293Y344088D01*
X342350Y344695D01*
Y345305D01*
X342293Y345912D01*
X342179Y346511D01*
X342010Y347097D01*
X341964Y347215D01*
Y356000D01*
G37*
G36*
Y266000D02*X337992D01*
Y267585D01*
X338000Y267585D01*
X338769Y267645D01*
X339519Y267825D01*
X340231Y268121D01*
X340889Y268524D01*
X341476Y269024D01*
X341964Y269596D01*
Y266000D01*
G37*
G36*
X337992Y356000D02*X341964D01*
Y347215D01*
X341787Y347664D01*
X341712Y347803D01*
X341615Y347928D01*
X341500Y348037D01*
X341370Y348126D01*
X341227Y348194D01*
X341075Y348238D01*
X340918Y348258D01*
X340760Y348254D01*
X340604Y348224D01*
X340455Y348171D01*
X340317Y348095D01*
X340191Y347999D01*
X340083Y347884D01*
X339994Y347753D01*
X339926Y347610D01*
X339881Y347458D01*
X339861Y347301D01*
X339866Y347143D01*
X339895Y346988D01*
X339951Y346840D01*
X340110Y346450D01*
X340227Y346045D01*
X340306Y345631D01*
X340345Y345211D01*
Y344789D01*
X340306Y344369D01*
X340227Y343955D01*
X340110Y343550D01*
X339956Y343158D01*
X339900Y343011D01*
X339871Y342856D01*
X339866Y342699D01*
X339886Y342543D01*
X339931Y342392D01*
X339998Y342249D01*
X340087Y342119D01*
X340195Y342005D01*
X340319Y341909D01*
X340457Y341833D01*
X340606Y341780D01*
X340760Y341751D01*
X340918Y341747D01*
X341074Y341767D01*
X341225Y341811D01*
X341367Y341878D01*
X341497Y341967D01*
X341612Y342075D01*
X341708Y342200D01*
X341780Y342339D01*
X341964Y342789D01*
Y294940D01*
X341936Y294948D01*
X341818Y294962D01*
X341700Y294959D01*
X341583Y294937D01*
X341472Y294896D01*
X341368Y294839D01*
X341274Y294766D01*
X341193Y294680D01*
X341126Y294582D01*
X341075Y294475D01*
X341042Y294361D01*
X341027Y294243D01*
X341031Y294124D01*
X341053Y294008D01*
X341096Y293897D01*
X341217Y293601D01*
X341306Y293293D01*
X341366Y292979D01*
X341396Y292660D01*
Y292340D01*
X341366Y292021D01*
X341306Y291707D01*
X341217Y291399D01*
X341099Y291101D01*
X341057Y290991D01*
X341035Y290875D01*
X341031Y290757D01*
X341046Y290640D01*
X341079Y290527D01*
X341129Y290420D01*
X341196Y290322D01*
X341276Y290236D01*
X341370Y290164D01*
X341473Y290107D01*
X341584Y290067D01*
X341700Y290045D01*
X341818Y290041D01*
X341935Y290056D01*
X341964Y290064D01*
Y275404D01*
X341476Y275976D01*
X340889Y276476D01*
X340231Y276879D01*
X339519Y277175D01*
X338769Y277355D01*
X338000Y277415D01*
X337992Y277415D01*
Y287600D01*
X338231D01*
X338691Y287643D01*
X339145Y287730D01*
X339588Y287859D01*
X340018Y288029D01*
X340122Y288085D01*
X340216Y288158D01*
X340297Y288245D01*
X340364Y288343D01*
X340414Y288450D01*
X340448Y288564D01*
X340462Y288682D01*
X340459Y288800D01*
X340436Y288917D01*
X340396Y289028D01*
X340339Y289132D01*
X340266Y289226D01*
X340180Y289307D01*
X340082Y289374D01*
X339975Y289425D01*
X339861Y289458D01*
X339743Y289473D01*
X339624Y289469D01*
X339508Y289447D01*
X339397Y289404D01*
X339101Y289283D01*
X338793Y289194D01*
X338479Y289134D01*
X338160Y289104D01*
X337992D01*
Y295896D01*
X338160D01*
X338479Y295866D01*
X338793Y295806D01*
X339101Y295717D01*
X339399Y295599D01*
X339509Y295557D01*
X339625Y295535D01*
X339743Y295531D01*
X339860Y295546D01*
X339973Y295579D01*
X340080Y295629D01*
X340178Y295696D01*
X340264Y295776D01*
X340336Y295870D01*
X340393Y295973D01*
X340433Y296084D01*
X340455Y296200D01*
X340459Y296318D01*
X340444Y296435D01*
X340411Y296549D01*
X340361Y296655D01*
X340294Y296753D01*
X340213Y296839D01*
X340120Y296911D01*
X340016Y296966D01*
X339588Y297141D01*
X339145Y297270D01*
X338691Y297357D01*
X338231Y297400D01*
X337992D01*
Y338858D01*
X338514Y339063D01*
X338653Y339138D01*
X338778Y339235D01*
X338887Y339350D01*
X338976Y339480D01*
X339044Y339623D01*
X339088Y339775D01*
X339108Y339932D01*
X339104Y340090D01*
X339074Y340246D01*
X339021Y340395D01*
X338945Y340533D01*
X338849Y340659D01*
X338734Y340767D01*
X338603Y340856D01*
X338460Y340924D01*
X338308Y340969D01*
X338151Y340989D01*
X337993Y340984D01*
X337992Y340984D01*
Y349021D01*
X337994Y349021D01*
X338151Y349016D01*
X338307Y349036D01*
X338458Y349081D01*
X338601Y349148D01*
X338731Y349237D01*
X338845Y349345D01*
X338941Y349469D01*
X339017Y349607D01*
X339070Y349756D01*
X339099Y349910D01*
X339103Y350068D01*
X339083Y350224D01*
X339039Y350375D01*
X338972Y350517D01*
X338883Y350647D01*
X338775Y350762D01*
X338650Y350858D01*
X338511Y350930D01*
X337992Y351141D01*
Y356000D01*
G37*
G36*
X334036Y269596D02*X334524Y269024D01*
X335111Y268524D01*
X335769Y268121D01*
X336481Y267825D01*
X337231Y267645D01*
X337992Y267585D01*
Y266000D01*
X334036D01*
Y269596D01*
G37*
G36*
Y338758D02*X334339Y338671D01*
X334938Y338557D01*
X335545Y338500D01*
X336155D01*
X336762Y338557D01*
X337361Y338671D01*
X337946Y338840D01*
X337992Y338858D01*
Y297400D01*
X337769D01*
X337309Y297357D01*
X336855Y297270D01*
X336412Y297141D01*
X335982Y296971D01*
X335878Y296915D01*
X335784Y296842D01*
X335703Y296755D01*
X335636Y296657D01*
X335586Y296550D01*
X335552Y296436D01*
X335538Y296318D01*
X335541Y296200D01*
X335563Y296083D01*
X335604Y295972D01*
X335661Y295868D01*
X335734Y295774D01*
X335820Y295693D01*
X335918Y295626D01*
X336025Y295575D01*
X336139Y295542D01*
X336257Y295527D01*
X336376Y295531D01*
X336492Y295553D01*
X336603Y295596D01*
X336899Y295717D01*
X337207Y295806D01*
X337521Y295866D01*
X337840Y295896D01*
X337992D01*
Y289104D01*
X337840D01*
X337521Y289134D01*
X337207Y289194D01*
X336899Y289283D01*
X336601Y289401D01*
X336491Y289443D01*
X336375Y289465D01*
X336257Y289469D01*
X336140Y289454D01*
X336027Y289421D01*
X335920Y289371D01*
X335822Y289304D01*
X335736Y289224D01*
X335664Y289130D01*
X335607Y289027D01*
X335567Y288916D01*
X335545Y288800D01*
X335541Y288682D01*
X335556Y288565D01*
X335589Y288451D01*
X335639Y288345D01*
X335706Y288247D01*
X335787Y288161D01*
X335880Y288089D01*
X335984Y288034D01*
X336412Y287859D01*
X336855Y287730D01*
X337309Y287643D01*
X337769Y287600D01*
X337992D01*
Y277415D01*
X337231Y277355D01*
X336481Y277175D01*
X335769Y276879D01*
X335111Y276476D01*
X334524Y275976D01*
X334036Y275404D01*
Y290060D01*
X334064Y290052D01*
X334182Y290038D01*
X334300Y290041D01*
X334417Y290064D01*
X334528Y290104D01*
X334632Y290161D01*
X334726Y290234D01*
X334807Y290320D01*
X334874Y290418D01*
X334925Y290525D01*
X334958Y290639D01*
X334973Y290757D01*
X334969Y290876D01*
X334947Y290992D01*
X334904Y291103D01*
X334783Y291399D01*
X334694Y291707D01*
X334634Y292021D01*
X334604Y292340D01*
Y292660D01*
X334634Y292979D01*
X334694Y293293D01*
X334783Y293601D01*
X334901Y293899D01*
X334943Y294009D01*
X334965Y294125D01*
X334969Y294243D01*
X334954Y294360D01*
X334921Y294473D01*
X334871Y294580D01*
X334804Y294678D01*
X334724Y294764D01*
X334630Y294836D01*
X334527Y294893D01*
X334416Y294933D01*
X334300Y294955D01*
X334182Y294959D01*
X334065Y294944D01*
X334036Y294936D01*
Y338758D01*
G37*
G36*
Y349112D02*X334400Y349260D01*
X334805Y349377D01*
X335219Y349456D01*
X335639Y349495D01*
X336061D01*
X336481Y349456D01*
X336895Y349377D01*
X337300Y349260D01*
X337692Y349106D01*
X337839Y349050D01*
X337992Y349021D01*
Y340984D01*
X337838Y340955D01*
X337690Y340899D01*
X337300Y340740D01*
X336895Y340623D01*
X336481Y340544D01*
X336061Y340505D01*
X335639D01*
X335219Y340544D01*
X334805Y340623D01*
X334400Y340740D01*
X334036Y340883D01*
Y349112D01*
G37*
G36*
Y356000D02*X337992D01*
Y351141D01*
X337946Y351160D01*
X337361Y351329D01*
X336762Y351443D01*
X336155Y351500D01*
X335545D01*
X334938Y351443D01*
X334339Y351329D01*
X334036Y351242D01*
Y356000D01*
G37*
G36*
X330594D02*X334036D01*
Y351242D01*
X333753Y351160D01*
X333186Y350937D01*
X333047Y350862D01*
X332922Y350765D01*
X332813Y350650D01*
X332724Y350520D01*
X332656Y350377D01*
X332612Y350225D01*
X332592Y350068D01*
X332596Y349910D01*
X332626Y349754D01*
X332679Y349605D01*
X332755Y349467D01*
X332851Y349341D01*
X332966Y349233D01*
X333097Y349144D01*
X333240Y349076D01*
X333392Y349031D01*
X333549Y349011D01*
X333707Y349016D01*
X333862Y349045D01*
X334010Y349101D01*
X334036Y349112D01*
Y340883D01*
X334008Y340894D01*
X333861Y340950D01*
X333706Y340979D01*
X333549Y340984D01*
X333393Y340964D01*
X333242Y340919D01*
X333099Y340852D01*
X332969Y340763D01*
X332855Y340655D01*
X332759Y340531D01*
X332683Y340393D01*
X332630Y340244D01*
X332601Y340090D01*
X332597Y339932D01*
X332617Y339776D01*
X332661Y339625D01*
X332728Y339483D01*
X332817Y339353D01*
X332925Y339238D01*
X333050Y339142D01*
X333189Y339070D01*
X333753Y338840D01*
X334036Y338758D01*
Y294936D01*
X333951Y294911D01*
X333845Y294861D01*
X333747Y294794D01*
X333661Y294713D01*
X333589Y294620D01*
X333534Y294516D01*
X333359Y294088D01*
X333230Y293645D01*
X333143Y293191D01*
X333100Y292731D01*
Y292269D01*
X333143Y291809D01*
X333230Y291355D01*
X333359Y290912D01*
X333529Y290482D01*
X333585Y290378D01*
X333658Y290284D01*
X333745Y290203D01*
X333843Y290136D01*
X333950Y290086D01*
X334036Y290060D01*
Y275404D01*
X334024Y275389D01*
X333621Y274731D01*
X333325Y274019D01*
X333145Y273269D01*
X333085Y272500D01*
X333145Y271731D01*
X333325Y270981D01*
X333621Y270269D01*
X334024Y269611D01*
X334036Y269596D01*
Y266000D01*
X330594D01*
Y341771D01*
X330625Y341762D01*
X330782Y341742D01*
X330940Y341746D01*
X331096Y341776D01*
X331245Y341829D01*
X331383Y341905D01*
X331509Y342001D01*
X331617Y342116D01*
X331706Y342247D01*
X331774Y342390D01*
X331819Y342542D01*
X331839Y342699D01*
X331834Y342857D01*
X331805Y343012D01*
X331749Y343160D01*
X331590Y343550D01*
X331473Y343955D01*
X331394Y344369D01*
X331355Y344789D01*
Y345211D01*
X331394Y345631D01*
X331473Y346045D01*
X331590Y346450D01*
X331744Y346842D01*
X331800Y346989D01*
X331829Y347144D01*
X331834Y347301D01*
X331814Y347457D01*
X331769Y347608D01*
X331702Y347751D01*
X331613Y347881D01*
X331505Y347995D01*
X331381Y348091D01*
X331243Y348167D01*
X331094Y348220D01*
X330940Y348249D01*
X330782Y348253D01*
X330626Y348233D01*
X330594Y348224D01*
Y356000D01*
G37*
G36*
X327000D02*X330594D01*
Y348224D01*
X330475Y348189D01*
X330333Y348122D01*
X330203Y348033D01*
X330088Y347925D01*
X329992Y347800D01*
X329920Y347661D01*
X329690Y347097D01*
X329521Y346511D01*
X329407Y345912D01*
X329350Y345305D01*
Y344695D01*
X329407Y344088D01*
X329521Y343489D01*
X329690Y342904D01*
X329913Y342336D01*
X329988Y342197D01*
X330085Y342072D01*
X330200Y341963D01*
X330330Y341874D01*
X330473Y341806D01*
X330594Y341771D01*
Y266000D01*
X327000D01*
Y356000D01*
G37*
G36*
X337992Y282500D02*X345500D01*
Y266000D01*
X337992D01*
Y267585D01*
X338000Y267585D01*
X338769Y267645D01*
X339519Y267825D01*
X340231Y268121D01*
X340889Y268524D01*
X341476Y269024D01*
X341976Y269611D01*
X342379Y270269D01*
X342675Y270981D01*
X342855Y271731D01*
X342900Y272500D01*
X342855Y273269D01*
X342675Y274019D01*
X342379Y274731D01*
X341976Y275389D01*
X341476Y275976D01*
X340889Y276476D01*
X340231Y276879D01*
X339519Y277175D01*
X338769Y277355D01*
X338000Y277415D01*
X337992Y277415D01*
Y282500D01*
G37*
G36*
X311964D02*X337992D01*
Y277415D01*
X337231Y277355D01*
X336481Y277175D01*
X335769Y276879D01*
X335111Y276476D01*
X334524Y275976D01*
X334024Y275389D01*
X333621Y274731D01*
X333325Y274019D01*
X333145Y273269D01*
X333085Y272500D01*
X333145Y271731D01*
X333325Y270981D01*
X333621Y270269D01*
X334024Y269611D01*
X334524Y269024D01*
X335111Y268524D01*
X335769Y268121D01*
X336481Y267825D01*
X337231Y267645D01*
X337992Y267585D01*
Y266000D01*
X311964D01*
Y270064D01*
X312049Y270089D01*
X312155Y270139D01*
X312253Y270206D01*
X312339Y270287D01*
X312411Y270380D01*
X312466Y270484D01*
X312641Y270912D01*
X312770Y271355D01*
X312857Y271809D01*
X312900Y272269D01*
Y272731D01*
X312857Y273191D01*
X312770Y273645D01*
X312641Y274088D01*
X312471Y274518D01*
X312415Y274622D01*
X312342Y274716D01*
X312255Y274797D01*
X312157Y274864D01*
X312050Y274914D01*
X311964Y274940D01*
Y282500D01*
G37*
G36*
X308002D02*X311964D01*
Y274940D01*
X311936Y274948D01*
X311818Y274962D01*
X311700Y274959D01*
X311583Y274937D01*
X311472Y274896D01*
X311368Y274839D01*
X311274Y274766D01*
X311193Y274680D01*
X311126Y274582D01*
X311075Y274475D01*
X311042Y274361D01*
X311027Y274243D01*
X311031Y274124D01*
X311053Y274008D01*
X311096Y273897D01*
X311217Y273601D01*
X311306Y273293D01*
X311366Y272979D01*
X311396Y272660D01*
Y272340D01*
X311366Y272021D01*
X311306Y271707D01*
X311217Y271399D01*
X311099Y271101D01*
X311057Y270991D01*
X311035Y270875D01*
X311031Y270757D01*
X311046Y270640D01*
X311079Y270527D01*
X311129Y270420D01*
X311196Y270322D01*
X311276Y270236D01*
X311370Y270164D01*
X311473Y270107D01*
X311584Y270067D01*
X311700Y270045D01*
X311818Y270041D01*
X311935Y270056D01*
X311964Y270064D01*
Y266000D01*
X308002D01*
Y267600D01*
X308231D01*
X308691Y267643D01*
X309145Y267730D01*
X309588Y267859D01*
X310018Y268029D01*
X310122Y268085D01*
X310216Y268158D01*
X310297Y268245D01*
X310364Y268343D01*
X310414Y268450D01*
X310448Y268564D01*
X310462Y268682D01*
X310459Y268800D01*
X310436Y268917D01*
X310396Y269028D01*
X310339Y269132D01*
X310266Y269226D01*
X310180Y269307D01*
X310082Y269374D01*
X309975Y269425D01*
X309861Y269458D01*
X309743Y269473D01*
X309624Y269469D01*
X309508Y269447D01*
X309397Y269404D01*
X309101Y269283D01*
X308793Y269194D01*
X308479Y269134D01*
X308160Y269104D01*
X308002D01*
Y275896D01*
X308160D01*
X308479Y275866D01*
X308793Y275806D01*
X309101Y275717D01*
X309399Y275599D01*
X309509Y275557D01*
X309625Y275535D01*
X309743Y275531D01*
X309860Y275546D01*
X309973Y275579D01*
X310080Y275629D01*
X310178Y275696D01*
X310264Y275776D01*
X310336Y275870D01*
X310393Y275973D01*
X310433Y276084D01*
X310455Y276200D01*
X310459Y276318D01*
X310444Y276435D01*
X310411Y276549D01*
X310361Y276655D01*
X310294Y276753D01*
X310213Y276839D01*
X310120Y276911D01*
X310016Y276966D01*
X309588Y277141D01*
X309145Y277270D01*
X308691Y277357D01*
X308231Y277400D01*
X308002D01*
Y282500D01*
G37*
G36*
X304036D02*X308002D01*
Y277400D01*
X307769D01*
X307309Y277357D01*
X306855Y277270D01*
X306412Y277141D01*
X305982Y276971D01*
X305878Y276915D01*
X305784Y276842D01*
X305703Y276755D01*
X305636Y276657D01*
X305586Y276550D01*
X305552Y276436D01*
X305538Y276318D01*
X305541Y276200D01*
X305563Y276083D01*
X305604Y275972D01*
X305661Y275868D01*
X305734Y275774D01*
X305820Y275693D01*
X305918Y275626D01*
X306025Y275575D01*
X306139Y275542D01*
X306257Y275527D01*
X306376Y275531D01*
X306492Y275553D01*
X306603Y275596D01*
X306899Y275717D01*
X307207Y275806D01*
X307521Y275866D01*
X307840Y275896D01*
X308002D01*
Y269104D01*
X307840D01*
X307521Y269134D01*
X307207Y269194D01*
X306899Y269283D01*
X306601Y269401D01*
X306491Y269443D01*
X306375Y269465D01*
X306257Y269469D01*
X306140Y269454D01*
X306027Y269421D01*
X305920Y269371D01*
X305822Y269304D01*
X305736Y269224D01*
X305664Y269130D01*
X305607Y269027D01*
X305567Y268916D01*
X305545Y268800D01*
X305541Y268682D01*
X305556Y268565D01*
X305589Y268451D01*
X305639Y268345D01*
X305706Y268247D01*
X305787Y268161D01*
X305880Y268089D01*
X305984Y268034D01*
X306412Y267859D01*
X306855Y267730D01*
X307309Y267643D01*
X307769Y267600D01*
X308002D01*
Y266000D01*
X304036D01*
Y270060D01*
X304064Y270052D01*
X304182Y270038D01*
X304300Y270041D01*
X304417Y270064D01*
X304528Y270104D01*
X304632Y270161D01*
X304726Y270234D01*
X304807Y270320D01*
X304874Y270418D01*
X304925Y270525D01*
X304958Y270639D01*
X304973Y270757D01*
X304969Y270876D01*
X304947Y270992D01*
X304904Y271103D01*
X304783Y271399D01*
X304694Y271707D01*
X304634Y272021D01*
X304604Y272340D01*
Y272660D01*
X304634Y272979D01*
X304694Y273293D01*
X304783Y273601D01*
X304901Y273899D01*
X304943Y274009D01*
X304965Y274125D01*
X304969Y274243D01*
X304954Y274360D01*
X304921Y274473D01*
X304871Y274580D01*
X304804Y274678D01*
X304724Y274764D01*
X304630Y274836D01*
X304527Y274893D01*
X304416Y274933D01*
X304300Y274955D01*
X304182Y274959D01*
X304065Y274944D01*
X304036Y274936D01*
Y282500D01*
G37*
G36*
X298000D02*X304036D01*
Y274936D01*
X303951Y274911D01*
X303845Y274861D01*
X303747Y274794D01*
X303661Y274713D01*
X303589Y274620D01*
X303534Y274516D01*
X303359Y274088D01*
X303230Y273645D01*
X303143Y273191D01*
X303100Y272731D01*
Y272269D01*
X303143Y271809D01*
X303230Y271355D01*
X303359Y270912D01*
X303529Y270482D01*
X303585Y270378D01*
X303658Y270284D01*
X303745Y270203D01*
X303843Y270136D01*
X303950Y270086D01*
X304036Y270060D01*
Y266000D01*
X298000D01*
Y282500D01*
G37*
G36*
X324500Y285000D02*X311964D01*
Y290064D01*
X312049Y290089D01*
X312155Y290139D01*
X312253Y290206D01*
X312339Y290287D01*
X312411Y290380D01*
X312466Y290484D01*
X312641Y290912D01*
X312770Y291355D01*
X312857Y291809D01*
X312900Y292269D01*
Y292731D01*
X312857Y293191D01*
X312770Y293645D01*
X312641Y294088D01*
X312471Y294518D01*
X312415Y294622D01*
X312342Y294716D01*
X312255Y294797D01*
X312157Y294864D01*
X312050Y294914D01*
X311964Y294940D01*
Y315500D01*
X324500D01*
Y285000D01*
G37*
G36*
X311964D02*X308002D01*
Y287600D01*
X308231D01*
X308691Y287643D01*
X309145Y287730D01*
X309588Y287859D01*
X310018Y288029D01*
X310122Y288085D01*
X310216Y288158D01*
X310297Y288245D01*
X310364Y288343D01*
X310414Y288450D01*
X310448Y288564D01*
X310462Y288682D01*
X310459Y288800D01*
X310436Y288917D01*
X310396Y289028D01*
X310339Y289132D01*
X310266Y289226D01*
X310180Y289307D01*
X310082Y289374D01*
X309975Y289425D01*
X309861Y289458D01*
X309743Y289473D01*
X309624Y289469D01*
X309508Y289447D01*
X309397Y289404D01*
X309101Y289283D01*
X308793Y289194D01*
X308479Y289134D01*
X308160Y289104D01*
X308002D01*
Y295896D01*
X308160D01*
X308479Y295866D01*
X308793Y295806D01*
X309101Y295717D01*
X309399Y295599D01*
X309509Y295557D01*
X309625Y295535D01*
X309743Y295531D01*
X309860Y295546D01*
X309973Y295579D01*
X310080Y295629D01*
X310178Y295696D01*
X310264Y295776D01*
X310336Y295870D01*
X310393Y295973D01*
X310433Y296084D01*
X310455Y296200D01*
X310459Y296318D01*
X310444Y296435D01*
X310411Y296549D01*
X310361Y296655D01*
X310294Y296753D01*
X310213Y296839D01*
X310120Y296911D01*
X310016Y296966D01*
X309588Y297141D01*
X309145Y297270D01*
X308691Y297357D01*
X308231Y297400D01*
X308002D01*
Y313502D01*
X310000Y315500D01*
X311964D01*
Y294940D01*
X311936Y294948D01*
X311818Y294962D01*
X311700Y294959D01*
X311583Y294937D01*
X311472Y294896D01*
X311368Y294839D01*
X311274Y294766D01*
X311193Y294680D01*
X311126Y294582D01*
X311075Y294475D01*
X311042Y294361D01*
X311027Y294243D01*
X311031Y294124D01*
X311053Y294008D01*
X311096Y293897D01*
X311217Y293601D01*
X311306Y293293D01*
X311366Y292979D01*
X311396Y292660D01*
Y292340D01*
X311366Y292021D01*
X311306Y291707D01*
X311217Y291399D01*
X311099Y291101D01*
X311057Y290991D01*
X311035Y290875D01*
X311031Y290757D01*
X311046Y290640D01*
X311079Y290527D01*
X311129Y290420D01*
X311196Y290322D01*
X311276Y290236D01*
X311370Y290164D01*
X311473Y290107D01*
X311584Y290067D01*
X311700Y290045D01*
X311818Y290041D01*
X311935Y290056D01*
X311964Y290064D01*
Y285000D01*
G37*
G36*
X308002D02*X304036D01*
Y290060D01*
X304064Y290052D01*
X304182Y290038D01*
X304300Y290041D01*
X304417Y290064D01*
X304528Y290104D01*
X304632Y290161D01*
X304726Y290234D01*
X304807Y290320D01*
X304874Y290418D01*
X304925Y290525D01*
X304958Y290639D01*
X304973Y290757D01*
X304969Y290876D01*
X304947Y290992D01*
X304904Y291103D01*
X304783Y291399D01*
X304694Y291707D01*
X304634Y292021D01*
X304604Y292340D01*
Y292660D01*
X304634Y292979D01*
X304694Y293293D01*
X304783Y293601D01*
X304901Y293899D01*
X304943Y294009D01*
X304965Y294125D01*
X304969Y294243D01*
X304954Y294360D01*
X304921Y294473D01*
X304871Y294580D01*
X304804Y294678D01*
X304724Y294764D01*
X304630Y294836D01*
X304527Y294893D01*
X304416Y294933D01*
X304300Y294955D01*
X304182Y294959D01*
X304065Y294944D01*
X304036Y294936D01*
Y309536D01*
X308002Y313502D01*
Y297400D01*
X307769D01*
X307309Y297357D01*
X306855Y297270D01*
X306412Y297141D01*
X305982Y296971D01*
X305878Y296915D01*
X305784Y296842D01*
X305703Y296755D01*
X305636Y296657D01*
X305586Y296550D01*
X305552Y296436D01*
X305538Y296318D01*
X305541Y296200D01*
X305563Y296083D01*
X305604Y295972D01*
X305661Y295868D01*
X305734Y295774D01*
X305820Y295693D01*
X305918Y295626D01*
X306025Y295575D01*
X306139Y295542D01*
X306257Y295527D01*
X306376Y295531D01*
X306492Y295553D01*
X306603Y295596D01*
X306899Y295717D01*
X307207Y295806D01*
X307521Y295866D01*
X307840Y295896D01*
X308002D01*
Y289104D01*
X307840D01*
X307521Y289134D01*
X307207Y289194D01*
X306899Y289283D01*
X306601Y289401D01*
X306491Y289443D01*
X306375Y289465D01*
X306257Y289469D01*
X306140Y289454D01*
X306027Y289421D01*
X305920Y289371D01*
X305822Y289304D01*
X305736Y289224D01*
X305664Y289130D01*
X305607Y289027D01*
X305567Y288916D01*
X305545Y288800D01*
X305541Y288682D01*
X305556Y288565D01*
X305589Y288451D01*
X305639Y288345D01*
X305706Y288247D01*
X305787Y288161D01*
X305880Y288089D01*
X305984Y288034D01*
X306412Y287859D01*
X306855Y287730D01*
X307309Y287643D01*
X307769Y287600D01*
X308002D01*
Y285000D01*
G37*
G36*
X304036D02*X301000D01*
Y306500D01*
X304036Y309536D01*
Y294936D01*
X303951Y294911D01*
X303845Y294861D01*
X303747Y294794D01*
X303661Y294713D01*
X303589Y294620D01*
X303534Y294516D01*
X303359Y294088D01*
X303230Y293645D01*
X303143Y293191D01*
X303100Y292731D01*
Y292269D01*
X303143Y291809D01*
X303230Y291355D01*
X303359Y290912D01*
X303529Y290482D01*
X303585Y290378D01*
X303658Y290284D01*
X303745Y290203D01*
X303843Y290136D01*
X303950Y290086D01*
X304036Y290060D01*
Y285000D01*
G37*
G36*
X341106Y366000D02*X353500D01*
Y336500D01*
X341106D01*
Y341776D01*
X341225Y341811D01*
X341367Y341878D01*
X341497Y341967D01*
X341612Y342075D01*
X341708Y342200D01*
X341780Y342339D01*
X342010Y342904D01*
X342179Y343489D01*
X342293Y344088D01*
X342350Y344695D01*
Y345305D01*
X342293Y345912D01*
X342179Y346511D01*
X342010Y347097D01*
X341787Y347664D01*
X341712Y347803D01*
X341615Y347928D01*
X341500Y348037D01*
X341370Y348126D01*
X341227Y348194D01*
X341106Y348229D01*
Y366000D01*
G37*
G36*
X335852D02*X341106D01*
Y348229D01*
X341075Y348238D01*
X340918Y348258D01*
X340760Y348254D01*
X340604Y348224D01*
X340455Y348171D01*
X340317Y348095D01*
X340191Y347999D01*
X340083Y347884D01*
X339994Y347753D01*
X339926Y347610D01*
X339881Y347458D01*
X339861Y347301D01*
X339866Y347143D01*
X339895Y346988D01*
X339951Y346840D01*
X340110Y346450D01*
X340227Y346045D01*
X340306Y345631D01*
X340345Y345211D01*
Y344789D01*
X340306Y344369D01*
X340227Y343955D01*
X340110Y343550D01*
X339956Y343158D01*
X339900Y343011D01*
X339871Y342856D01*
X339866Y342699D01*
X339886Y342543D01*
X339931Y342392D01*
X339998Y342249D01*
X340087Y342119D01*
X340195Y342005D01*
X340319Y341909D01*
X340457Y341833D01*
X340606Y341780D01*
X340760Y341751D01*
X340918Y341747D01*
X341074Y341767D01*
X341106Y341776D01*
Y336500D01*
X335852D01*
Y338500D01*
X336155D01*
X336762Y338557D01*
X337361Y338671D01*
X337946Y338840D01*
X338514Y339063D01*
X338653Y339138D01*
X338778Y339235D01*
X338887Y339350D01*
X338976Y339480D01*
X339044Y339623D01*
X339088Y339775D01*
X339108Y339932D01*
X339104Y340090D01*
X339074Y340246D01*
X339021Y340395D01*
X338945Y340533D01*
X338849Y340659D01*
X338734Y340767D01*
X338603Y340856D01*
X338460Y340924D01*
X338308Y340969D01*
X338151Y340989D01*
X337993Y340984D01*
X337838Y340955D01*
X337690Y340899D01*
X337300Y340740D01*
X336895Y340623D01*
X336481Y340544D01*
X336061Y340505D01*
X335852D01*
Y349495D01*
X336061D01*
X336481Y349456D01*
X336895Y349377D01*
X337300Y349260D01*
X337692Y349106D01*
X337839Y349050D01*
X337994Y349021D01*
X338151Y349016D01*
X338307Y349036D01*
X338458Y349081D01*
X338601Y349148D01*
X338731Y349237D01*
X338845Y349345D01*
X338941Y349469D01*
X339017Y349607D01*
X339070Y349756D01*
X339099Y349910D01*
X339103Y350068D01*
X339083Y350224D01*
X339039Y350375D01*
X338972Y350517D01*
X338883Y350647D01*
X338775Y350762D01*
X338650Y350858D01*
X338511Y350930D01*
X337946Y351160D01*
X337361Y351329D01*
X336762Y351443D01*
X336155Y351500D01*
X335852D01*
Y366000D01*
G37*
G36*
X330594D02*X335852D01*
Y351500D01*
X335545D01*
X334938Y351443D01*
X334339Y351329D01*
X333753Y351160D01*
X333186Y350937D01*
X333047Y350862D01*
X332922Y350765D01*
X332813Y350650D01*
X332724Y350520D01*
X332656Y350377D01*
X332612Y350225D01*
X332592Y350068D01*
X332596Y349910D01*
X332626Y349754D01*
X332679Y349605D01*
X332755Y349467D01*
X332851Y349341D01*
X332966Y349233D01*
X333097Y349144D01*
X333240Y349076D01*
X333392Y349031D01*
X333549Y349011D01*
X333707Y349016D01*
X333862Y349045D01*
X334010Y349101D01*
X334400Y349260D01*
X334805Y349377D01*
X335219Y349456D01*
X335639Y349495D01*
X335852D01*
Y340505D01*
X335639D01*
X335219Y340544D01*
X334805Y340623D01*
X334400Y340740D01*
X334008Y340894D01*
X333861Y340950D01*
X333706Y340979D01*
X333549Y340984D01*
X333393Y340964D01*
X333242Y340919D01*
X333099Y340852D01*
X332969Y340763D01*
X332855Y340655D01*
X332759Y340531D01*
X332683Y340393D01*
X332630Y340244D01*
X332601Y340090D01*
X332597Y339932D01*
X332617Y339776D01*
X332661Y339625D01*
X332728Y339483D01*
X332817Y339353D01*
X332925Y339238D01*
X333050Y339142D01*
X333189Y339070D01*
X333753Y338840D01*
X334339Y338671D01*
X334938Y338557D01*
X335545Y338500D01*
X335852D01*
Y336500D01*
X330594D01*
Y341771D01*
X330625Y341762D01*
X330782Y341742D01*
X330940Y341746D01*
X331096Y341776D01*
X331245Y341829D01*
X331383Y341905D01*
X331509Y342001D01*
X331617Y342116D01*
X331706Y342247D01*
X331774Y342390D01*
X331819Y342542D01*
X331839Y342699D01*
X331834Y342857D01*
X331805Y343012D01*
X331749Y343160D01*
X331590Y343550D01*
X331473Y343955D01*
X331394Y344369D01*
X331355Y344789D01*
Y345211D01*
X331394Y345631D01*
X331473Y346045D01*
X331590Y346450D01*
X331744Y346842D01*
X331800Y346989D01*
X331829Y347144D01*
X331834Y347301D01*
X331814Y347457D01*
X331769Y347608D01*
X331702Y347751D01*
X331613Y347881D01*
X331505Y347995D01*
X331381Y348091D01*
X331243Y348167D01*
X331094Y348220D01*
X330940Y348249D01*
X330782Y348253D01*
X330626Y348233D01*
X330594Y348224D01*
Y366000D01*
G37*
G36*
X327000D02*X330594D01*
Y348224D01*
X330475Y348189D01*
X330333Y348122D01*
X330203Y348033D01*
X330088Y347925D01*
X329992Y347800D01*
X329920Y347661D01*
X329690Y347097D01*
X329521Y346511D01*
X329407Y345912D01*
X329350Y345305D01*
Y344695D01*
X329407Y344088D01*
X329521Y343489D01*
X329690Y342904D01*
X329913Y342336D01*
X329988Y342197D01*
X330085Y342072D01*
X330200Y341963D01*
X330330Y341874D01*
X330473Y341806D01*
X330594Y341771D01*
Y336500D01*
X327000D01*
Y366000D01*
G37*
G36*
X240979Y383000D02*X291500D01*
Y333000D01*
X240979D01*
Y336360D01*
X241000Y336358D01*
X243134Y336526D01*
X245216Y337026D01*
X247193Y337845D01*
X249019Y338963D01*
X250646Y340354D01*
X252037Y341981D01*
X253155Y343807D01*
X253974Y345784D01*
X254474Y347866D01*
X254600Y350000D01*
X254474Y352134D01*
X253974Y354216D01*
X253155Y356193D01*
X252037Y358019D01*
X250646Y359646D01*
X249019Y361037D01*
X247193Y362155D01*
X245216Y362974D01*
X243134Y363474D01*
X241000Y363642D01*
X240979Y363640D01*
Y383000D01*
G37*
G36*
X190500D02*X240979D01*
Y363640D01*
X238866Y363474D01*
X236784Y362974D01*
X234807Y362155D01*
X232981Y361037D01*
X231354Y359646D01*
X229963Y358019D01*
X228845Y356193D01*
X228026Y354216D01*
X227526Y352134D01*
X227358Y350000D01*
X227526Y347866D01*
X228026Y345784D01*
X228845Y343807D01*
X229963Y341981D01*
X231354Y340354D01*
X232981Y338963D01*
X234807Y337845D01*
X236784Y337026D01*
X238866Y336526D01*
X240979Y336360D01*
Y333000D01*
X190500D01*
Y383000D01*
G37*
G36*
X261761Y331000D02*X298000D01*
Y304000D01*
X261761D01*
Y307183D01*
X261831Y307195D01*
X261980Y307246D01*
X262119Y307319D01*
X262245Y307413D01*
X262355Y307525D01*
X262446Y307654D01*
X262513Y307796D01*
X262704Y308328D01*
X262837Y308877D01*
X262917Y309436D01*
X262944Y310000D01*
X262917Y310564D01*
X262837Y311123D01*
X262704Y311672D01*
X262519Y312206D01*
X262450Y312348D01*
X262358Y312477D01*
X262248Y312591D01*
X262121Y312685D01*
X261981Y312759D01*
X261832Y312809D01*
X261761Y312821D01*
Y331000D01*
G37*
G36*
X256998D02*X261761D01*
Y312821D01*
X261676Y312836D01*
X261518Y312838D01*
X261361Y312815D01*
X261210Y312768D01*
X261069Y312698D01*
X260939Y312607D01*
X260826Y312496D01*
X260732Y312370D01*
X260658Y312230D01*
X260608Y312080D01*
X260581Y311924D01*
X260579Y311766D01*
X260602Y311610D01*
X260652Y311460D01*
X260778Y311108D01*
X260866Y310744D01*
X260919Y310374D01*
X260937Y310000D01*
X260919Y309626D01*
X260866Y309256D01*
X260778Y308892D01*
X260656Y308539D01*
X260606Y308389D01*
X260583Y308234D01*
X260585Y308076D01*
X260612Y307921D01*
X260662Y307772D01*
X260736Y307633D01*
X260830Y307507D01*
X260942Y307397D01*
X261071Y307306D01*
X261212Y307236D01*
X261362Y307189D01*
X261518Y307167D01*
X261675Y307168D01*
X261761Y307183D01*
Y304000D01*
X261391D01*
X261211Y304211D01*
X260500Y304818D01*
X259821Y305235D01*
X259836Y305324D01*
X259838Y305482D01*
X259815Y305639D01*
X259768Y305790D01*
X259698Y305931D01*
X259607Y306061D01*
X259496Y306174D01*
X259370Y306268D01*
X259230Y306342D01*
X259080Y306392D01*
X258924Y306419D01*
X258766Y306421D01*
X258610Y306398D01*
X258460Y306348D01*
X258108Y306222D01*
X257744Y306134D01*
X257374Y306081D01*
X257000Y306063D01*
X256998Y306063D01*
Y313937D01*
X257000Y313937D01*
X257374Y313919D01*
X257744Y313866D01*
X258108Y313778D01*
X258461Y313656D01*
X258611Y313606D01*
X258766Y313583D01*
X258924Y313585D01*
X259079Y313612D01*
X259228Y313662D01*
X259367Y313736D01*
X259493Y313830D01*
X259603Y313942D01*
X259694Y314071D01*
X259764Y314212D01*
X259811Y314362D01*
X259833Y314518D01*
X259832Y314675D01*
X259805Y314831D01*
X259754Y314980D01*
X259681Y315119D01*
X259587Y315245D01*
X259475Y315355D01*
X259346Y315446D01*
X259204Y315513D01*
X258672Y315704D01*
X258123Y315837D01*
X257564Y315917D01*
X257000Y315944D01*
X256998Y315944D01*
Y331000D01*
G37*
G36*
X252239D02*X256998D01*
Y315944D01*
X256436Y315917D01*
X255877Y315837D01*
X255328Y315704D01*
X254794Y315519D01*
X254652Y315450D01*
X254523Y315358D01*
X254409Y315248D01*
X254315Y315121D01*
X254241Y314981D01*
X254191Y314832D01*
X254164Y314676D01*
X254162Y314518D01*
X254185Y314361D01*
X254232Y314210D01*
X254302Y314069D01*
X254393Y313939D01*
X254504Y313826D01*
X254630Y313732D01*
X254770Y313658D01*
X254920Y313608D01*
X255076Y313581D01*
X255234Y313579D01*
X255390Y313602D01*
X255540Y313652D01*
X255892Y313778D01*
X256256Y313866D01*
X256626Y313919D01*
X256998Y313937D01*
Y306063D01*
X256626Y306081D01*
X256256Y306134D01*
X255892Y306222D01*
X255539Y306344D01*
X255389Y306394D01*
X255234Y306417D01*
X255076Y306415D01*
X254921Y306388D01*
X254772Y306338D01*
X254633Y306264D01*
X254507Y306170D01*
X254397Y306058D01*
X254306Y305929D01*
X254236Y305788D01*
X254189Y305638D01*
X254167Y305482D01*
X254168Y305325D01*
X254183Y305237D01*
X253500Y304818D01*
X252789Y304211D01*
X252609Y304000D01*
X252239D01*
Y307179D01*
X252324Y307164D01*
X252482Y307162D01*
X252639Y307185D01*
X252790Y307232D01*
X252931Y307302D01*
X253061Y307393D01*
X253174Y307504D01*
X253268Y307630D01*
X253342Y307770D01*
X253392Y307920D01*
X253419Y308076D01*
X253421Y308234D01*
X253398Y308390D01*
X253348Y308540D01*
X253222Y308892D01*
X253134Y309256D01*
X253081Y309626D01*
X253063Y310000D01*
X253081Y310374D01*
X253134Y310744D01*
X253222Y311108D01*
X253344Y311461D01*
X253394Y311611D01*
X253417Y311766D01*
X253415Y311924D01*
X253388Y312079D01*
X253338Y312228D01*
X253264Y312367D01*
X253170Y312493D01*
X253058Y312603D01*
X252929Y312694D01*
X252788Y312764D01*
X252638Y312811D01*
X252482Y312833D01*
X252325Y312832D01*
X252239Y312817D01*
Y331000D01*
G37*
G36*
X246000D02*X252239D01*
Y312817D01*
X252169Y312805D01*
X252020Y312754D01*
X251881Y312681D01*
X251755Y312587D01*
X251645Y312475D01*
X251554Y312346D01*
X251487Y312204D01*
X251296Y311672D01*
X251163Y311123D01*
X251083Y310564D01*
X251056Y310000D01*
X251083Y309436D01*
X251163Y308877D01*
X251296Y308328D01*
X251481Y307794D01*
X251550Y307652D01*
X251642Y307523D01*
X251752Y307409D01*
X251879Y307315D01*
X252019Y307241D01*
X252168Y307191D01*
X252239Y307179D01*
Y304000D01*
X246000D01*
Y331000D01*
G37*
G36*
X237500Y334500D02*X244500D01*
Y264000D01*
X237500D01*
Y334500D01*
G37*
G36*
X337992Y262000D02*X381000D01*
Y243000D01*
X337992D01*
Y247585D01*
X338000Y247585D01*
X338769Y247645D01*
X339519Y247825D01*
X340231Y248121D01*
X340889Y248524D01*
X341476Y249024D01*
X341976Y249611D01*
X342379Y250269D01*
X342675Y250981D01*
X342855Y251731D01*
X342900Y252500D01*
X342855Y253269D01*
X342675Y254019D01*
X342379Y254731D01*
X341976Y255389D01*
X341476Y255976D01*
X340889Y256476D01*
X340231Y256879D01*
X339519Y257175D01*
X338769Y257355D01*
X338000Y257415D01*
X337992Y257415D01*
Y262000D01*
G37*
G36*
X311964D02*X337992D01*
Y257415D01*
X337231Y257355D01*
X336481Y257175D01*
X335769Y256879D01*
X335111Y256476D01*
X334524Y255976D01*
X334024Y255389D01*
X333621Y254731D01*
X333325Y254019D01*
X333145Y253269D01*
X333085Y252500D01*
X333145Y251731D01*
X333325Y250981D01*
X333621Y250269D01*
X334024Y249611D01*
X334524Y249024D01*
X335111Y248524D01*
X335769Y248121D01*
X336481Y247825D01*
X337231Y247645D01*
X337992Y247585D01*
Y243000D01*
X311964D01*
Y250064D01*
X312049Y250089D01*
X312155Y250139D01*
X312253Y250206D01*
X312339Y250287D01*
X312411Y250380D01*
X312466Y250484D01*
X312641Y250912D01*
X312770Y251355D01*
X312857Y251809D01*
X312900Y252269D01*
Y252731D01*
X312857Y253191D01*
X312770Y253645D01*
X312641Y254088D01*
X312471Y254518D01*
X312415Y254622D01*
X312342Y254716D01*
X312255Y254797D01*
X312157Y254864D01*
X312050Y254914D01*
X311964Y254940D01*
Y262000D01*
G37*
G36*
X308002D02*X311964D01*
Y254940D01*
X311936Y254948D01*
X311818Y254962D01*
X311700Y254959D01*
X311583Y254937D01*
X311472Y254896D01*
X311368Y254839D01*
X311274Y254766D01*
X311193Y254680D01*
X311126Y254582D01*
X311075Y254475D01*
X311042Y254361D01*
X311027Y254243D01*
X311031Y254124D01*
X311053Y254008D01*
X311096Y253897D01*
X311217Y253601D01*
X311306Y253293D01*
X311366Y252979D01*
X311396Y252660D01*
Y252340D01*
X311366Y252021D01*
X311306Y251707D01*
X311217Y251399D01*
X311099Y251101D01*
X311057Y250991D01*
X311035Y250875D01*
X311031Y250757D01*
X311046Y250640D01*
X311079Y250527D01*
X311129Y250420D01*
X311196Y250322D01*
X311276Y250236D01*
X311370Y250164D01*
X311473Y250107D01*
X311584Y250067D01*
X311700Y250045D01*
X311818Y250041D01*
X311935Y250056D01*
X311964Y250064D01*
Y243000D01*
X308002D01*
Y247600D01*
X308231D01*
X308691Y247643D01*
X309145Y247730D01*
X309588Y247859D01*
X310018Y248029D01*
X310122Y248085D01*
X310216Y248158D01*
X310297Y248245D01*
X310364Y248343D01*
X310414Y248450D01*
X310448Y248564D01*
X310462Y248682D01*
X310459Y248800D01*
X310436Y248917D01*
X310396Y249028D01*
X310339Y249132D01*
X310266Y249226D01*
X310180Y249307D01*
X310082Y249374D01*
X309975Y249425D01*
X309861Y249458D01*
X309743Y249473D01*
X309624Y249469D01*
X309508Y249447D01*
X309397Y249404D01*
X309101Y249283D01*
X308793Y249194D01*
X308479Y249134D01*
X308160Y249104D01*
X308002D01*
Y255896D01*
X308160D01*
X308479Y255866D01*
X308793Y255806D01*
X309101Y255717D01*
X309399Y255599D01*
X309509Y255557D01*
X309625Y255535D01*
X309743Y255531D01*
X309860Y255546D01*
X309973Y255579D01*
X310080Y255629D01*
X310178Y255696D01*
X310264Y255776D01*
X310336Y255870D01*
X310393Y255973D01*
X310433Y256084D01*
X310455Y256200D01*
X310459Y256318D01*
X310444Y256435D01*
X310411Y256549D01*
X310361Y256655D01*
X310294Y256753D01*
X310213Y256839D01*
X310120Y256911D01*
X310016Y256966D01*
X309588Y257141D01*
X309145Y257270D01*
X308691Y257357D01*
X308231Y257400D01*
X308002D01*
Y262000D01*
G37*
G36*
X304036D02*X308002D01*
Y257400D01*
X307769D01*
X307309Y257357D01*
X306855Y257270D01*
X306412Y257141D01*
X305982Y256971D01*
X305878Y256915D01*
X305784Y256842D01*
X305703Y256755D01*
X305636Y256657D01*
X305586Y256550D01*
X305552Y256436D01*
X305538Y256318D01*
X305541Y256200D01*
X305563Y256083D01*
X305604Y255972D01*
X305661Y255868D01*
X305734Y255774D01*
X305820Y255693D01*
X305918Y255626D01*
X306025Y255575D01*
X306139Y255542D01*
X306257Y255527D01*
X306376Y255531D01*
X306492Y255553D01*
X306603Y255596D01*
X306899Y255717D01*
X307207Y255806D01*
X307521Y255866D01*
X307840Y255896D01*
X308002D01*
Y249104D01*
X307840D01*
X307521Y249134D01*
X307207Y249194D01*
X306899Y249283D01*
X306601Y249401D01*
X306491Y249443D01*
X306375Y249465D01*
X306257Y249469D01*
X306140Y249454D01*
X306027Y249421D01*
X305920Y249371D01*
X305822Y249304D01*
X305736Y249224D01*
X305664Y249130D01*
X305607Y249027D01*
X305567Y248916D01*
X305545Y248800D01*
X305541Y248682D01*
X305556Y248565D01*
X305589Y248451D01*
X305639Y248345D01*
X305706Y248247D01*
X305787Y248161D01*
X305880Y248089D01*
X305984Y248034D01*
X306412Y247859D01*
X306855Y247730D01*
X307309Y247643D01*
X307769Y247600D01*
X308002D01*
Y243000D01*
X304036D01*
Y250060D01*
X304064Y250052D01*
X304182Y250038D01*
X304300Y250041D01*
X304417Y250064D01*
X304528Y250104D01*
X304632Y250161D01*
X304726Y250234D01*
X304807Y250320D01*
X304874Y250418D01*
X304925Y250525D01*
X304958Y250639D01*
X304973Y250757D01*
X304969Y250876D01*
X304947Y250992D01*
X304904Y251103D01*
X304783Y251399D01*
X304694Y251707D01*
X304634Y252021D01*
X304604Y252340D01*
Y252660D01*
X304634Y252979D01*
X304694Y253293D01*
X304783Y253601D01*
X304901Y253899D01*
X304943Y254009D01*
X304965Y254125D01*
X304969Y254243D01*
X304954Y254360D01*
X304921Y254473D01*
X304871Y254580D01*
X304804Y254678D01*
X304724Y254764D01*
X304630Y254836D01*
X304527Y254893D01*
X304416Y254933D01*
X304300Y254955D01*
X304182Y254959D01*
X304065Y254944D01*
X304036Y254936D01*
Y262000D01*
G37*
G36*
X297500D02*X304036D01*
Y254936D01*
X303951Y254911D01*
X303845Y254861D01*
X303747Y254794D01*
X303661Y254713D01*
X303589Y254620D01*
X303534Y254516D01*
X303359Y254088D01*
X303230Y253645D01*
X303143Y253191D01*
X303100Y252731D01*
Y252269D01*
X303143Y251809D01*
X303230Y251355D01*
X303359Y250912D01*
X303529Y250482D01*
X303585Y250378D01*
X303658Y250284D01*
X303745Y250203D01*
X303843Y250136D01*
X303950Y250086D01*
X304036Y250060D01*
Y243000D01*
X297500D01*
Y262000D01*
G37*
G36*
X372993Y302000D02*X381000D01*
Y255000D01*
X372993D01*
Y266580D01*
X373183Y266659D01*
X373384Y266783D01*
X373564Y266936D01*
X373717Y267116D01*
X373841Y267317D01*
X373931Y267535D01*
X373986Y267765D01*
X374000Y268000D01*
X373986Y276235D01*
X373931Y276465D01*
X373841Y276683D01*
X373717Y276884D01*
X373564Y277064D01*
X373384Y277217D01*
X373183Y277341D01*
X372993Y277420D01*
Y289145D01*
X373078Y289181D01*
X373179Y289243D01*
X373269Y289319D01*
X373345Y289409D01*
X373405Y289511D01*
X373622Y289980D01*
X373789Y290469D01*
X373909Y290972D01*
X373982Y291484D01*
X374006Y292000D01*
X373982Y292516D01*
X373909Y293028D01*
X373789Y293531D01*
X373622Y294020D01*
X373410Y294492D01*
X373349Y294593D01*
X373272Y294684D01*
X373182Y294761D01*
X373080Y294823D01*
X372993Y294860D01*
Y302000D01*
G37*
G36*
Y255000D02*X368500D01*
Y266507D01*
X372735Y266514D01*
X372965Y266569D01*
X372993Y266580D01*
Y255000D01*
G37*
G36*
X368500Y302000D02*X372993D01*
Y294860D01*
X372971Y294869D01*
X372855Y294897D01*
X372737Y294906D01*
X372619Y294897D01*
X372503Y294870D01*
X372393Y294824D01*
X372292Y294762D01*
X372202Y294686D01*
X372124Y294595D01*
X372062Y294494D01*
X372016Y294385D01*
X371989Y294269D01*
X371979Y294151D01*
X371988Y294032D01*
X372016Y293917D01*
X372063Y293808D01*
X372221Y293468D01*
X372342Y293112D01*
X372430Y292747D01*
X372482Y292375D01*
X372500Y292000D01*
X372482Y291625D01*
X372430Y291253D01*
X372342Y290888D01*
X372221Y290532D01*
X372067Y290190D01*
X372020Y290082D01*
X371993Y289967D01*
X371983Y289849D01*
X371993Y289732D01*
X372021Y289617D01*
X372066Y289508D01*
X372128Y289407D01*
X372205Y289318D01*
X372295Y289241D01*
X372395Y289180D01*
X372504Y289135D01*
X372619Y289107D01*
X372737Y289098D01*
X372855Y289108D01*
X372969Y289135D01*
X372993Y289145D01*
Y277420D01*
X372965Y277431D01*
X372735Y277486D01*
X372500Y277500D01*
X368500Y277493D01*
Y286494D01*
X369016Y286518D01*
X369528Y286591D01*
X370031Y286711D01*
X370520Y286878D01*
X370992Y287090D01*
X371093Y287151D01*
X371184Y287228D01*
X371261Y287318D01*
X371323Y287420D01*
X371369Y287529D01*
X371397Y287645D01*
X371406Y287763D01*
X371397Y287881D01*
X371370Y287997D01*
X371324Y288107D01*
X371262Y288208D01*
X371186Y288298D01*
X371095Y288376D01*
X370994Y288438D01*
X370885Y288484D01*
X370769Y288511D01*
X370651Y288521D01*
X370532Y288512D01*
X370417Y288484D01*
X370308Y288437D01*
X369968Y288279D01*
X369612Y288158D01*
X369247Y288070D01*
X368875Y288018D01*
X368500Y288000D01*
Y296000D01*
X368875Y295982D01*
X369247Y295930D01*
X369612Y295842D01*
X369968Y295721D01*
X370310Y295567D01*
X370418Y295520D01*
X370533Y295493D01*
X370651Y295483D01*
X370768Y295493D01*
X370883Y295521D01*
X370992Y295566D01*
X371093Y295628D01*
X371182Y295705D01*
X371259Y295795D01*
X371320Y295895D01*
X371365Y296004D01*
X371393Y296119D01*
X371402Y296237D01*
X371392Y296355D01*
X371365Y296469D01*
X371319Y296578D01*
X371257Y296679D01*
X371181Y296769D01*
X371091Y296845D01*
X370989Y296905D01*
X370520Y297122D01*
X370031Y297289D01*
X369528Y297409D01*
X369016Y297482D01*
X368500Y297506D01*
Y302000D01*
G37*
G36*
X364007Y266580D02*X364035Y266569D01*
X364265Y266514D01*
X364500Y266500D01*
X368500Y266507D01*
Y255000D01*
X364007D01*
Y266580D01*
G37*
G36*
Y302000D02*X368500D01*
Y297506D01*
X367984Y297482D01*
X367472Y297409D01*
X366969Y297289D01*
X366480Y297122D01*
X366008Y296910D01*
X365907Y296849D01*
X365816Y296772D01*
X365739Y296682D01*
X365677Y296580D01*
X365631Y296471D01*
X365603Y296355D01*
X365594Y296237D01*
X365603Y296119D01*
X365630Y296003D01*
X365676Y295893D01*
X365738Y295792D01*
X365814Y295702D01*
X365905Y295624D01*
X366006Y295562D01*
X366115Y295516D01*
X366231Y295489D01*
X366349Y295479D01*
X366468Y295488D01*
X366583Y295516D01*
X366692Y295563D01*
X367032Y295721D01*
X367388Y295842D01*
X367753Y295930D01*
X368125Y295982D01*
X368500Y296000D01*
Y288000D01*
X368125Y288018D01*
X367753Y288070D01*
X367388Y288158D01*
X367032Y288279D01*
X366690Y288433D01*
X366582Y288480D01*
X366467Y288507D01*
X366349Y288517D01*
X366232Y288507D01*
X366117Y288479D01*
X366008Y288434D01*
X365907Y288372D01*
X365818Y288295D01*
X365741Y288205D01*
X365680Y288105D01*
X365635Y287996D01*
X365607Y287881D01*
X365598Y287763D01*
X365608Y287645D01*
X365635Y287531D01*
X365681Y287422D01*
X365743Y287321D01*
X365819Y287231D01*
X365909Y287155D01*
X366011Y287095D01*
X366480Y286878D01*
X366969Y286711D01*
X367472Y286591D01*
X367984Y286518D01*
X368500Y286494D01*
Y277493D01*
X364265Y277486D01*
X364035Y277431D01*
X364007Y277420D01*
Y289140D01*
X364029Y289131D01*
X364145Y289103D01*
X364263Y289094D01*
X364381Y289103D01*
X364497Y289130D01*
X364607Y289176D01*
X364708Y289238D01*
X364798Y289314D01*
X364876Y289405D01*
X364938Y289506D01*
X364984Y289615D01*
X365011Y289731D01*
X365021Y289849D01*
X365012Y289968D01*
X364984Y290083D01*
X364937Y290192D01*
X364779Y290532D01*
X364658Y290888D01*
X364570Y291253D01*
X364518Y291625D01*
X364500Y292000D01*
X364518Y292375D01*
X364570Y292747D01*
X364658Y293112D01*
X364779Y293468D01*
X364933Y293810D01*
X364980Y293918D01*
X365007Y294033D01*
X365017Y294151D01*
X365007Y294268D01*
X364979Y294383D01*
X364934Y294492D01*
X364872Y294593D01*
X364795Y294682D01*
X364705Y294759D01*
X364605Y294820D01*
X364496Y294865D01*
X364381Y294893D01*
X364263Y294902D01*
X364145Y294892D01*
X364031Y294865D01*
X364007Y294855D01*
Y302000D01*
G37*
G36*
X355000D02*X364007D01*
Y294855D01*
X363922Y294819D01*
X363821Y294757D01*
X363731Y294681D01*
X363655Y294591D01*
X363595Y294489D01*
X363378Y294020D01*
X363211Y293531D01*
X363091Y293028D01*
X363018Y292516D01*
X362994Y292000D01*
X363018Y291484D01*
X363091Y290972D01*
X363211Y290469D01*
X363378Y289980D01*
X363590Y289508D01*
X363651Y289407D01*
X363728Y289316D01*
X363818Y289239D01*
X363920Y289177D01*
X364007Y289140D01*
Y277420D01*
X363817Y277341D01*
X363616Y277217D01*
X363436Y277064D01*
X363283Y276884D01*
X363159Y276683D01*
X363069Y276465D01*
X363014Y276235D01*
X363000Y276000D01*
X363014Y267765D01*
X363069Y267535D01*
X363159Y267317D01*
X363283Y267116D01*
X363436Y266936D01*
X363616Y266783D01*
X363817Y266659D01*
X364007Y266580D01*
Y255000D01*
X355000D01*
Y302000D01*
G37*
G36*
X321406Y366000D02*X324500D01*
Y322000D01*
X321406D01*
Y341776D01*
X321525Y341811D01*
X321667Y341878D01*
X321797Y341967D01*
X321912Y342075D01*
X322008Y342200D01*
X322080Y342339D01*
X322310Y342904D01*
X322479Y343489D01*
X322593Y344088D01*
X322650Y344695D01*
Y345305D01*
X322593Y345912D01*
X322479Y346511D01*
X322310Y347097D01*
X322087Y347664D01*
X322012Y347803D01*
X321915Y347928D01*
X321800Y348037D01*
X321670Y348126D01*
X321527Y348194D01*
X321406Y348229D01*
Y366000D01*
G37*
G36*
X316152D02*X321406D01*
Y348229D01*
X321375Y348238D01*
X321218Y348258D01*
X321060Y348254D01*
X320904Y348224D01*
X320755Y348171D01*
X320617Y348095D01*
X320491Y347999D01*
X320383Y347884D01*
X320294Y347753D01*
X320226Y347610D01*
X320181Y347458D01*
X320161Y347301D01*
X320166Y347143D01*
X320195Y346988D01*
X320251Y346840D01*
X320410Y346450D01*
X320527Y346045D01*
X320606Y345631D01*
X320645Y345211D01*
Y344789D01*
X320606Y344369D01*
X320527Y343955D01*
X320410Y343550D01*
X320256Y343158D01*
X320200Y343011D01*
X320171Y342856D01*
X320166Y342699D01*
X320186Y342543D01*
X320231Y342392D01*
X320298Y342249D01*
X320387Y342119D01*
X320495Y342005D01*
X320619Y341909D01*
X320757Y341833D01*
X320906Y341780D01*
X321060Y341751D01*
X321218Y341747D01*
X321374Y341767D01*
X321406Y341776D01*
Y322000D01*
X316152D01*
Y338500D01*
X316455D01*
X317062Y338557D01*
X317661Y338671D01*
X318246Y338840D01*
X318814Y339063D01*
X318953Y339138D01*
X319078Y339235D01*
X319187Y339350D01*
X319276Y339480D01*
X319344Y339623D01*
X319388Y339775D01*
X319408Y339932D01*
X319404Y340090D01*
X319374Y340246D01*
X319321Y340395D01*
X319245Y340533D01*
X319149Y340659D01*
X319034Y340767D01*
X318903Y340856D01*
X318760Y340924D01*
X318608Y340969D01*
X318451Y340989D01*
X318293Y340984D01*
X318138Y340955D01*
X317990Y340899D01*
X317600Y340740D01*
X317195Y340623D01*
X316781Y340544D01*
X316361Y340505D01*
X316152D01*
Y349495D01*
X316361D01*
X316781Y349456D01*
X317195Y349377D01*
X317600Y349260D01*
X317992Y349106D01*
X318139Y349050D01*
X318294Y349021D01*
X318451Y349016D01*
X318607Y349036D01*
X318758Y349081D01*
X318901Y349148D01*
X319031Y349237D01*
X319145Y349345D01*
X319241Y349469D01*
X319317Y349607D01*
X319370Y349756D01*
X319399Y349910D01*
X319403Y350068D01*
X319383Y350224D01*
X319339Y350375D01*
X319272Y350517D01*
X319183Y350647D01*
X319075Y350762D01*
X318950Y350858D01*
X318811Y350930D01*
X318246Y351160D01*
X317661Y351329D01*
X317062Y351443D01*
X316455Y351500D01*
X316152D01*
Y366000D01*
G37*
G36*
X310894D02*X316152D01*
Y351500D01*
X315845D01*
X315238Y351443D01*
X314639Y351329D01*
X314053Y351160D01*
X313486Y350937D01*
X313347Y350862D01*
X313222Y350765D01*
X313113Y350650D01*
X313024Y350520D01*
X312956Y350377D01*
X312912Y350225D01*
X312892Y350068D01*
X312896Y349910D01*
X312926Y349754D01*
X312979Y349605D01*
X313055Y349467D01*
X313151Y349341D01*
X313266Y349233D01*
X313397Y349144D01*
X313540Y349076D01*
X313692Y349031D01*
X313849Y349011D01*
X314007Y349016D01*
X314162Y349045D01*
X314310Y349101D01*
X314700Y349260D01*
X315105Y349377D01*
X315519Y349456D01*
X315939Y349495D01*
X316152D01*
Y340505D01*
X315939D01*
X315519Y340544D01*
X315105Y340623D01*
X314700Y340740D01*
X314308Y340894D01*
X314161Y340950D01*
X314006Y340979D01*
X313849Y340984D01*
X313693Y340964D01*
X313542Y340919D01*
X313399Y340852D01*
X313269Y340763D01*
X313155Y340655D01*
X313059Y340531D01*
X312983Y340393D01*
X312930Y340244D01*
X312901Y340090D01*
X312897Y339932D01*
X312917Y339776D01*
X312961Y339625D01*
X313028Y339483D01*
X313117Y339353D01*
X313225Y339238D01*
X313350Y339142D01*
X313489Y339070D01*
X314053Y338840D01*
X314639Y338671D01*
X315238Y338557D01*
X315845Y338500D01*
X316152D01*
Y322000D01*
X310894D01*
Y341771D01*
X310925Y341762D01*
X311082Y341742D01*
X311240Y341746D01*
X311396Y341776D01*
X311545Y341829D01*
X311683Y341905D01*
X311809Y342001D01*
X311917Y342116D01*
X312006Y342247D01*
X312074Y342390D01*
X312119Y342542D01*
X312139Y342699D01*
X312134Y342857D01*
X312105Y343012D01*
X312049Y343160D01*
X311890Y343550D01*
X311773Y343955D01*
X311694Y344369D01*
X311655Y344789D01*
Y345211D01*
X311694Y345631D01*
X311773Y346045D01*
X311890Y346450D01*
X312044Y346842D01*
X312100Y346989D01*
X312129Y347144D01*
X312134Y347301D01*
X312114Y347457D01*
X312069Y347608D01*
X312002Y347751D01*
X311913Y347881D01*
X311805Y347995D01*
X311681Y348091D01*
X311543Y348167D01*
X311394Y348220D01*
X311240Y348249D01*
X311082Y348253D01*
X310926Y348233D01*
X310894Y348224D01*
Y366000D01*
G37*
G36*
X293000D02*X310894D01*
Y348224D01*
X310775Y348189D01*
X310633Y348122D01*
X310503Y348033D01*
X310388Y347925D01*
X310292Y347800D01*
X310220Y347661D01*
X309990Y347097D01*
X309821Y346511D01*
X309707Y345912D01*
X309650Y345305D01*
Y344695D01*
X309707Y344088D01*
X309821Y343489D01*
X309990Y342904D01*
X310213Y342336D01*
X310288Y342197D01*
X310385Y342072D01*
X310500Y341963D01*
X310630Y341874D01*
X310773Y341806D01*
X310894Y341771D01*
Y322000D01*
X293000D01*
Y366000D01*
G37*
G36*
X291500Y325000D02*X311000D01*
Y322000D01*
X298000Y309000D01*
X291500D01*
Y325000D01*
G37*
G36*
X240979Y267000D02*X275000D01*
Y197500D01*
X240979D01*
Y236360D01*
X241000Y236358D01*
X243134Y236526D01*
X245216Y237026D01*
X247193Y237845D01*
X249019Y238963D01*
X250646Y240354D01*
X252037Y241981D01*
X253155Y243807D01*
X253974Y245784D01*
X254474Y247866D01*
X254600Y250000D01*
X254474Y252134D01*
X253974Y254216D01*
X253155Y256193D01*
X252037Y258019D01*
X250646Y259646D01*
X249019Y261037D01*
X247193Y262155D01*
X245216Y262974D01*
X243134Y263474D01*
X241000Y263642D01*
X240979Y263640D01*
Y267000D01*
G37*
G36*
X190500D02*X240979D01*
Y263640D01*
X238866Y263474D01*
X236784Y262974D01*
X234807Y262155D01*
X232981Y261037D01*
X231354Y259646D01*
X229963Y258019D01*
X228845Y256193D01*
X228026Y254216D01*
X227526Y252134D01*
X227358Y250000D01*
X227526Y247866D01*
X228026Y245784D01*
X228845Y243807D01*
X229963Y241981D01*
X231354Y240354D01*
X232981Y238963D01*
X234807Y237845D01*
X236784Y237026D01*
X238866Y236526D01*
X240979Y236360D01*
Y197500D01*
X190500D01*
Y267000D01*
G37*
G36*
X266000D02*X291500D01*
Y223000D01*
X266000D01*
Y267000D01*
G37*
G36*
X291500Y197500D02*X192500D01*
Y230000D01*
X291500D01*
Y197500D01*
G37*
G36*
X175500Y373000D02*X194000D01*
Y362500D01*
X175500D01*
Y373000D01*
G37*
G36*
X161000Y340500D02*X175000D01*
Y306000D01*
X161000D01*
Y340500D01*
G37*
G36*
X140500Y294500D02*X150000D01*
Y284500D01*
X149563D01*
X149581Y284874D01*
X149634Y285244D01*
X149722Y285608D01*
X149844Y285961D01*
X149894Y286111D01*
X149917Y286266D01*
X149915Y286424D01*
X149888Y286579D01*
X149838Y286728D01*
X149764Y286867D01*
X149670Y286993D01*
X149558Y287103D01*
X149429Y287194D01*
X149288Y287264D01*
X149138Y287311D01*
X148982Y287333D01*
X148825Y287332D01*
X148669Y287305D01*
X148520Y287254D01*
X148381Y287181D01*
X148255Y287087D01*
X148145Y286975D01*
X148054Y286846D01*
X147987Y286704D01*
X147796Y286172D01*
X147663Y285623D01*
X147583Y285064D01*
X147556Y284500D01*
Y284500D01*
X140500D01*
Y294500D01*
G37*
G36*
X153000Y322500D02*X183000D01*
Y304000D01*
X153000D01*
Y322500D01*
G37*
G36*
X144500D02*X154500D01*
Y317000D01*
X144500D01*
Y322500D01*
G37*
G36*
X2500Y349000D02*X18000D01*
Y317000D01*
X2500D01*
Y349000D01*
G37*
G36*
Y321500D02*X18000D01*
Y309000D01*
X2500D01*
Y321500D01*
G37*
G36*
X24510Y342990D02*X24511Y342412D01*
X24555Y342228D01*
X24627Y342054D01*
X24726Y341892D01*
X24849Y341749D01*
X24992Y341626D01*
X25154Y341527D01*
X25328Y341455D01*
X25512Y341411D01*
X25700Y341400D01*
X27299Y341405D01*
X27500Y341389D01*
X27716Y341406D01*
X29488Y341411D01*
X29672Y341455D01*
X29846Y341527D01*
X30008Y341626D01*
X30151Y341749D01*
X30274Y341892D01*
X30373Y342054D01*
X30445Y342228D01*
X30489Y342412D01*
X30500Y342600D01*
X30499Y343004D01*
X30718Y343361D01*
X30934Y343884D01*
X31067Y344435D01*
X31100Y345000D01*
Y352509D01*
X31591Y353000D01*
X55000D01*
Y351246D01*
X54847Y351152D01*
X54308Y350692D01*
X53848Y350153D01*
X53478Y349549D01*
X53207Y348895D01*
X53042Y348206D01*
X52986Y347500D01*
X53042Y346794D01*
X53207Y346105D01*
X53478Y345451D01*
X53848Y344847D01*
X54308Y344308D01*
X54847Y343848D01*
X55000Y343754D01*
Y341621D01*
X54767Y341388D01*
X54549Y341522D01*
X53895Y341793D01*
X53206Y341958D01*
X52500Y342014D01*
X51794Y341958D01*
X51105Y341793D01*
X50451Y341522D01*
X49847Y341152D01*
X49308Y340692D01*
X48848Y340153D01*
X48478Y339549D01*
X48207Y338895D01*
X48042Y338206D01*
X47986Y337500D01*
X48042Y336794D01*
X48207Y336105D01*
X48478Y335451D01*
X48848Y334847D01*
X49308Y334308D01*
X49847Y333848D01*
X50451Y333478D01*
X51105Y333207D01*
X51794Y333042D01*
X52500Y332986D01*
X53206Y333042D01*
X53895Y333207D01*
X54549Y333478D01*
X55000Y333754D01*
Y315500D01*
X50381D01*
X50371Y321594D01*
X50320Y321808D01*
X50235Y322012D01*
X50120Y322199D01*
X49977Y322367D01*
X49809Y322510D01*
X49622Y322625D01*
X49418Y322710D01*
X49204Y322761D01*
X48984Y322774D01*
X44984Y322761D01*
X44770Y322710D01*
X44566Y322625D01*
X44379Y322510D01*
X44211Y322367D01*
X44068Y322199D01*
X43953Y322012D01*
X43868Y321808D01*
X43817Y321594D01*
X43804Y321374D01*
X43812Y316554D01*
X42757Y315500D01*
X24000D01*
Y344158D01*
X24066Y343884D01*
X24282Y343361D01*
X24510Y342990D01*
G37*
G36*
X34500Y307500D02*X62500D01*
Y290000D01*
X34500D01*
Y307500D01*
G37*
G36*
X134000Y294500D02*X143500D01*
Y284500D01*
X134000D01*
Y294500D01*
G37*
G36*
X96500Y327500D02*X106500D01*
Y316500D01*
X96500D01*
Y327500D01*
G37*
G36*
X42000Y307500D02*X69000D01*
Y283500D01*
X42000D01*
Y307500D01*
G37*
G36*
X46000D02*X73000D01*
Y283500D01*
X46000D01*
Y307500D01*
G37*
G36*
X66000Y325000D02*X80000D01*
Y318000D01*
X66000D01*
Y325000D01*
G37*
G36*
X160000Y217500D02*X199500D01*
Y208500D01*
X160000D01*
Y217500D01*
G37*
G36*
X171000Y219000D02*X160000D01*
Y231500D01*
X171000D01*
Y219000D01*
G37*
G36*
X153000Y217500D02*X164500D01*
Y208500D01*
X153000D01*
Y217500D01*
G37*
G36*
X143000Y181000D02*Y198500D01*
X154500D01*
Y181000D01*
X143000D01*
G37*
G36*
Y188500D02*Y206000D01*
X154500D01*
Y188500D01*
X143000D01*
G37*
G36*
X156500Y199500D02*X161500D01*
Y183500D01*
X156500D01*
Y199500D01*
G37*
G36*
Y190500D02*X167000D01*
Y183500D01*
X156500D01*
Y190500D01*
G37*
G36*
X153000Y214000D02*Y244500D01*
X157500D01*
Y214000D01*
X153000D01*
G37*
G36*
Y244500D02*X162500D01*
Y239000D01*
X153000D01*
Y244500D01*
G37*
G36*
X171000Y224000D02*X160000D01*
Y236500D01*
X171000D01*
Y224000D01*
G37*
G36*
X164000Y250500D02*X169500D01*
Y230500D01*
X164000D01*
Y250500D01*
G37*
G36*
X157000Y247000D02*Y277500D01*
X169500D01*
Y247000D01*
X157000D01*
G37*
G36*
X154957Y249500D02*X140457D01*
Y255500D01*
X154957D01*
Y249500D01*
G37*
G36*
X134000Y291500D02*X143500D01*
Y181000D01*
X134000D01*
Y258941D01*
X134005Y259000D01*
X134000Y259059D01*
Y291500D01*
G37*
G36*
Y183000D02*X146500D01*
Y176500D01*
X134000D01*
Y183000D01*
G37*
G36*
X148739Y294500D02*X155000D01*
Y290245D01*
X154623Y290337D01*
X154064Y290417D01*
X153500Y290444D01*
X152936Y290417D01*
X152377Y290337D01*
X151828Y290204D01*
X151294Y290019D01*
X151152Y289950D01*
X151023Y289858D01*
X150909Y289748D01*
X150815Y289621D01*
X150741Y289481D01*
X150691Y289332D01*
X150664Y289176D01*
X150662Y289018D01*
X150685Y288861D01*
X150732Y288710D01*
X150802Y288569D01*
X150893Y288439D01*
X151004Y288326D01*
X151130Y288232D01*
X151270Y288158D01*
X151420Y288108D01*
X151576Y288081D01*
X151734Y288079D01*
X151890Y288102D01*
X152040Y288152D01*
X152392Y288278D01*
X152756Y288366D01*
X153126Y288419D01*
X153500Y288437D01*
X153874Y288419D01*
X154244Y288366D01*
X154608Y288278D01*
X154961Y288156D01*
X155000Y288143D01*
Y280862D01*
X154960Y280848D01*
X154608Y280722D01*
X154244Y280634D01*
X153874Y280581D01*
X153500Y280563D01*
X153126Y280581D01*
X152756Y280634D01*
X152392Y280722D01*
X152039Y280844D01*
X151889Y280894D01*
X151734Y280917D01*
X151576Y280915D01*
X151421Y280888D01*
X151272Y280838D01*
X151133Y280764D01*
X151007Y280670D01*
X150897Y280558D01*
X150806Y280429D01*
X150736Y280288D01*
X150689Y280138D01*
X150667Y279982D01*
X150668Y279825D01*
X150695Y279669D01*
X150746Y279520D01*
X150819Y279381D01*
X150913Y279255D01*
X151025Y279145D01*
X151154Y279054D01*
X151296Y278987D01*
X151828Y278796D01*
X152377Y278663D01*
X152936Y278583D01*
X153500Y278556D01*
X154064Y278583D01*
X154623Y278663D01*
X155000Y278755D01*
Y248000D01*
X148739D01*
Y281679D01*
X148824Y281664D01*
X148982Y281662D01*
X149139Y281685D01*
X149290Y281732D01*
X149431Y281802D01*
X149561Y281893D01*
X149674Y282004D01*
X149768Y282130D01*
X149842Y282270D01*
X149892Y282420D01*
X149919Y282576D01*
X149921Y282734D01*
X149898Y282890D01*
X149848Y283040D01*
X149722Y283392D01*
X149634Y283756D01*
X149581Y284126D01*
X149563Y284500D01*
X149581Y284874D01*
X149634Y285244D01*
X149722Y285608D01*
X149844Y285961D01*
X149894Y286111D01*
X149917Y286266D01*
X149915Y286424D01*
X149888Y286579D01*
X149838Y286728D01*
X149764Y286867D01*
X149670Y286993D01*
X149558Y287103D01*
X149429Y287194D01*
X149288Y287264D01*
X149138Y287311D01*
X148982Y287333D01*
X148825Y287332D01*
X148739Y287317D01*
Y294500D01*
G37*
G36*
X146500D02*X148739D01*
Y287317D01*
X148669Y287305D01*
X148520Y287254D01*
X148381Y287181D01*
X148255Y287087D01*
X148145Y286975D01*
X148054Y286846D01*
X147987Y286704D01*
X147796Y286172D01*
X147663Y285623D01*
X147583Y285064D01*
X147556Y284500D01*
X147583Y283936D01*
X147663Y283377D01*
X147796Y282828D01*
X147981Y282294D01*
X148050Y282152D01*
X148142Y282023D01*
X148252Y281909D01*
X148379Y281815D01*
X148519Y281741D01*
X148668Y281691D01*
X148739Y281679D01*
Y248000D01*
X146500D01*
Y294500D01*
G37*
G36*
X153498D02*X159000D01*
Y286745D01*
X158950Y286848D01*
X158858Y286977D01*
X158748Y287091D01*
X158621Y287185D01*
X158481Y287259D01*
X158332Y287309D01*
X158176Y287336D01*
X158018Y287338D01*
X157861Y287315D01*
X157710Y287268D01*
X157569Y287198D01*
X157439Y287107D01*
X157326Y286996D01*
X157232Y286870D01*
X157158Y286730D01*
X157108Y286580D01*
X157081Y286424D01*
X157079Y286266D01*
X157102Y286110D01*
X157152Y285960D01*
X157278Y285608D01*
X157366Y285244D01*
X157419Y284874D01*
X157437Y284500D01*
X157419Y284126D01*
X157401Y284000D01*
X153498D01*
Y288437D01*
X153500Y288437D01*
X153874Y288419D01*
X154244Y288366D01*
X154608Y288278D01*
X154961Y288156D01*
X155111Y288106D01*
X155266Y288083D01*
X155424Y288085D01*
X155579Y288112D01*
X155728Y288162D01*
X155867Y288236D01*
X155993Y288330D01*
X156103Y288442D01*
X156194Y288571D01*
X156264Y288712D01*
X156311Y288862D01*
X156333Y289018D01*
X156332Y289175D01*
X156305Y289331D01*
X156254Y289480D01*
X156181Y289619D01*
X156087Y289745D01*
X155975Y289855D01*
X155846Y289946D01*
X155704Y290013D01*
X155172Y290204D01*
X154623Y290337D01*
X154064Y290417D01*
X153500Y290444D01*
X153498Y290444D01*
Y294500D01*
G37*
G36*
X148500Y287244D02*Y294500D01*
X153498D01*
Y290444D01*
X152936Y290417D01*
X152377Y290337D01*
X151828Y290204D01*
X151294Y290019D01*
X151152Y289950D01*
X151023Y289858D01*
X150909Y289748D01*
X150815Y289621D01*
X150741Y289481D01*
X150691Y289332D01*
X150664Y289176D01*
X150662Y289018D01*
X150685Y288861D01*
X150732Y288710D01*
X150802Y288569D01*
X150893Y288439D01*
X151004Y288326D01*
X151130Y288232D01*
X151270Y288158D01*
X151420Y288108D01*
X151576Y288081D01*
X151734Y288079D01*
X151890Y288102D01*
X152040Y288152D01*
X152392Y288278D01*
X152756Y288366D01*
X153126Y288419D01*
X153498Y288437D01*
Y284000D01*
X149599D01*
X149581Y284126D01*
X149563Y284500D01*
X149581Y284874D01*
X149634Y285244D01*
X149722Y285608D01*
X149844Y285961D01*
X149894Y286111D01*
X149917Y286266D01*
X149915Y286424D01*
X149888Y286579D01*
X149838Y286728D01*
X149764Y286867D01*
X149670Y286993D01*
X149558Y287103D01*
X149429Y287194D01*
X149288Y287264D01*
X149138Y287311D01*
X148982Y287333D01*
X148825Y287332D01*
X148669Y287305D01*
X148520Y287254D01*
X148500Y287244D01*
G37*
G36*
X148739Y291500D02*X150000D01*
Y181000D01*
X148739D01*
Y281679D01*
X148824Y281664D01*
X148982Y281662D01*
X149139Y281685D01*
X149290Y281732D01*
X149431Y281802D01*
X149561Y281893D01*
X149674Y282004D01*
X149768Y282130D01*
X149842Y282270D01*
X149892Y282420D01*
X149919Y282576D01*
X149921Y282734D01*
X149898Y282890D01*
X149848Y283040D01*
X149722Y283392D01*
X149634Y283756D01*
X149581Y284126D01*
X149563Y284500D01*
X149581Y284874D01*
X149634Y285244D01*
X149722Y285608D01*
X149844Y285961D01*
X149894Y286111D01*
X149917Y286266D01*
X149915Y286424D01*
X149888Y286579D01*
X149838Y286728D01*
X149764Y286867D01*
X149670Y286993D01*
X149558Y287103D01*
X149429Y287194D01*
X149288Y287264D01*
X149138Y287311D01*
X148982Y287333D01*
X148825Y287332D01*
X148739Y287317D01*
Y291500D01*
G37*
G36*
X140500D02*X148739D01*
Y287317D01*
X148669Y287305D01*
X148520Y287254D01*
X148381Y287181D01*
X148255Y287087D01*
X148145Y286975D01*
X148054Y286846D01*
X147987Y286704D01*
X147796Y286172D01*
X147663Y285623D01*
X147583Y285064D01*
X147556Y284500D01*
X147583Y283936D01*
X147663Y283377D01*
X147796Y282828D01*
X147981Y282294D01*
X148050Y282152D01*
X148142Y282023D01*
X148252Y281909D01*
X148379Y281815D01*
X148519Y281741D01*
X148668Y281691D01*
X148739Y281679D01*
Y181000D01*
X140500D01*
Y291500D01*
G37*
G36*
X65760Y246500D02*X76000D01*
Y234000D01*
X65500D01*
Y245721D01*
X65503Y245725D01*
X65671Y246132D01*
X65760Y246500D01*
G37*
G36*
X65500Y270000D02*X76000D01*
Y257500D01*
X65500D01*
Y270000D01*
G37*
G36*
X109000Y236000D02*X122000D01*
Y221500D01*
X109000D01*
Y236000D01*
G37*
G36*
X125000Y241000D02*X146500D01*
Y213500D01*
X125000D01*
Y241000D01*
G37*
G36*
X109000Y246500D02*X109941D01*
X110000Y246495D01*
X110059Y246500D01*
X138500D01*
Y238000D01*
X109000D01*
Y246500D01*
G37*
G36*
X108500D02*X109941D01*
X110000Y246495D01*
X110059Y246500D01*
X138000D01*
Y238000D01*
X108500D01*
Y246500D01*
G37*
G36*
X111500Y274500D02*X122500D01*
Y259000D01*
X112450D01*
Y262500D01*
X112427Y262884D01*
X112337Y263259D01*
X112190Y263616D01*
X111988Y263945D01*
X111895Y264054D01*
X111892Y267141D01*
X111859Y267279D01*
X111804Y267410D01*
X111730Y267531D01*
X111638Y267638D01*
X111531Y267730D01*
X111500Y267749D01*
Y274500D01*
G37*
G36*
X341964Y53500D02*X381500D01*
Y34500D01*
X341964D01*
Y40564D01*
X342049Y40589D01*
X342155Y40639D01*
X342253Y40706D01*
X342339Y40787D01*
X342411Y40880D01*
X342466Y40984D01*
X342641Y41412D01*
X342770Y41855D01*
X342857Y42309D01*
X342900Y42769D01*
Y43231D01*
X342857Y43691D01*
X342770Y44145D01*
X342641Y44588D01*
X342471Y45018D01*
X342415Y45122D01*
X342342Y45216D01*
X342255Y45297D01*
X342157Y45364D01*
X342050Y45414D01*
X341964Y45440D01*
Y53500D01*
G37*
G36*
X338002D02*X341964D01*
Y45440D01*
X341936Y45448D01*
X341818Y45462D01*
X341700Y45459D01*
X341583Y45437D01*
X341472Y45396D01*
X341368Y45339D01*
X341274Y45266D01*
X341193Y45180D01*
X341126Y45082D01*
X341075Y44975D01*
X341042Y44861D01*
X341027Y44743D01*
X341031Y44624D01*
X341053Y44508D01*
X341096Y44397D01*
X341217Y44101D01*
X341306Y43793D01*
X341366Y43479D01*
X341396Y43160D01*
Y42840D01*
X341366Y42521D01*
X341306Y42207D01*
X341217Y41899D01*
X341099Y41601D01*
X341057Y41491D01*
X341035Y41375D01*
X341031Y41257D01*
X341046Y41140D01*
X341079Y41027D01*
X341129Y40920D01*
X341196Y40822D01*
X341276Y40736D01*
X341370Y40664D01*
X341473Y40607D01*
X341584Y40567D01*
X341700Y40545D01*
X341818Y40541D01*
X341935Y40556D01*
X341964Y40564D01*
Y34500D01*
X338002D01*
Y38100D01*
X338231D01*
X338691Y38143D01*
X339145Y38230D01*
X339588Y38359D01*
X340018Y38529D01*
X340122Y38585D01*
X340216Y38658D01*
X340297Y38745D01*
X340364Y38843D01*
X340414Y38950D01*
X340448Y39064D01*
X340462Y39182D01*
X340459Y39300D01*
X340436Y39417D01*
X340396Y39528D01*
X340339Y39632D01*
X340266Y39726D01*
X340180Y39807D01*
X340082Y39874D01*
X339975Y39925D01*
X339861Y39958D01*
X339743Y39973D01*
X339624Y39969D01*
X339508Y39947D01*
X339397Y39904D01*
X339101Y39783D01*
X338793Y39694D01*
X338479Y39634D01*
X338160Y39604D01*
X338002D01*
Y46396D01*
X338160D01*
X338479Y46366D01*
X338793Y46306D01*
X339101Y46217D01*
X339399Y46099D01*
X339509Y46057D01*
X339625Y46035D01*
X339743Y46031D01*
X339860Y46046D01*
X339973Y46079D01*
X340080Y46129D01*
X340178Y46196D01*
X340264Y46276D01*
X340336Y46370D01*
X340393Y46473D01*
X340433Y46584D01*
X340455Y46700D01*
X340459Y46818D01*
X340444Y46935D01*
X340411Y47049D01*
X340361Y47155D01*
X340294Y47253D01*
X340213Y47339D01*
X340120Y47411D01*
X340016Y47466D01*
X339588Y47641D01*
X339145Y47770D01*
X338691Y47857D01*
X338231Y47900D01*
X338002D01*
Y53500D01*
G37*
G36*
X334036D02*X338002D01*
Y47900D01*
X337769D01*
X337309Y47857D01*
X336855Y47770D01*
X336412Y47641D01*
X335982Y47471D01*
X335878Y47415D01*
X335784Y47342D01*
X335703Y47255D01*
X335636Y47157D01*
X335586Y47050D01*
X335552Y46936D01*
X335538Y46818D01*
X335541Y46700D01*
X335563Y46583D01*
X335604Y46472D01*
X335661Y46368D01*
X335734Y46274D01*
X335820Y46193D01*
X335918Y46126D01*
X336025Y46075D01*
X336139Y46042D01*
X336257Y46027D01*
X336376Y46031D01*
X336492Y46053D01*
X336603Y46096D01*
X336899Y46217D01*
X337207Y46306D01*
X337521Y46366D01*
X337840Y46396D01*
X338002D01*
Y39604D01*
X337840D01*
X337521Y39634D01*
X337207Y39694D01*
X336899Y39783D01*
X336601Y39901D01*
X336491Y39943D01*
X336375Y39965D01*
X336257Y39969D01*
X336140Y39954D01*
X336027Y39921D01*
X335920Y39871D01*
X335822Y39804D01*
X335736Y39724D01*
X335664Y39630D01*
X335607Y39527D01*
X335567Y39416D01*
X335545Y39300D01*
X335541Y39182D01*
X335556Y39065D01*
X335589Y38951D01*
X335639Y38845D01*
X335706Y38747D01*
X335787Y38661D01*
X335880Y38589D01*
X335984Y38534D01*
X336412Y38359D01*
X336855Y38230D01*
X337309Y38143D01*
X337769Y38100D01*
X338002D01*
Y34500D01*
X334036D01*
Y40560D01*
X334064Y40552D01*
X334182Y40538D01*
X334300Y40541D01*
X334417Y40564D01*
X334528Y40604D01*
X334632Y40661D01*
X334726Y40734D01*
X334807Y40820D01*
X334874Y40918D01*
X334925Y41025D01*
X334958Y41139D01*
X334973Y41257D01*
X334969Y41376D01*
X334947Y41492D01*
X334904Y41603D01*
X334783Y41899D01*
X334694Y42207D01*
X334634Y42521D01*
X334604Y42840D01*
Y43160D01*
X334634Y43479D01*
X334694Y43793D01*
X334783Y44101D01*
X334901Y44399D01*
X334943Y44509D01*
X334965Y44625D01*
X334969Y44743D01*
X334954Y44860D01*
X334921Y44973D01*
X334871Y45080D01*
X334804Y45178D01*
X334724Y45264D01*
X334630Y45336D01*
X334527Y45393D01*
X334416Y45433D01*
X334300Y45455D01*
X334182Y45459D01*
X334065Y45444D01*
X334036Y45436D01*
Y53500D01*
G37*
G36*
X328000D02*X334036D01*
Y45436D01*
X333951Y45411D01*
X333845Y45361D01*
X333747Y45294D01*
X333661Y45213D01*
X333589Y45120D01*
X333534Y45016D01*
X333359Y44588D01*
X333230Y44145D01*
X333143Y43691D01*
X333100Y43231D01*
Y42769D01*
X333143Y42309D01*
X333230Y41855D01*
X333359Y41412D01*
X333529Y40982D01*
X333585Y40878D01*
X333658Y40784D01*
X333745Y40703D01*
X333843Y40636D01*
X333950Y40586D01*
X334036Y40560D01*
Y34500D01*
X328000D01*
Y53500D01*
G37*
G36*
X373250Y70000D02*X381500D01*
Y50500D01*
X373250D01*
Y60248D01*
X373368Y60257D01*
X373482Y60285D01*
X373592Y60330D01*
X373692Y60391D01*
X373782Y60468D01*
X373859Y60558D01*
X373920Y60658D01*
X373965Y60768D01*
X373993Y60882D01*
X374000Y61000D01*
Y66000D01*
X373993Y66118D01*
X373965Y66232D01*
X373920Y66342D01*
X373859Y66442D01*
X373782Y66532D01*
X373692Y66609D01*
X373592Y66670D01*
X373482Y66715D01*
X373368Y66743D01*
X373250Y66752D01*
Y70000D01*
G37*
G36*
X368500D02*X373250D01*
Y66752D01*
X373132Y66743D01*
X373018Y66715D01*
X372908Y66670D01*
X372808Y66609D01*
X372718Y66532D01*
X372641Y66442D01*
X372580Y66342D01*
X372535Y66232D01*
X372507Y66118D01*
X372500Y66000D01*
Y61000D01*
X372507Y60882D01*
X372535Y60768D01*
X372580Y60658D01*
X372641Y60558D01*
X372718Y60468D01*
X372808Y60391D01*
X372908Y60330D01*
X373018Y60285D01*
X373132Y60257D01*
X373250Y60248D01*
Y50500D01*
X368500D01*
Y58000D01*
X371000D01*
X371118Y58007D01*
X371232Y58035D01*
X371342Y58080D01*
X371442Y58141D01*
X371532Y58218D01*
X371609Y58308D01*
X371670Y58408D01*
X371715Y58518D01*
X371743Y58632D01*
X371752Y58750D01*
X371743Y58868D01*
X371715Y58982D01*
X371670Y59092D01*
X371609Y59192D01*
X371532Y59282D01*
X371442Y59359D01*
X371342Y59420D01*
X371232Y59465D01*
X371118Y59493D01*
X371000Y59500D01*
X368500D01*
Y67500D01*
X371000D01*
X371118Y67507D01*
X371232Y67535D01*
X371342Y67580D01*
X371442Y67641D01*
X371532Y67718D01*
X371609Y67808D01*
X371670Y67908D01*
X371715Y68018D01*
X371743Y68132D01*
X371752Y68250D01*
X371743Y68368D01*
X371715Y68482D01*
X371670Y68592D01*
X371609Y68692D01*
X371532Y68782D01*
X371442Y68859D01*
X371342Y68920D01*
X371232Y68965D01*
X371118Y68993D01*
X371000Y69000D01*
X368500D01*
Y70000D01*
G37*
G36*
X363750D02*X368500D01*
Y69000D01*
X366000D01*
X365882Y68993D01*
X365768Y68965D01*
X365658Y68920D01*
X365558Y68859D01*
X365468Y68782D01*
X365391Y68692D01*
X365330Y68592D01*
X365285Y68482D01*
X365257Y68368D01*
X365248Y68250D01*
X365257Y68132D01*
X365285Y68018D01*
X365330Y67908D01*
X365391Y67808D01*
X365468Y67718D01*
X365558Y67641D01*
X365658Y67580D01*
X365768Y67535D01*
X365882Y67507D01*
X366000Y67500D01*
X368500D01*
Y59500D01*
X366000D01*
X365882Y59493D01*
X365768Y59465D01*
X365658Y59420D01*
X365558Y59359D01*
X365468Y59282D01*
X365391Y59192D01*
X365330Y59092D01*
X365285Y58982D01*
X365257Y58868D01*
X365248Y58750D01*
X365257Y58632D01*
X365285Y58518D01*
X365330Y58408D01*
X365391Y58308D01*
X365468Y58218D01*
X365558Y58141D01*
X365658Y58080D01*
X365768Y58035D01*
X365882Y58007D01*
X366000Y58000D01*
X368500D01*
Y50500D01*
X363750D01*
Y60248D01*
X363868Y60257D01*
X363982Y60285D01*
X364092Y60330D01*
X364192Y60391D01*
X364282Y60468D01*
X364359Y60558D01*
X364420Y60658D01*
X364465Y60768D01*
X364493Y60882D01*
X364500Y61000D01*
Y66000D01*
X364493Y66118D01*
X364465Y66232D01*
X364420Y66342D01*
X364359Y66442D01*
X364282Y66532D01*
X364192Y66609D01*
X364092Y66670D01*
X363982Y66715D01*
X363868Y66743D01*
X363750Y66752D01*
Y70000D01*
G37*
G36*
X356000D02*X363750D01*
Y66752D01*
X363632Y66743D01*
X363518Y66715D01*
X363408Y66670D01*
X363308Y66609D01*
X363218Y66532D01*
X363141Y66442D01*
X363080Y66342D01*
X363035Y66232D01*
X363007Y66118D01*
X363000Y66000D01*
Y61000D01*
X363007Y60882D01*
X363035Y60768D01*
X363080Y60658D01*
X363141Y60558D01*
X363218Y60468D01*
X363308Y60391D01*
X363408Y60330D01*
X363518Y60285D01*
X363632Y60257D01*
X363750Y60248D01*
Y50500D01*
X356000D01*
Y70000D01*
G37*
G36*
X337992Y72500D02*X345500D01*
Y56000D01*
X337992D01*
Y58085D01*
X338000Y58085D01*
X338769Y58145D01*
X339519Y58325D01*
X340231Y58621D01*
X340889Y59024D01*
X341476Y59524D01*
X341976Y60111D01*
X342379Y60769D01*
X342675Y61481D01*
X342855Y62231D01*
X342900Y63000D01*
X342855Y63769D01*
X342675Y64519D01*
X342379Y65231D01*
X341976Y65889D01*
X341476Y66476D01*
X340889Y66976D01*
X340231Y67379D01*
X339519Y67675D01*
X338769Y67855D01*
X338000Y67915D01*
X337992Y67915D01*
Y72500D01*
G37*
G36*
X311964D02*X337992D01*
Y67915D01*
X337231Y67855D01*
X336481Y67675D01*
X335769Y67379D01*
X335111Y66976D01*
X334524Y66476D01*
X334024Y65889D01*
X333621Y65231D01*
X333325Y64519D01*
X333145Y63769D01*
X333085Y63000D01*
X333145Y62231D01*
X333325Y61481D01*
X333621Y60769D01*
X334024Y60111D01*
X334524Y59524D01*
X335111Y59024D01*
X335769Y58621D01*
X336481Y58325D01*
X337231Y58145D01*
X337992Y58085D01*
Y56000D01*
X311964D01*
Y60564D01*
X312049Y60589D01*
X312155Y60639D01*
X312253Y60706D01*
X312339Y60787D01*
X312411Y60880D01*
X312466Y60984D01*
X312641Y61412D01*
X312770Y61855D01*
X312857Y62309D01*
X312900Y62769D01*
Y63231D01*
X312857Y63691D01*
X312770Y64145D01*
X312641Y64588D01*
X312471Y65018D01*
X312415Y65122D01*
X312342Y65216D01*
X312255Y65297D01*
X312157Y65364D01*
X312050Y65414D01*
X311964Y65440D01*
Y72500D01*
G37*
G36*
X308002D02*X311964D01*
Y65440D01*
X311936Y65448D01*
X311818Y65462D01*
X311700Y65459D01*
X311583Y65437D01*
X311472Y65396D01*
X311368Y65339D01*
X311274Y65266D01*
X311193Y65180D01*
X311126Y65082D01*
X311075Y64975D01*
X311042Y64861D01*
X311027Y64743D01*
X311031Y64624D01*
X311053Y64508D01*
X311096Y64397D01*
X311217Y64101D01*
X311306Y63793D01*
X311366Y63479D01*
X311396Y63160D01*
Y62840D01*
X311366Y62521D01*
X311306Y62207D01*
X311217Y61899D01*
X311099Y61601D01*
X311057Y61491D01*
X311035Y61375D01*
X311031Y61257D01*
X311046Y61140D01*
X311079Y61027D01*
X311129Y60920D01*
X311196Y60822D01*
X311276Y60736D01*
X311370Y60664D01*
X311473Y60607D01*
X311584Y60567D01*
X311700Y60545D01*
X311818Y60541D01*
X311935Y60556D01*
X311964Y60564D01*
Y56000D01*
X308002D01*
Y58100D01*
X308231D01*
X308691Y58143D01*
X309145Y58230D01*
X309588Y58359D01*
X310018Y58529D01*
X310122Y58585D01*
X310216Y58658D01*
X310297Y58745D01*
X310364Y58843D01*
X310414Y58950D01*
X310448Y59064D01*
X310462Y59182D01*
X310459Y59300D01*
X310436Y59417D01*
X310396Y59528D01*
X310339Y59632D01*
X310266Y59726D01*
X310180Y59807D01*
X310082Y59874D01*
X309975Y59925D01*
X309861Y59958D01*
X309743Y59973D01*
X309624Y59969D01*
X309508Y59947D01*
X309397Y59904D01*
X309101Y59783D01*
X308793Y59694D01*
X308479Y59634D01*
X308160Y59604D01*
X308002D01*
Y66396D01*
X308160D01*
X308479Y66366D01*
X308793Y66306D01*
X309101Y66217D01*
X309399Y66099D01*
X309509Y66057D01*
X309625Y66035D01*
X309743Y66031D01*
X309860Y66046D01*
X309973Y66079D01*
X310080Y66129D01*
X310178Y66196D01*
X310264Y66276D01*
X310336Y66370D01*
X310393Y66473D01*
X310433Y66584D01*
X310455Y66700D01*
X310459Y66818D01*
X310444Y66935D01*
X310411Y67049D01*
X310361Y67155D01*
X310294Y67253D01*
X310213Y67339D01*
X310120Y67411D01*
X310016Y67466D01*
X309588Y67641D01*
X309145Y67770D01*
X308691Y67857D01*
X308231Y67900D01*
X308002D01*
Y72500D01*
G37*
G36*
X304036D02*X308002D01*
Y67900D01*
X307769D01*
X307309Y67857D01*
X306855Y67770D01*
X306412Y67641D01*
X305982Y67471D01*
X305878Y67415D01*
X305784Y67342D01*
X305703Y67255D01*
X305636Y67157D01*
X305586Y67050D01*
X305552Y66936D01*
X305538Y66818D01*
X305541Y66700D01*
X305563Y66583D01*
X305604Y66472D01*
X305661Y66368D01*
X305734Y66274D01*
X305820Y66193D01*
X305918Y66126D01*
X306025Y66075D01*
X306139Y66042D01*
X306257Y66027D01*
X306376Y66031D01*
X306492Y66053D01*
X306603Y66096D01*
X306899Y66217D01*
X307207Y66306D01*
X307521Y66366D01*
X307840Y66396D01*
X308002D01*
Y59604D01*
X307840D01*
X307521Y59634D01*
X307207Y59694D01*
X306899Y59783D01*
X306601Y59901D01*
X306491Y59943D01*
X306375Y59965D01*
X306257Y59969D01*
X306140Y59954D01*
X306027Y59921D01*
X305920Y59871D01*
X305822Y59804D01*
X305736Y59724D01*
X305664Y59630D01*
X305607Y59527D01*
X305567Y59416D01*
X305545Y59300D01*
X305541Y59182D01*
X305556Y59065D01*
X305589Y58951D01*
X305639Y58845D01*
X305706Y58747D01*
X305787Y58661D01*
X305880Y58589D01*
X305984Y58534D01*
X306412Y58359D01*
X306855Y58230D01*
X307309Y58143D01*
X307769Y58100D01*
X308002D01*
Y56000D01*
X304036D01*
Y60560D01*
X304064Y60552D01*
X304182Y60538D01*
X304300Y60541D01*
X304417Y60564D01*
X304528Y60604D01*
X304632Y60661D01*
X304726Y60734D01*
X304807Y60820D01*
X304874Y60918D01*
X304925Y61025D01*
X304958Y61139D01*
X304973Y61257D01*
X304969Y61376D01*
X304947Y61492D01*
X304904Y61603D01*
X304783Y61899D01*
X304694Y62207D01*
X304634Y62521D01*
X304604Y62840D01*
Y63160D01*
X304634Y63479D01*
X304694Y63793D01*
X304783Y64101D01*
X304901Y64399D01*
X304943Y64509D01*
X304965Y64625D01*
X304969Y64743D01*
X304954Y64860D01*
X304921Y64973D01*
X304871Y65080D01*
X304804Y65178D01*
X304724Y65264D01*
X304630Y65336D01*
X304527Y65393D01*
X304416Y65433D01*
X304300Y65455D01*
X304182Y65459D01*
X304065Y65444D01*
X304036Y65436D01*
Y72500D01*
G37*
G36*
X298000D02*X304036D01*
Y65436D01*
X303951Y65411D01*
X303845Y65361D01*
X303747Y65294D01*
X303661Y65213D01*
X303589Y65120D01*
X303534Y65016D01*
X303359Y64588D01*
X303230Y64145D01*
X303143Y63691D01*
X303100Y63231D01*
Y62769D01*
X303143Y62309D01*
X303230Y61855D01*
X303359Y61412D01*
X303529Y60982D01*
X303585Y60878D01*
X303658Y60784D01*
X303745Y60703D01*
X303843Y60636D01*
X303950Y60586D01*
X304036Y60560D01*
Y56000D01*
X298000D01*
Y72500D01*
G37*
G36*
X240979Y57000D02*X291500D01*
Y7000D01*
X240979D01*
Y26360D01*
X241000Y26358D01*
X243134Y26526D01*
X245216Y27026D01*
X247193Y27845D01*
X249019Y28963D01*
X250646Y30354D01*
X252037Y31981D01*
X253155Y33807D01*
X253974Y35784D01*
X254474Y37866D01*
X254600Y40000D01*
X254474Y42134D01*
X253974Y44216D01*
X253155Y46193D01*
X252037Y48019D01*
X250646Y49646D01*
X249019Y51037D01*
X247193Y52155D01*
X245216Y52974D01*
X243134Y53474D01*
X241000Y53642D01*
X240979Y53640D01*
Y57000D01*
G37*
G36*
X190500D02*X240979D01*
Y53640D01*
X238866Y53474D01*
X236784Y52974D01*
X234807Y52155D01*
X232981Y51037D01*
X231354Y49646D01*
X229963Y48019D01*
X228845Y46193D01*
X228026Y44216D01*
X227526Y42134D01*
X227358Y40000D01*
X227526Y37866D01*
X228026Y35784D01*
X228845Y33807D01*
X229963Y31981D01*
X231354Y30354D01*
X232981Y28963D01*
X234807Y27845D01*
X236784Y27026D01*
X238866Y26526D01*
X240979Y26360D01*
Y7000D01*
X190500D01*
Y57000D01*
G37*
G36*
X237500Y89000D02*X244500D01*
Y54000D01*
X237500D01*
Y89000D01*
G37*
G36*
X183000Y112500D02*X215000D01*
Y68500D01*
X183000D01*
Y112500D01*
G37*
G36*
X152750Y148000D02*X154504D01*
X154509Y146843D01*
X154546Y146690D01*
X154606Y146545D01*
X154688Y146410D01*
X154791Y146291D01*
X154910Y146188D01*
X155045Y146106D01*
X155190Y146046D01*
X155343Y146009D01*
X155500Y146000D01*
X158203Y146003D01*
X158225Y145989D01*
X158553Y145854D01*
X158897Y145771D01*
X159250Y145750D01*
X166323D01*
X166349Y145728D01*
X166725Y145497D01*
X167132Y145329D01*
X167561Y145226D01*
X168000Y145191D01*
X168439Y145226D01*
X168868Y145329D01*
X169275Y145497D01*
X169651Y145728D01*
X169986Y146014D01*
X170272Y146349D01*
X170503Y146725D01*
X170671Y147132D01*
X170774Y147561D01*
X170800Y148000D01*
X181750D01*
Y119588D01*
X181743Y119500D01*
X181771Y119147D01*
Y119147D01*
X181854Y118803D01*
X181989Y118475D01*
X182059Y118361D01*
X182174Y118173D01*
X182174Y118173D01*
X182404Y117904D01*
X182471Y117847D01*
X186347Y113971D01*
X186404Y113904D01*
X186673Y113674D01*
X186673Y113674D01*
X186861Y113559D01*
X186975Y113489D01*
X187303Y113354D01*
X187647Y113271D01*
X187647D01*
X188000Y113243D01*
X188088Y113250D01*
X215000D01*
Y97500D01*
X152750D01*
Y125748D01*
X152868Y125757D01*
X152982Y125785D01*
X153092Y125830D01*
X153192Y125891D01*
X153282Y125968D01*
X153359Y126058D01*
X153420Y126158D01*
X153465Y126268D01*
X153493Y126382D01*
X153500Y126500D01*
Y129500D01*
X153493Y129618D01*
X153465Y129732D01*
X153420Y129842D01*
X153359Y129942D01*
X153282Y130032D01*
X153192Y130109D01*
X153092Y130170D01*
X152982Y130215D01*
X152868Y130243D01*
X152750Y130252D01*
Y148000D01*
G37*
G36*
X149000D02*X152750D01*
Y130252D01*
X152632Y130243D01*
X152518Y130215D01*
X152408Y130170D01*
X152308Y130109D01*
X152218Y130032D01*
X152141Y129942D01*
X152080Y129842D01*
X152035Y129732D01*
X152007Y129618D01*
X152000Y129500D01*
Y126500D01*
X152007Y126382D01*
X152035Y126268D01*
X152080Y126158D01*
X152141Y126058D01*
X152218Y125968D01*
X152308Y125891D01*
X152408Y125830D01*
X152518Y125785D01*
X152632Y125757D01*
X152750Y125748D01*
Y97500D01*
X149000D01*
Y123500D01*
X150500D01*
X150618Y123507D01*
X150732Y123535D01*
X150842Y123580D01*
X150942Y123641D01*
X151032Y123718D01*
X151109Y123808D01*
X151170Y123908D01*
X151215Y124018D01*
X151243Y124132D01*
X151252Y124250D01*
X151243Y124368D01*
X151215Y124482D01*
X151170Y124592D01*
X151109Y124692D01*
X151032Y124782D01*
X150942Y124859D01*
X150842Y124920D01*
X150732Y124965D01*
X150618Y124993D01*
X150500Y125000D01*
X149000D01*
Y131000D01*
X150500D01*
X150618Y131007D01*
X150732Y131035D01*
X150842Y131080D01*
X150942Y131141D01*
X151032Y131218D01*
X151109Y131308D01*
X151170Y131408D01*
X151215Y131518D01*
X151243Y131632D01*
X151252Y131750D01*
X151243Y131868D01*
X151215Y131982D01*
X151170Y132092D01*
X151109Y132192D01*
X151032Y132282D01*
X150942Y132359D01*
X150842Y132420D01*
X150732Y132465D01*
X150618Y132493D01*
X150500Y132500D01*
X149000D01*
Y148000D01*
G37*
G36*
X144500D02*X149000D01*
Y132500D01*
X147500D01*
X147382Y132493D01*
X147268Y132465D01*
X147158Y132420D01*
X147058Y132359D01*
X146968Y132282D01*
X146891Y132192D01*
X146830Y132092D01*
X146785Y131982D01*
X146757Y131868D01*
X146748Y131750D01*
X146757Y131632D01*
X146785Y131518D01*
X146830Y131408D01*
X146891Y131308D01*
X146968Y131218D01*
X147058Y131141D01*
X147158Y131080D01*
X147268Y131035D01*
X147382Y131007D01*
X147500Y131000D01*
X149000D01*
Y125000D01*
X147500D01*
X147382Y124993D01*
X147268Y124965D01*
X147158Y124920D01*
X147058Y124859D01*
X146968Y124782D01*
X146891Y124692D01*
X146830Y124592D01*
X146785Y124482D01*
X146757Y124368D01*
X146748Y124250D01*
X146757Y124132D01*
X146785Y124018D01*
X146830Y123908D01*
X146891Y123808D01*
X146968Y123718D01*
X147058Y123641D01*
X147158Y123580D01*
X147268Y123535D01*
X147382Y123507D01*
X147500Y123500D01*
X149000D01*
Y97500D01*
X144500D01*
Y126500D01*
X144507Y126382D01*
X144535Y126268D01*
X144580Y126158D01*
X144641Y126058D01*
X144718Y125968D01*
X144808Y125891D01*
X144908Y125830D01*
X145018Y125785D01*
X145132Y125757D01*
X145250Y125748D01*
X145368Y125757D01*
X145482Y125785D01*
X145592Y125830D01*
X145692Y125891D01*
X145782Y125968D01*
X145859Y126058D01*
X145920Y126158D01*
X145965Y126268D01*
X145993Y126382D01*
X146000Y126500D01*
Y129500D01*
X145993Y129618D01*
X145965Y129732D01*
X145920Y129842D01*
X145859Y129942D01*
X145782Y130032D01*
X145692Y130109D01*
X145592Y130170D01*
X145482Y130215D01*
X145368Y130243D01*
X145250Y130252D01*
X145132Y130243D01*
X145018Y130215D01*
X144908Y130170D01*
X144808Y130109D01*
X144718Y130032D01*
X144641Y129942D01*
X144580Y129842D01*
X144535Y129732D01*
X144507Y129618D01*
X144500Y129500D01*
Y148000D01*
G37*
G36*
Y183000D02*X154500D01*
Y139500D01*
X144500D01*
Y183000D01*
G37*
G36*
X126500Y145000D02*X143500D01*
Y134000D01*
X126500D01*
Y145000D01*
G37*
G36*
X5500Y148000D02*X24500D01*
Y101000D01*
X5500D01*
Y148000D01*
G37*
G36*
X125000Y216000D02*X146500D01*
Y188500D01*
X125000D01*
Y216000D01*
G37*
G36*
X98500Y126000D02*X115500D01*
Y115000D01*
X98500D01*
Y126000D01*
G37*
G36*
X65000Y201500D02*X67221D01*
X67225Y201497D01*
X67632Y201329D01*
X68061Y201226D01*
X68500Y201191D01*
X68939Y201226D01*
X69368Y201329D01*
X69775Y201497D01*
X69779Y201500D01*
X79884D01*
X79997Y201225D01*
X80228Y200849D01*
X80514Y200514D01*
X80849Y200228D01*
X81225Y199997D01*
X81632Y199829D01*
X82061Y199726D01*
X82500Y199691D01*
X82939Y199726D01*
X83368Y199829D01*
X83736Y199981D01*
X83726Y199939D01*
X83691Y199500D01*
X83726Y199061D01*
X83829Y198632D01*
X83997Y198225D01*
X84228Y197849D01*
X84514Y197514D01*
X84849Y197228D01*
X85225Y196997D01*
X85632Y196829D01*
X86061Y196726D01*
X86500Y196691D01*
X86939Y196726D01*
X87368Y196829D01*
X87775Y196997D01*
X88151Y197228D01*
X88486Y197514D01*
X88772Y197849D01*
X88897Y198053D01*
X88965Y198069D01*
X89183Y198159D01*
X89384Y198283D01*
X89564Y198436D01*
X89602Y198481D01*
X90000Y198879D01*
Y186500D01*
X63000D01*
Y198248D01*
X63189Y198293D01*
X63407Y198383D01*
X63608Y198507D01*
X63788Y198660D01*
X63826Y198705D01*
X64519Y199398D01*
X64564Y199436D01*
X64717Y199615D01*
X64717Y199616D01*
X64841Y199817D01*
X64841Y199817D01*
X64872Y199892D01*
X64931Y200035D01*
X64931Y200035D01*
X64933Y200042D01*
X64986Y200265D01*
X65005Y200500D01*
X65000Y200559D01*
Y201500D01*
G37*
G36*
X124002Y124600D02*X136052D01*
X136347Y124348D01*
X136951Y123978D01*
X137605Y123707D01*
X138294Y123542D01*
X139000Y123486D01*
X139706Y123542D01*
X140395Y123707D01*
X141049Y123978D01*
X141653Y124348D01*
X142192Y124808D01*
X142652Y125347D01*
X143000Y125915D01*
Y97500D01*
X124002D01*
Y124600D01*
G37*
G36*
X135316Y130600D02*X127613D01*
Y149853D01*
X127656Y149860D01*
X127768Y149897D01*
X127873Y149952D01*
X127968Y150022D01*
X128051Y150106D01*
X128119Y150202D01*
X128170Y150308D01*
X128318Y150716D01*
X128422Y151137D01*
X128484Y151567D01*
X128505Y152000D01*
X128484Y152433D01*
X128422Y152863D01*
X128318Y153284D01*
X128175Y153694D01*
X128122Y153800D01*
X128053Y153896D01*
X127970Y153981D01*
X127875Y154051D01*
X127769Y154106D01*
X127657Y154143D01*
X127613Y154151D01*
Y156550D01*
X127765Y156514D01*
X128000Y156495D01*
X128059Y156500D01*
X139250D01*
X139289Y156502D01*
X143000Y156504D01*
Y154500D01*
X134922Y154495D01*
X134845Y154477D01*
X134772Y154447D01*
X134705Y154406D01*
X134645Y154355D01*
X134594Y154295D01*
X134553Y154228D01*
X134523Y154155D01*
X134505Y154078D01*
X134500Y154000D01*
X134505Y151922D01*
X134523Y151845D01*
X134553Y151772D01*
X134594Y151705D01*
X134645Y151645D01*
X134705Y151594D01*
X134772Y151553D01*
X134845Y151523D01*
X134922Y151505D01*
X135000Y151500D01*
X143000Y151504D01*
Y149500D01*
X134922Y149495D01*
X134845Y149477D01*
X134772Y149447D01*
X134705Y149406D01*
X134645Y149355D01*
X134594Y149295D01*
X134553Y149228D01*
X134523Y149155D01*
X134505Y149078D01*
X134500Y149000D01*
X134505Y146922D01*
X134523Y146845D01*
X134553Y146772D01*
X134594Y146705D01*
X134645Y146645D01*
X134705Y146594D01*
X134772Y146553D01*
X134845Y146523D01*
X134922Y146505D01*
X135000Y146500D01*
X143000Y146504D01*
Y130085D01*
X142652Y130653D01*
X142192Y131192D01*
X141653Y131652D01*
X141049Y132022D01*
X140395Y132293D01*
X139706Y132458D01*
X139000Y132514D01*
X138294Y132458D01*
X137605Y132293D01*
X136951Y132022D01*
X136347Y131652D01*
X135808Y131192D01*
X135348Y130653D01*
X135316Y130600D01*
G37*
G36*
X127613D02*X124002D01*
Y147495D01*
X124433Y147516D01*
X124863Y147578D01*
X125284Y147682D01*
X125694Y147825D01*
X125800Y147878D01*
X125896Y147947D01*
X125981Y148030D01*
X126051Y148125D01*
X126106Y148231D01*
X126143Y148343D01*
X126163Y148460D01*
X126164Y148579D01*
X126146Y148696D01*
X126110Y148809D01*
X126057Y148915D01*
X125988Y149012D01*
X125905Y149096D01*
X125809Y149167D01*
X125704Y149221D01*
X125592Y149259D01*
X125475Y149278D01*
X125356Y149279D01*
X125239Y149261D01*
X125126Y149223D01*
X124855Y149124D01*
X124575Y149056D01*
X124289Y149014D01*
X124002Y149000D01*
Y155000D01*
X124289Y154986D01*
X124575Y154944D01*
X124855Y154876D01*
X125128Y154780D01*
X125239Y154742D01*
X125356Y154725D01*
X125474Y154725D01*
X125591Y154745D01*
X125703Y154782D01*
X125807Y154836D01*
X125902Y154906D01*
X125985Y154991D01*
X126054Y155087D01*
X126107Y155192D01*
X126143Y155305D01*
X126160Y155421D01*
X126159Y155539D01*
X126140Y155656D01*
X126103Y155768D01*
X126048Y155873D01*
X125978Y155968D01*
X125894Y156051D01*
X125798Y156119D01*
X125692Y156170D01*
X125284Y156318D01*
X124863Y156422D01*
X124433Y156484D01*
X124002Y156505D01*
Y157486D01*
X124706Y157542D01*
X125395Y157707D01*
X125944Y157935D01*
X126898Y156981D01*
X126936Y156936D01*
X127115Y156783D01*
X127116Y156783D01*
X127317Y156659D01*
X127535Y156569D01*
X127613Y156550D01*
Y154151D01*
X127540Y154163D01*
X127421Y154164D01*
X127304Y154146D01*
X127191Y154110D01*
X127085Y154057D01*
X126988Y153988D01*
X126904Y153905D01*
X126833Y153809D01*
X126779Y153704D01*
X126741Y153592D01*
X126722Y153475D01*
X126721Y153356D01*
X126739Y153239D01*
X126777Y153126D01*
X126876Y152855D01*
X126944Y152575D01*
X126986Y152289D01*
X127000Y152000D01*
X126986Y151711D01*
X126944Y151425D01*
X126876Y151145D01*
X126780Y150872D01*
X126742Y150761D01*
X126725Y150644D01*
X126725Y150526D01*
X126745Y150409D01*
X126782Y150297D01*
X126836Y150193D01*
X126906Y150098D01*
X126991Y150015D01*
X127087Y149946D01*
X127192Y149893D01*
X127305Y149857D01*
X127421Y149840D01*
X127539Y149841D01*
X127613Y149853D01*
Y130600D01*
G37*
G36*
X120387Y124404D02*X123435Y124414D01*
X123665Y124469D01*
X123883Y124559D01*
X123949Y124600D01*
X124002D01*
Y97500D01*
X120387D01*
Y124404D01*
G37*
G36*
X124002Y130600D02*X123949D01*
X123883Y130641D01*
X123665Y130731D01*
X123435Y130786D01*
X123200Y130800D01*
X120387Y130791D01*
Y149849D01*
X120460Y149837D01*
X120579Y149836D01*
X120696Y149854D01*
X120809Y149890D01*
X120915Y149943D01*
X121012Y150012D01*
X121096Y150095D01*
X121167Y150191D01*
X121221Y150296D01*
X121259Y150408D01*
X121278Y150525D01*
X121279Y150644D01*
X121261Y150761D01*
X121223Y150874D01*
X121124Y151145D01*
X121056Y151425D01*
X121014Y151711D01*
X121000Y152000D01*
X121014Y152289D01*
X121056Y152575D01*
X121124Y152855D01*
X121220Y153128D01*
X121258Y153239D01*
X121275Y153356D01*
X121275Y153474D01*
X121255Y153591D01*
X121218Y153703D01*
X121164Y153807D01*
X121094Y153902D01*
X121009Y153985D01*
X120913Y154054D01*
X120808Y154107D01*
X120695Y154143D01*
X120579Y154160D01*
X120461Y154159D01*
X120387Y154147D01*
Y156266D01*
X122056Y157935D01*
X122605Y157707D01*
X123294Y157542D01*
X124000Y157486D01*
X124002Y157486D01*
Y156505D01*
X124000Y156505D01*
X123567Y156484D01*
X123137Y156422D01*
X122716Y156318D01*
X122306Y156175D01*
X122200Y156122D01*
X122104Y156053D01*
X122019Y155970D01*
X121949Y155875D01*
X121894Y155769D01*
X121857Y155657D01*
X121837Y155540D01*
X121836Y155421D01*
X121854Y155304D01*
X121890Y155191D01*
X121943Y155085D01*
X122012Y154988D01*
X122095Y154904D01*
X122191Y154833D01*
X122296Y154779D01*
X122408Y154741D01*
X122525Y154722D01*
X122644Y154721D01*
X122761Y154739D01*
X122874Y154777D01*
X123145Y154876D01*
X123425Y154944D01*
X123711Y154986D01*
X124000Y155000D01*
X124002Y155000D01*
Y149000D01*
X124000Y149000D01*
X123711Y149014D01*
X123425Y149056D01*
X123145Y149124D01*
X122872Y149220D01*
X122761Y149258D01*
X122644Y149275D01*
X122526Y149275D01*
X122409Y149255D01*
X122297Y149218D01*
X122193Y149164D01*
X122098Y149094D01*
X122015Y149009D01*
X121946Y148913D01*
X121893Y148808D01*
X121857Y148695D01*
X121840Y148579D01*
X121841Y148461D01*
X121860Y148344D01*
X121897Y148232D01*
X121952Y148127D01*
X122022Y148032D01*
X122106Y147949D01*
X122202Y147881D01*
X122308Y147830D01*
X122716Y147682D01*
X123137Y147578D01*
X123567Y147516D01*
X124000Y147495D01*
X124002Y147495D01*
Y130600D01*
G37*
G36*
X120387Y130791D02*X118965Y130786D01*
X118735Y130731D01*
X118517Y130641D01*
X118316Y130517D01*
X118136Y130364D01*
X117983Y130184D01*
X117859Y129983D01*
X117769Y129765D01*
X117714Y129535D01*
X117700Y129300D01*
X117714Y125665D01*
X117769Y125435D01*
X117859Y125217D01*
X117983Y125016D01*
X118136Y124836D01*
X118316Y124683D01*
X118517Y124559D01*
X118735Y124469D01*
X118965Y124414D01*
X119200Y124400D01*
X120387Y124404D01*
Y97500D01*
X96121D01*
X94000Y99621D01*
Y107441D01*
X94005Y107500D01*
X93986Y107735D01*
X93931Y107965D01*
X93841Y108183D01*
X93717Y108384D01*
X93564Y108564D01*
X93519Y108602D01*
X83102Y119019D01*
X83064Y119064D01*
X82884Y119217D01*
X82683Y119341D01*
X82465Y119431D01*
X82235Y119486D01*
X82000Y119505D01*
X81941Y119500D01*
X74500D01*
Y140879D01*
X89019Y155398D01*
X89064Y155436D01*
X89217Y155615D01*
X89217Y155616D01*
X89341Y155817D01*
X89431Y156035D01*
X89486Y156265D01*
X89505Y156500D01*
X89500Y156559D01*
Y159635D01*
X89651Y159728D01*
X89986Y160014D01*
X90272Y160349D01*
X90503Y160725D01*
X90671Y161132D01*
X90750Y161460D01*
X90829Y161132D01*
X90997Y160725D01*
X91228Y160349D01*
X91514Y160014D01*
X91849Y159728D01*
X92000Y159635D01*
Y135059D01*
X91995Y135000D01*
X92014Y134765D01*
X92069Y134535D01*
X92159Y134317D01*
X92283Y134116D01*
X92283Y134115D01*
X92436Y133936D01*
X92481Y133898D01*
X95898Y130481D01*
X95936Y130436D01*
X96115Y130283D01*
X96116Y130283D01*
X96317Y130159D01*
X96535Y130069D01*
X96765Y130014D01*
X97000Y129995D01*
X97059Y130000D01*
X109512D01*
X109514Y129565D01*
X109569Y129335D01*
X109659Y129117D01*
X109783Y128916D01*
X109936Y128736D01*
X110116Y128583D01*
X110317Y128459D01*
X110535Y128369D01*
X110765Y128314D01*
X111000Y128300D01*
X115235Y128314D01*
X115465Y128369D01*
X115683Y128459D01*
X115884Y128583D01*
X116064Y128736D01*
X116217Y128916D01*
X116341Y129117D01*
X116431Y129335D01*
X116486Y129565D01*
X116500Y129800D01*
X116486Y133435D01*
X116431Y133665D01*
X116341Y133883D01*
X116217Y134084D01*
X116064Y134264D01*
X115884Y134417D01*
X115683Y134541D01*
X115465Y134631D01*
X115235Y134686D01*
X115000Y134700D01*
X110765Y134686D01*
X110535Y134631D01*
X110317Y134541D01*
X110116Y134417D01*
X109936Y134264D01*
X109783Y134084D01*
X109659Y133883D01*
X109569Y133665D01*
X109514Y133435D01*
X109500Y133200D01*
X109501Y133000D01*
X97621D01*
X95000Y135621D01*
Y159635D01*
X95151Y159728D01*
X95486Y160014D01*
X95772Y160349D01*
X96003Y160725D01*
X96171Y161132D01*
X96274Y161561D01*
X96300Y162000D01*
X96274Y162439D01*
X96171Y162868D01*
X96003Y163275D01*
X95772Y163651D01*
X95486Y163986D01*
X95151Y164272D01*
X94775Y164503D01*
X94368Y164671D01*
X93939Y164774D01*
X93500Y164809D01*
X93061Y164774D01*
X92632Y164671D01*
X92225Y164503D01*
X91849Y164272D01*
X91514Y163986D01*
X91228Y163651D01*
X90997Y163275D01*
X90829Y162868D01*
X90750Y162540D01*
X90671Y162868D01*
X90503Y163275D01*
X90272Y163651D01*
X89986Y163986D01*
X89651Y164272D01*
X89275Y164503D01*
X88868Y164671D01*
X88439Y164774D01*
X88000Y164809D01*
X87561Y164774D01*
X87132Y164671D01*
X86725Y164503D01*
X86349Y164272D01*
X86014Y163986D01*
X85728Y163651D01*
X85497Y163275D01*
X85329Y162868D01*
X85226Y162439D01*
X85191Y162000D01*
X85226Y161561D01*
X85329Y161132D01*
X85497Y160725D01*
X85586Y160581D01*
X85368Y160671D01*
X84939Y160774D01*
X84500Y160809D01*
X84061Y160774D01*
X83632Y160671D01*
X83225Y160503D01*
X82849Y160272D01*
X82725Y160166D01*
Y171899D01*
X82800Y171944D01*
X82874Y171899D01*
Y168685D01*
X82869Y168626D01*
X82888Y168391D01*
X82943Y168161D01*
X83033Y167943D01*
X83157Y167742D01*
X83157Y167741D01*
X83310Y167562D01*
X83355Y167524D01*
X85398Y165481D01*
X85436Y165436D01*
X85615Y165283D01*
X85616Y165283D01*
X85817Y165159D01*
X86035Y165069D01*
X86265Y165014D01*
X86500Y164995D01*
X86559Y165000D01*
X94879D01*
X103898Y155981D01*
X103936Y155936D01*
X104116Y155783D01*
X104317Y155659D01*
X104535Y155569D01*
X104765Y155514D01*
X105000Y155495D01*
X105059Y155500D01*
X111169D01*
X110808Y155192D01*
X110348Y154653D01*
X109978Y154049D01*
X109707Y153395D01*
X109542Y152706D01*
X109486Y152000D01*
X109542Y151294D01*
X109707Y150605D01*
X109978Y149951D01*
X110348Y149347D01*
X110808Y148808D01*
X111347Y148348D01*
X111951Y147978D01*
X112605Y147707D01*
X113294Y147542D01*
X114000Y147486D01*
X114706Y147542D01*
X115395Y147707D01*
X116049Y147978D01*
X116653Y148348D01*
X117192Y148808D01*
X117652Y149347D01*
X118022Y149951D01*
X118293Y150605D01*
X118458Y151294D01*
X118500Y152000D01*
X118458Y152706D01*
X118293Y153395D01*
X118022Y154049D01*
X117652Y154653D01*
X117192Y155192D01*
X116831Y155500D01*
X118941D01*
X119000Y155495D01*
X119235Y155514D01*
X119235Y155514D01*
X119465Y155569D01*
X119683Y155659D01*
X119884Y155783D01*
X120064Y155936D01*
X120102Y155981D01*
X120387Y156266D01*
Y154147D01*
X120344Y154140D01*
X120232Y154103D01*
X120127Y154048D01*
X120032Y153978D01*
X119949Y153894D01*
X119881Y153798D01*
X119830Y153692D01*
X119682Y153284D01*
X119578Y152863D01*
X119516Y152433D01*
X119495Y152000D01*
X119516Y151567D01*
X119578Y151137D01*
X119682Y150716D01*
X119825Y150306D01*
X119878Y150200D01*
X119947Y150104D01*
X120030Y150019D01*
X120125Y149949D01*
X120231Y149894D01*
X120343Y149857D01*
X120387Y149849D01*
Y130791D01*
G37*
G36*
X261761Y121000D02*X298000D01*
Y94000D01*
X261761D01*
Y97183D01*
X261831Y97195D01*
X261980Y97246D01*
X262119Y97319D01*
X262245Y97413D01*
X262355Y97525D01*
X262446Y97654D01*
X262513Y97796D01*
X262704Y98328D01*
X262837Y98877D01*
X262917Y99436D01*
X262944Y100000D01*
X262917Y100564D01*
X262837Y101123D01*
X262704Y101672D01*
X262519Y102206D01*
X262450Y102348D01*
X262358Y102477D01*
X262248Y102591D01*
X262121Y102685D01*
X261981Y102759D01*
X261832Y102809D01*
X261761Y102821D01*
Y121000D01*
G37*
G36*
X256998D02*X261761D01*
Y102821D01*
X261676Y102836D01*
X261518Y102838D01*
X261361Y102815D01*
X261210Y102768D01*
X261069Y102698D01*
X260939Y102607D01*
X260826Y102496D01*
X260732Y102370D01*
X260658Y102230D01*
X260608Y102080D01*
X260581Y101924D01*
X260579Y101766D01*
X260602Y101610D01*
X260652Y101460D01*
X260778Y101108D01*
X260866Y100744D01*
X260919Y100374D01*
X260937Y100000D01*
X260919Y99626D01*
X260866Y99256D01*
X260778Y98892D01*
X260656Y98539D01*
X260606Y98389D01*
X260583Y98234D01*
X260585Y98076D01*
X260612Y97921D01*
X260662Y97772D01*
X260736Y97633D01*
X260830Y97507D01*
X260942Y97397D01*
X261071Y97306D01*
X261212Y97236D01*
X261362Y97189D01*
X261518Y97167D01*
X261675Y97168D01*
X261761Y97183D01*
Y94000D01*
X261391D01*
X261211Y94211D01*
X260500Y94818D01*
X259821Y95235D01*
X259836Y95324D01*
X259838Y95482D01*
X259815Y95639D01*
X259768Y95790D01*
X259698Y95931D01*
X259607Y96061D01*
X259496Y96174D01*
X259370Y96268D01*
X259230Y96342D01*
X259080Y96392D01*
X258924Y96419D01*
X258766Y96421D01*
X258610Y96398D01*
X258460Y96348D01*
X258108Y96222D01*
X257744Y96134D01*
X257374Y96081D01*
X257000Y96063D01*
X256998Y96063D01*
Y103937D01*
X257000Y103937D01*
X257374Y103919D01*
X257744Y103866D01*
X258108Y103778D01*
X258461Y103656D01*
X258611Y103606D01*
X258766Y103583D01*
X258924Y103585D01*
X259079Y103612D01*
X259228Y103662D01*
X259367Y103736D01*
X259493Y103830D01*
X259603Y103942D01*
X259694Y104071D01*
X259764Y104212D01*
X259811Y104362D01*
X259833Y104518D01*
X259832Y104675D01*
X259805Y104831D01*
X259754Y104980D01*
X259681Y105119D01*
X259587Y105245D01*
X259475Y105355D01*
X259346Y105446D01*
X259204Y105513D01*
X258672Y105704D01*
X258123Y105837D01*
X257564Y105917D01*
X257000Y105944D01*
X256998Y105944D01*
Y121000D01*
G37*
G36*
X252239D02*X256998D01*
Y105944D01*
X256436Y105917D01*
X255877Y105837D01*
X255328Y105704D01*
X254794Y105519D01*
X254652Y105450D01*
X254523Y105358D01*
X254409Y105248D01*
X254315Y105121D01*
X254241Y104981D01*
X254191Y104832D01*
X254164Y104676D01*
X254162Y104518D01*
X254185Y104361D01*
X254232Y104210D01*
X254302Y104069D01*
X254393Y103939D01*
X254504Y103826D01*
X254630Y103732D01*
X254770Y103658D01*
X254920Y103608D01*
X255076Y103581D01*
X255234Y103579D01*
X255390Y103602D01*
X255540Y103652D01*
X255892Y103778D01*
X256256Y103866D01*
X256626Y103919D01*
X256998Y103937D01*
Y96063D01*
X256626Y96081D01*
X256256Y96134D01*
X255892Y96222D01*
X255539Y96344D01*
X255389Y96394D01*
X255234Y96417D01*
X255076Y96415D01*
X254921Y96388D01*
X254772Y96338D01*
X254633Y96264D01*
X254507Y96170D01*
X254397Y96058D01*
X254306Y95929D01*
X254236Y95788D01*
X254189Y95638D01*
X254167Y95482D01*
X254168Y95325D01*
X254183Y95237D01*
X253500Y94818D01*
X252789Y94211D01*
X252609Y94000D01*
X252239D01*
Y97179D01*
X252324Y97164D01*
X252482Y97162D01*
X252639Y97185D01*
X252790Y97232D01*
X252931Y97302D01*
X253061Y97393D01*
X253174Y97504D01*
X253268Y97630D01*
X253342Y97770D01*
X253392Y97920D01*
X253419Y98076D01*
X253421Y98234D01*
X253398Y98390D01*
X253348Y98540D01*
X253222Y98892D01*
X253134Y99256D01*
X253081Y99626D01*
X253063Y100000D01*
X253081Y100374D01*
X253134Y100744D01*
X253222Y101108D01*
X253344Y101461D01*
X253394Y101611D01*
X253417Y101766D01*
X253415Y101924D01*
X253388Y102079D01*
X253338Y102228D01*
X253264Y102367D01*
X253170Y102493D01*
X253058Y102603D01*
X252929Y102694D01*
X252788Y102764D01*
X252638Y102811D01*
X252482Y102833D01*
X252325Y102832D01*
X252239Y102817D01*
Y121000D01*
G37*
G36*
X246000D02*X252239D01*
Y102817D01*
X252169Y102805D01*
X252020Y102754D01*
X251881Y102681D01*
X251755Y102587D01*
X251645Y102475D01*
X251554Y102346D01*
X251487Y102204D01*
X251296Y101672D01*
X251163Y101123D01*
X251083Y100564D01*
X251056Y100000D01*
X251083Y99436D01*
X251163Y98877D01*
X251296Y98328D01*
X251481Y97794D01*
X251550Y97652D01*
X251642Y97523D01*
X251752Y97409D01*
X251879Y97315D01*
X252019Y97241D01*
X252168Y97191D01*
X252239Y97179D01*
Y94000D01*
X246000D01*
Y121000D01*
G37*
G36*
X230500Y172000D02*X290000D01*
Y124000D01*
X230500D01*
Y131353D01*
X231354Y130354D01*
X232981Y128963D01*
X234807Y127845D01*
X236784Y127026D01*
X238866Y126526D01*
X241000Y126358D01*
X243134Y126526D01*
X245216Y127026D01*
X247193Y127845D01*
X249019Y128963D01*
X250646Y130354D01*
X252037Y131981D01*
X253155Y133807D01*
X253974Y135784D01*
X254474Y137866D01*
X254600Y140000D01*
X254474Y142134D01*
X253974Y144216D01*
X253155Y146193D01*
X252037Y148019D01*
X250646Y149646D01*
X249019Y151037D01*
X247193Y152155D01*
X245216Y152974D01*
X243134Y153474D01*
X241000Y153642D01*
X238866Y153474D01*
X236784Y152974D01*
X234807Y152155D01*
X232981Y151037D01*
X231354Y149646D01*
X230500Y148647D01*
Y172000D01*
G37*
G36*
X190500D02*X250000D01*
Y150198D01*
X249019Y151037D01*
X247193Y152155D01*
X245216Y152974D01*
X243134Y153474D01*
X241000Y153642D01*
X238866Y153474D01*
X236784Y152974D01*
X234807Y152155D01*
X232981Y151037D01*
X231354Y149646D01*
X229963Y148019D01*
X228845Y146193D01*
X228026Y144216D01*
X227526Y142134D01*
X227358Y140000D01*
X227526Y137866D01*
X228026Y135784D01*
X228845Y133807D01*
X229963Y131981D01*
X231354Y130354D01*
X232981Y128963D01*
X234807Y127845D01*
X236784Y127026D01*
X238866Y126526D01*
X241000Y126358D01*
X243134Y126526D01*
X245216Y127026D01*
X247193Y127845D01*
X249019Y128963D01*
X250000Y129802D01*
Y124000D01*
X190500D01*
Y172000D01*
G37*
G36*
Y196000D02*X276500D01*
Y174000D01*
X190500D01*
Y196000D01*
G37*
G36*
X244500Y126854D02*Y85000D01*
X237500D01*
Y126854D01*
X238866Y126526D01*
X241000Y126358D01*
X243134Y126526D01*
X244500Y126854D01*
G37*
G36*
X367155Y187245D02*X367319Y186638D01*
X367435Y185988D01*
X367493Y185330D01*
Y184670D01*
X367435Y184012D01*
X367319Y183362D01*
X367155Y182755D01*
Y187245D01*
G37*
G36*
Y212224D02*X367398Y211981D01*
X367436Y211936D01*
X367616Y211783D01*
X367817Y211659D01*
X368035Y211569D01*
X368265Y211514D01*
X368500Y211495D01*
X368559Y211500D01*
X374879D01*
X376500Y209879D01*
Y166000D01*
X367155D01*
Y180396D01*
X367530Y181039D01*
X367849Y181716D01*
X368107Y182419D01*
X368303Y183142D01*
X368434Y183880D01*
X368500Y184626D01*
Y185374D01*
X368434Y186121D01*
X368303Y186858D01*
X368107Y187581D01*
X367849Y188284D01*
X367530Y188961D01*
X367155Y189604D01*
Y212224D01*
G37*
G36*
X360004Y215110D02*X361720Y215113D01*
X361934Y215164D01*
X362138Y215249D01*
X362325Y215364D01*
X362493Y215507D01*
X362636Y215675D01*
X362751Y215862D01*
X362808Y216000D01*
X363584D01*
X363659Y215817D01*
X363783Y215616D01*
X363936Y215436D01*
X363981Y215398D01*
X367155Y212224D01*
Y189604D01*
X367152Y189608D01*
X366719Y190219D01*
X366666Y190279D01*
X366604Y190328D01*
X366534Y190368D01*
X366460Y190396D01*
X366381Y190412D01*
X366302Y190416D01*
X366222Y190407D01*
X366145Y190386D01*
X366073Y190353D01*
X366006Y190309D01*
X365947Y190256D01*
X365897Y190193D01*
X365857Y190124D01*
X365829Y190049D01*
X365813Y189971D01*
X365809Y189891D01*
X365818Y189812D01*
X365839Y189735D01*
X365872Y189662D01*
X365917Y189596D01*
X366305Y189062D01*
X366638Y188492D01*
X366919Y187895D01*
X367147Y187275D01*
X367155Y187245D01*
Y182755D01*
X367147Y182725D01*
X366919Y182105D01*
X366638Y181508D01*
X366305Y180938D01*
X365923Y180399D01*
X365879Y180334D01*
X365846Y180263D01*
X365825Y180187D01*
X365817Y180109D01*
X365820Y180030D01*
X365836Y179953D01*
X365864Y179879D01*
X365903Y179811D01*
X365952Y179749D01*
X366010Y179696D01*
X366076Y179653D01*
X366148Y179621D01*
X366224Y179600D01*
X366302Y179591D01*
X366381Y179595D01*
X366458Y179611D01*
X366531Y179639D01*
X366600Y179678D01*
X366661Y179727D01*
X366713Y179786D01*
X367152Y180392D01*
X367155Y180396D01*
Y166000D01*
X360004D01*
Y176500D01*
X360374D01*
X361120Y176566D01*
X361858Y176697D01*
X362581Y176893D01*
X363284Y177151D01*
X363961Y177470D01*
X364608Y177848D01*
X365219Y178281D01*
X365279Y178334D01*
X365328Y178396D01*
X365368Y178466D01*
X365396Y178540D01*
X365412Y178619D01*
X365416Y178698D01*
X365407Y178778D01*
X365386Y178855D01*
X365353Y178927D01*
X365309Y178994D01*
X365256Y179053D01*
X365193Y179103D01*
X365124Y179143D01*
X365049Y179171D01*
X364971Y179187D01*
X364891Y179191D01*
X364812Y179182D01*
X364735Y179161D01*
X364662Y179128D01*
X364596Y179083D01*
X364062Y178695D01*
X363492Y178362D01*
X362895Y178081D01*
X362275Y177853D01*
X361638Y177681D01*
X360988Y177565D01*
X360330Y177507D01*
X360004D01*
Y192493D01*
X360330D01*
X360988Y192435D01*
X361638Y192319D01*
X362275Y192147D01*
X362895Y191919D01*
X363492Y191638D01*
X364062Y191305D01*
X364601Y190923D01*
X364666Y190879D01*
X364737Y190846D01*
X364813Y190825D01*
X364891Y190817D01*
X364970Y190820D01*
X365047Y190836D01*
X365121Y190864D01*
X365189Y190903D01*
X365251Y190952D01*
X365304Y191010D01*
X365347Y191076D01*
X365379Y191148D01*
X365400Y191224D01*
X365409Y191302D01*
X365405Y191381D01*
X365389Y191458D01*
X365361Y191531D01*
X365322Y191600D01*
X365273Y191661D01*
X365214Y191713D01*
X364608Y192152D01*
X363961Y192530D01*
X363284Y192849D01*
X362581Y193107D01*
X361858Y193303D01*
X361120Y193434D01*
X360374Y193500D01*
X360004D01*
Y215110D01*
G37*
G36*
X355155Y206245D02*X355319Y205638D01*
X355435Y204988D01*
X355493Y204330D01*
Y203670D01*
X355435Y203012D01*
X355319Y202362D01*
X355155Y201755D01*
Y206245D01*
G37*
G36*
Y178020D02*X355392Y177848D01*
X356039Y177470D01*
X356716Y177151D01*
X357419Y176893D01*
X358142Y176697D01*
X358879Y176566D01*
X359626Y176500D01*
X360004D01*
Y166000D01*
X355155D01*
Y178020D01*
G37*
G36*
Y190815D02*X355188Y190818D01*
X355265Y190839D01*
X355338Y190872D01*
X355404Y190917D01*
X355938Y191305D01*
X356508Y191638D01*
X357105Y191919D01*
X357725Y192147D01*
X358362Y192319D01*
X359012Y192435D01*
X359670Y192493D01*
X360004D01*
Y177507D01*
X359670D01*
X359012Y177565D01*
X358362Y177681D01*
X357725Y177853D01*
X357105Y178081D01*
X356508Y178362D01*
X355938Y178695D01*
X355399Y179077D01*
X355334Y179121D01*
X355263Y179154D01*
X355187Y179175D01*
X355155Y179178D01*
Y190815D01*
G37*
G36*
Y215103D02*X360004Y215110D01*
Y193500D01*
X359626D01*
X358879Y193434D01*
X358142Y193303D01*
X357419Y193107D01*
X356716Y192849D01*
X356039Y192530D01*
X355392Y192152D01*
X355155Y191984D01*
Y199396D01*
X355530Y200039D01*
X355849Y200716D01*
X356107Y201419D01*
X356303Y202142D01*
X356434Y202880D01*
X356500Y203626D01*
Y204374D01*
X356434Y205121D01*
X356303Y205858D01*
X356107Y206581D01*
X355849Y207284D01*
X355530Y207961D01*
X355155Y208604D01*
Y215103D01*
G37*
G36*
X352845Y197016D02*X353219Y197281D01*
X353279Y197334D01*
X353328Y197396D01*
X353368Y197466D01*
X353396Y197540D01*
X353412Y197619D01*
X353416Y197698D01*
X353407Y197778D01*
X353386Y197855D01*
X353353Y197927D01*
X353309Y197994D01*
X353256Y198053D01*
X353193Y198103D01*
X353124Y198143D01*
X353049Y198171D01*
X352971Y198187D01*
X352891Y198191D01*
X352845Y198186D01*
Y209822D01*
X352891Y209817D01*
X352970Y209820D01*
X353047Y209836D01*
X353121Y209864D01*
X353189Y209903D01*
X353251Y209952D01*
X353304Y210010D01*
X353347Y210076D01*
X353379Y210148D01*
X353400Y210224D01*
X353409Y210302D01*
X353405Y210381D01*
X353389Y210458D01*
X353361Y210531D01*
X353322Y210600D01*
X353273Y210661D01*
X353214Y210713D01*
X352845Y210980D01*
Y215109D01*
X353000Y215100D01*
X355155Y215103D01*
Y208604D01*
X355152Y208608D01*
X354719Y209219D01*
X354666Y209279D01*
X354604Y209328D01*
X354534Y209368D01*
X354460Y209396D01*
X354381Y209412D01*
X354302Y209416D01*
X354222Y209407D01*
X354145Y209386D01*
X354073Y209353D01*
X354006Y209309D01*
X353947Y209256D01*
X353897Y209193D01*
X353857Y209124D01*
X353829Y209049D01*
X353813Y208971D01*
X353809Y208891D01*
X353818Y208812D01*
X353839Y208735D01*
X353872Y208662D01*
X353917Y208596D01*
X354305Y208062D01*
X354638Y207492D01*
X354919Y206895D01*
X355147Y206275D01*
X355155Y206245D01*
Y201755D01*
X355147Y201725D01*
X354919Y201105D01*
X354638Y200508D01*
X354305Y199938D01*
X353923Y199399D01*
X353879Y199334D01*
X353846Y199263D01*
X353825Y199187D01*
X353817Y199109D01*
X353820Y199030D01*
X353836Y198953D01*
X353864Y198879D01*
X353903Y198811D01*
X353952Y198749D01*
X354010Y198696D01*
X354076Y198653D01*
X354148Y198621D01*
X354224Y198600D01*
X354302Y198591D01*
X354381Y198595D01*
X354458Y198611D01*
X354531Y198639D01*
X354600Y198678D01*
X354661Y198727D01*
X354713Y198786D01*
X355152Y199392D01*
X355155Y199396D01*
Y191984D01*
X354781Y191719D01*
X354721Y191666D01*
X354672Y191604D01*
X354632Y191534D01*
X354604Y191460D01*
X354588Y191381D01*
X354584Y191302D01*
X354593Y191222D01*
X354614Y191145D01*
X354647Y191073D01*
X354691Y191006D01*
X354744Y190947D01*
X354807Y190897D01*
X354876Y190857D01*
X354951Y190829D01*
X355029Y190813D01*
X355109Y190809D01*
X355155Y190815D01*
Y179178D01*
X355109Y179183D01*
X355030Y179180D01*
X354953Y179164D01*
X354879Y179136D01*
X354811Y179097D01*
X354749Y179048D01*
X354696Y178990D01*
X354653Y178924D01*
X354621Y178852D01*
X354600Y178776D01*
X354591Y178698D01*
X354595Y178619D01*
X354611Y178542D01*
X354639Y178469D01*
X354678Y178400D01*
X354727Y178339D01*
X354786Y178287D01*
X355155Y178020D01*
Y166000D01*
X352845D01*
Y180396D01*
X352848Y180392D01*
X353281Y179781D01*
X353334Y179721D01*
X353396Y179672D01*
X353466Y179632D01*
X353540Y179604D01*
X353619Y179588D01*
X353698Y179584D01*
X353778Y179593D01*
X353855Y179614D01*
X353927Y179647D01*
X353994Y179691D01*
X354053Y179744D01*
X354103Y179807D01*
X354143Y179876D01*
X354171Y179951D01*
X354187Y180029D01*
X354191Y180109D01*
X354182Y180188D01*
X354161Y180265D01*
X354128Y180338D01*
X354083Y180404D01*
X353695Y180938D01*
X353362Y181508D01*
X353081Y182105D01*
X352853Y182725D01*
X352845Y182755D01*
Y187245D01*
X352853Y187275D01*
X353081Y187895D01*
X353362Y188492D01*
X353695Y189062D01*
X354077Y189601D01*
X354121Y189666D01*
X354154Y189737D01*
X354175Y189813D01*
X354183Y189891D01*
X354180Y189970D01*
X354164Y190047D01*
X354136Y190121D01*
X354097Y190189D01*
X354048Y190251D01*
X353990Y190304D01*
X353924Y190347D01*
X353852Y190379D01*
X353776Y190400D01*
X353698Y190409D01*
X353619Y190405D01*
X353542Y190389D01*
X353469Y190361D01*
X353400Y190322D01*
X353339Y190273D01*
X353287Y190214D01*
X352848Y189608D01*
X352845Y189604D01*
Y197016D01*
G37*
G36*
Y182755D02*X352681Y183362D01*
X352565Y184012D01*
X352507Y184670D01*
Y185330D01*
X352565Y185988D01*
X352681Y186638D01*
X352845Y187245D01*
Y182755D01*
G37*
G36*
Y210980D02*X352608Y211152D01*
X351961Y211530D01*
X351284Y211849D01*
X350581Y212107D01*
X349858Y212303D01*
X349120Y212434D01*
X348374Y212500D01*
X347626D01*
X346879Y212434D01*
X346142Y212303D01*
X346000Y212264D01*
Y215250D01*
X347500D01*
X347853Y215271D01*
X348197Y215354D01*
X348525Y215489D01*
X348827Y215674D01*
X348915Y215750D01*
X351818D01*
X351864Y215675D01*
X352007Y215507D01*
X352175Y215364D01*
X352362Y215249D01*
X352566Y215164D01*
X352780Y215113D01*
X352845Y215109D01*
Y210980D01*
G37*
G36*
Y198186D02*X352812Y198182D01*
X352735Y198161D01*
X352662Y198128D01*
X352596Y198083D01*
X352062Y197695D01*
X351492Y197362D01*
X350895Y197081D01*
X350275Y196853D01*
X349638Y196681D01*
X348988Y196565D01*
X348330Y196507D01*
X347670D01*
X347012Y196565D01*
X346362Y196681D01*
X346000Y196779D01*
Y211221D01*
X346362Y211319D01*
X347012Y211435D01*
X347670Y211493D01*
X348330D01*
X348988Y211435D01*
X349638Y211319D01*
X350275Y211147D01*
X350895Y210919D01*
X351492Y210638D01*
X352062Y210305D01*
X352601Y209923D01*
X352666Y209879D01*
X352737Y209846D01*
X352813Y209825D01*
X352845Y209822D01*
Y198186D01*
G37*
G36*
X346000Y166000D02*Y195736D01*
X346142Y195697D01*
X346879Y195566D01*
X347626Y195500D01*
X348374D01*
X349120Y195566D01*
X349858Y195697D01*
X350581Y195893D01*
X351284Y196151D01*
X351961Y196470D01*
X352608Y196848D01*
X352845Y197016D01*
Y189604D01*
X352470Y188961D01*
X352151Y188284D01*
X351893Y187581D01*
X351697Y186858D01*
X351566Y186121D01*
X351500Y185374D01*
Y184626D01*
X351566Y183880D01*
X351697Y183142D01*
X351893Y182419D01*
X352151Y181716D01*
X352470Y181039D01*
X352845Y180396D01*
Y166000D01*
X346000D01*
G37*
G36*
X340845Y212750D02*X342412D01*
X342500Y212743D01*
X342853Y212771D01*
X342853Y212771D01*
X343197Y212854D01*
X343525Y212989D01*
X343827Y213174D01*
X344096Y213404D01*
X344153Y213471D01*
X345932Y215250D01*
X347500D01*
X347853Y215271D01*
X348197Y215354D01*
X348525Y215489D01*
X348827Y215674D01*
X348915Y215750D01*
X350000D01*
Y212264D01*
X349858Y212303D01*
X349120Y212434D01*
X348374Y212500D01*
X347626D01*
X346879Y212434D01*
X346142Y212303D01*
X345419Y212107D01*
X344716Y211849D01*
X344039Y211530D01*
X343392Y211152D01*
X342781Y210719D01*
X342721Y210666D01*
X342672Y210604D01*
X342632Y210534D01*
X342604Y210460D01*
X342588Y210381D01*
X342584Y210302D01*
X342593Y210222D01*
X342614Y210145D01*
X342647Y210073D01*
X342691Y210006D01*
X342744Y209947D01*
X342807Y209897D01*
X342876Y209857D01*
X342951Y209829D01*
X343029Y209813D01*
X343109Y209809D01*
X343188Y209818D01*
X343265Y209839D01*
X343338Y209872D01*
X343404Y209917D01*
X343938Y210305D01*
X344508Y210638D01*
X345105Y210919D01*
X345725Y211147D01*
X346362Y211319D01*
X347012Y211435D01*
X347670Y211493D01*
X348330D01*
X348988Y211435D01*
X349638Y211319D01*
X350000Y211221D01*
Y196779D01*
X349638Y196681D01*
X348988Y196565D01*
X348330Y196507D01*
X347670D01*
X347012Y196565D01*
X346362Y196681D01*
X345725Y196853D01*
X345105Y197081D01*
X344508Y197362D01*
X343938Y197695D01*
X343399Y198077D01*
X343334Y198121D01*
X343263Y198154D01*
X343187Y198175D01*
X343109Y198183D01*
X343030Y198180D01*
X342953Y198164D01*
X342879Y198136D01*
X342811Y198097D01*
X342749Y198048D01*
X342696Y197990D01*
X342653Y197924D01*
X342621Y197852D01*
X342600Y197776D01*
X342591Y197698D01*
X342595Y197619D01*
X342611Y197542D01*
X342639Y197469D01*
X342678Y197400D01*
X342727Y197339D01*
X342786Y197287D01*
X343392Y196848D01*
X344039Y196470D01*
X344716Y196151D01*
X345419Y195893D01*
X346142Y195697D01*
X346879Y195566D01*
X347626Y195500D01*
X348374D01*
X349120Y195566D01*
X349858Y195697D01*
X350000Y195736D01*
Y190500D01*
X346000D01*
X340845Y195655D01*
Y199396D01*
X340848Y199392D01*
X341281Y198781D01*
X341334Y198721D01*
X341396Y198672D01*
X341466Y198632D01*
X341540Y198604D01*
X341619Y198588D01*
X341698Y198584D01*
X341778Y198593D01*
X341855Y198614D01*
X341927Y198647D01*
X341994Y198691D01*
X342053Y198744D01*
X342103Y198807D01*
X342143Y198876D01*
X342171Y198951D01*
X342187Y199029D01*
X342191Y199109D01*
X342182Y199188D01*
X342161Y199265D01*
X342128Y199338D01*
X342083Y199404D01*
X341695Y199938D01*
X341362Y200508D01*
X341081Y201105D01*
X340853Y201725D01*
X340845Y201755D01*
Y206245D01*
X340853Y206275D01*
X341081Y206895D01*
X341362Y207492D01*
X341695Y208062D01*
X342077Y208601D01*
X342121Y208666D01*
X342154Y208737D01*
X342175Y208813D01*
X342183Y208891D01*
X342180Y208970D01*
X342164Y209047D01*
X342136Y209121D01*
X342097Y209189D01*
X342048Y209251D01*
X341990Y209304D01*
X341924Y209347D01*
X341852Y209379D01*
X341776Y209400D01*
X341698Y209409D01*
X341619Y209405D01*
X341542Y209389D01*
X341469Y209361D01*
X341400Y209322D01*
X341339Y209273D01*
X341287Y209214D01*
X340848Y208608D01*
X340845Y208604D01*
Y212750D01*
G37*
G36*
Y201755D02*X340681Y202362D01*
X340565Y203012D01*
X340507Y203670D01*
Y204330D01*
X340565Y204988D01*
X340681Y205638D01*
X340845Y206245D01*
Y201755D01*
G37*
G36*
X339500Y197000D02*Y212750D01*
X340845D01*
Y208604D01*
X340470Y207961D01*
X340151Y207284D01*
X339893Y206581D01*
X339697Y205858D01*
X339566Y205121D01*
X339500Y204374D01*
Y203626D01*
X339566Y202880D01*
X339697Y202142D01*
X339893Y201419D01*
X340151Y200716D01*
X340470Y200039D01*
X340845Y199396D01*
Y195655D01*
X339500Y197000D01*
G37*
G36*
X337500Y160500D02*X330898D01*
Y176684D01*
X331586Y176295D01*
X332389Y175933D01*
X333221Y175644D01*
X334076Y175432D01*
X334947Y175297D01*
X335027Y175294D01*
X335106Y175304D01*
X335183Y175327D01*
X335256Y175361D01*
X335322Y175406D01*
X335380Y175461D01*
X335429Y175525D01*
X335468Y175595D01*
X335495Y175670D01*
X335509Y175749D01*
X335512Y175829D01*
X335502Y175908D01*
X335479Y175985D01*
X335445Y176058D01*
X335400Y176124D01*
X335345Y176182D01*
X335281Y176231D01*
X335211Y176270D01*
X335136Y176297D01*
X335057Y176310D01*
X334275Y176422D01*
X333509Y176612D01*
X332762Y176871D01*
X332042Y177196D01*
X331355Y177585D01*
X330898Y177900D01*
Y192100D01*
X331355Y192415D01*
X332042Y192804D01*
X332762Y193129D01*
X333509Y193388D01*
X334275Y193578D01*
X335056Y193699D01*
X335133Y193712D01*
X335207Y193739D01*
X335277Y193776D01*
X335339Y193824D01*
X335393Y193882D01*
X335437Y193947D01*
X335471Y194018D01*
X335493Y194093D01*
X335503Y194171D01*
X335501Y194250D01*
X335486Y194327D01*
X335459Y194402D01*
X335422Y194471D01*
X335374Y194533D01*
X335316Y194587D01*
X335251Y194631D01*
X335180Y194665D01*
X335105Y194687D01*
X335026Y194697D01*
X334948Y194693D01*
X334076Y194568D01*
X333221Y194356D01*
X332389Y194067D01*
X331586Y193705D01*
X330898Y193316D01*
Y202500D01*
X337500D01*
Y194634D01*
X337053Y194703D01*
X336973Y194706D01*
X336894Y194696D01*
X336817Y194673D01*
X336744Y194639D01*
X336678Y194594D01*
X336620Y194539D01*
X336571Y194475D01*
X336532Y194405D01*
X336505Y194330D01*
X336491Y194251D01*
X336488Y194171D01*
X336498Y194092D01*
X336521Y194015D01*
X336555Y193942D01*
X336600Y193876D01*
X336655Y193818D01*
X336719Y193769D01*
X336789Y193730D01*
X336864Y193703D01*
X336943Y193690D01*
X337500Y193610D01*
Y176387D01*
X336944Y176301D01*
X336867Y176288D01*
X336793Y176261D01*
X336723Y176224D01*
X336661Y176176D01*
X336607Y176118D01*
X336563Y176053D01*
X336529Y175982D01*
X336507Y175907D01*
X336497Y175829D01*
X336499Y175750D01*
X336514Y175673D01*
X336541Y175598D01*
X336578Y175529D01*
X336626Y175467D01*
X336684Y175413D01*
X336749Y175369D01*
X336820Y175335D01*
X336895Y175313D01*
X336974Y175303D01*
X337052Y175307D01*
X337500Y175371D01*
Y160500D01*
G37*
G36*
X330898D02*X278500D01*
Y202500D01*
X330898D01*
Y193316D01*
X330819Y193271D01*
X330094Y192770D01*
X329417Y192206D01*
X328794Y191583D01*
X328230Y190906D01*
X327729Y190181D01*
X327295Y189414D01*
X326933Y188611D01*
X326644Y187779D01*
X326432Y186924D01*
X326297Y186053D01*
X326294Y185973D01*
X326304Y185894D01*
X326327Y185817D01*
X326361Y185744D01*
X326406Y185678D01*
X326461Y185620D01*
X326525Y185571D01*
X326595Y185532D01*
X326670Y185505D01*
X326749Y185491D01*
X326829Y185488D01*
X326908Y185498D01*
X326985Y185521D01*
X327058Y185555D01*
X327124Y185600D01*
X327182Y185655D01*
X327231Y185719D01*
X327270Y185789D01*
X327297Y185864D01*
X327310Y185943D01*
X327422Y186725D01*
X327612Y187491D01*
X327871Y188238D01*
X328196Y188958D01*
X328585Y189645D01*
X329034Y190295D01*
X329540Y190902D01*
X330098Y191460D01*
X330705Y191966D01*
X330898Y192100D01*
Y177900D01*
X330705Y178034D01*
X330098Y178540D01*
X329540Y179098D01*
X329034Y179705D01*
X328585Y180355D01*
X328196Y181042D01*
X327871Y181762D01*
X327612Y182509D01*
X327422Y183275D01*
X327301Y184056D01*
X327288Y184133D01*
X327261Y184207D01*
X327224Y184277D01*
X327176Y184339D01*
X327118Y184393D01*
X327053Y184437D01*
X326982Y184471D01*
X326907Y184493D01*
X326829Y184503D01*
X326750Y184501D01*
X326673Y184486D01*
X326598Y184459D01*
X326529Y184422D01*
X326467Y184374D01*
X326413Y184316D01*
X326369Y184251D01*
X326335Y184180D01*
X326313Y184105D01*
X326303Y184026D01*
X326307Y183948D01*
X326432Y183076D01*
X326644Y182221D01*
X326933Y181389D01*
X327295Y180586D01*
X327729Y179819D01*
X328230Y179094D01*
X328794Y178417D01*
X329417Y177794D01*
X330094Y177230D01*
X330819Y176729D01*
X330898Y176684D01*
Y160500D01*
G37*
G36*
X342106Y156000D02*X353500D01*
Y126500D01*
X342106D01*
Y131776D01*
X342225Y131811D01*
X342367Y131878D01*
X342497Y131967D01*
X342612Y132075D01*
X342708Y132200D01*
X342780Y132339D01*
X343010Y132904D01*
X343179Y133489D01*
X343293Y134088D01*
X343350Y134695D01*
Y135305D01*
X343293Y135912D01*
X343179Y136511D01*
X343010Y137097D01*
X342787Y137664D01*
X342712Y137803D01*
X342615Y137928D01*
X342500Y138037D01*
X342370Y138126D01*
X342227Y138194D01*
X342106Y138229D01*
Y156000D01*
G37*
G36*
X336852D02*X342106D01*
Y138229D01*
X342075Y138238D01*
X341918Y138258D01*
X341760Y138254D01*
X341604Y138224D01*
X341455Y138171D01*
X341317Y138095D01*
X341191Y137999D01*
X341083Y137884D01*
X340994Y137753D01*
X340926Y137610D01*
X340881Y137458D01*
X340861Y137301D01*
X340866Y137143D01*
X340895Y136988D01*
X340951Y136840D01*
X341110Y136450D01*
X341227Y136045D01*
X341306Y135631D01*
X341345Y135211D01*
Y134789D01*
X341306Y134369D01*
X341227Y133955D01*
X341110Y133550D01*
X340956Y133158D01*
X340900Y133011D01*
X340871Y132856D01*
X340866Y132699D01*
X340886Y132543D01*
X340931Y132392D01*
X340998Y132249D01*
X341087Y132119D01*
X341195Y132005D01*
X341319Y131909D01*
X341457Y131833D01*
X341606Y131780D01*
X341760Y131751D01*
X341918Y131747D01*
X342074Y131767D01*
X342106Y131776D01*
Y126500D01*
X336852D01*
Y128500D01*
X337155D01*
X337762Y128557D01*
X338361Y128671D01*
X338946Y128840D01*
X339514Y129063D01*
X339653Y129138D01*
X339778Y129235D01*
X339887Y129350D01*
X339976Y129480D01*
X340044Y129623D01*
X340088Y129775D01*
X340108Y129932D01*
X340104Y130090D01*
X340074Y130246D01*
X340021Y130395D01*
X339945Y130533D01*
X339849Y130659D01*
X339734Y130767D01*
X339603Y130856D01*
X339460Y130924D01*
X339308Y130969D01*
X339151Y130989D01*
X338993Y130984D01*
X338838Y130955D01*
X338690Y130899D01*
X338300Y130740D01*
X337895Y130623D01*
X337481Y130544D01*
X337061Y130505D01*
X336852D01*
Y139495D01*
X337061D01*
X337481Y139456D01*
X337895Y139377D01*
X338300Y139260D01*
X338692Y139106D01*
X338839Y139050D01*
X338994Y139021D01*
X339151Y139016D01*
X339307Y139036D01*
X339458Y139081D01*
X339601Y139148D01*
X339731Y139237D01*
X339845Y139345D01*
X339941Y139469D01*
X340017Y139607D01*
X340070Y139756D01*
X340099Y139910D01*
X340103Y140068D01*
X340083Y140224D01*
X340039Y140375D01*
X339972Y140517D01*
X339883Y140647D01*
X339775Y140762D01*
X339650Y140858D01*
X339511Y140930D01*
X338946Y141160D01*
X338361Y141329D01*
X337762Y141443D01*
X337155Y141500D01*
X336852D01*
Y156000D01*
G37*
G36*
X331594D02*X336852D01*
Y141500D01*
X336545D01*
X335938Y141443D01*
X335339Y141329D01*
X334753Y141160D01*
X334186Y140937D01*
X334047Y140862D01*
X333922Y140765D01*
X333813Y140650D01*
X333724Y140520D01*
X333656Y140377D01*
X333612Y140225D01*
X333592Y140068D01*
X333596Y139910D01*
X333626Y139754D01*
X333679Y139605D01*
X333755Y139467D01*
X333851Y139341D01*
X333966Y139233D01*
X334097Y139144D01*
X334240Y139076D01*
X334392Y139031D01*
X334549Y139011D01*
X334707Y139016D01*
X334862Y139045D01*
X335010Y139101D01*
X335400Y139260D01*
X335805Y139377D01*
X336219Y139456D01*
X336639Y139495D01*
X336852D01*
Y130505D01*
X336639D01*
X336219Y130544D01*
X335805Y130623D01*
X335400Y130740D01*
X335008Y130894D01*
X334861Y130950D01*
X334706Y130979D01*
X334549Y130984D01*
X334393Y130964D01*
X334242Y130919D01*
X334099Y130852D01*
X333969Y130763D01*
X333855Y130655D01*
X333759Y130531D01*
X333683Y130393D01*
X333630Y130244D01*
X333601Y130090D01*
X333597Y129932D01*
X333617Y129776D01*
X333661Y129625D01*
X333728Y129483D01*
X333817Y129353D01*
X333925Y129238D01*
X334050Y129142D01*
X334189Y129070D01*
X334753Y128840D01*
X335339Y128671D01*
X335938Y128557D01*
X336545Y128500D01*
X336852D01*
Y126500D01*
X331594D01*
Y131771D01*
X331625Y131762D01*
X331782Y131742D01*
X331940Y131746D01*
X332096Y131776D01*
X332245Y131829D01*
X332383Y131905D01*
X332509Y132001D01*
X332617Y132116D01*
X332706Y132247D01*
X332774Y132390D01*
X332819Y132542D01*
X332839Y132699D01*
X332834Y132857D01*
X332805Y133012D01*
X332749Y133160D01*
X332590Y133550D01*
X332473Y133955D01*
X332394Y134369D01*
X332355Y134789D01*
Y135211D01*
X332394Y135631D01*
X332473Y136045D01*
X332590Y136450D01*
X332744Y136842D01*
X332800Y136989D01*
X332829Y137144D01*
X332834Y137301D01*
X332814Y137457D01*
X332769Y137608D01*
X332702Y137751D01*
X332613Y137881D01*
X332505Y137995D01*
X332381Y138091D01*
X332243Y138167D01*
X332094Y138220D01*
X331940Y138249D01*
X331782Y138253D01*
X331626Y138233D01*
X331594Y138224D01*
Y156000D01*
G37*
G36*
X327000D02*X331594D01*
Y138224D01*
X331475Y138189D01*
X331333Y138122D01*
X331203Y138033D01*
X331088Y137925D01*
X330992Y137800D01*
X330920Y137661D01*
X330690Y137097D01*
X330521Y136511D01*
X330407Y135912D01*
X330350Y135305D01*
Y134695D01*
X330407Y134088D01*
X330521Y133489D01*
X330690Y132904D01*
X330913Y132336D01*
X330988Y132197D01*
X331085Y132072D01*
X331200Y131963D01*
X331330Y131874D01*
X331473Y131806D01*
X331594Y131771D01*
Y126500D01*
X327000D01*
Y156000D01*
G37*
G36*
X342106Y146000D02*X353500D01*
Y56000D01*
X342106D01*
Y60322D01*
X342379Y60769D01*
X342675Y61481D01*
X342855Y62231D01*
X342900Y63000D01*
X342855Y63769D01*
X342675Y64519D01*
X342379Y65231D01*
X342106Y65678D01*
Y80616D01*
X342155Y80639D01*
X342253Y80706D01*
X342339Y80787D01*
X342411Y80880D01*
X342466Y80984D01*
X342641Y81412D01*
X342770Y81855D01*
X342857Y82309D01*
X342900Y82769D01*
Y83231D01*
X342857Y83691D01*
X342770Y84145D01*
X342641Y84588D01*
X342471Y85018D01*
X342415Y85122D01*
X342342Y85216D01*
X342255Y85297D01*
X342157Y85364D01*
X342106Y85388D01*
Y131776D01*
X342225Y131811D01*
X342367Y131878D01*
X342497Y131967D01*
X342612Y132075D01*
X342708Y132200D01*
X342780Y132339D01*
X343010Y132904D01*
X343179Y133489D01*
X343293Y134088D01*
X343350Y134695D01*
Y135305D01*
X343293Y135912D01*
X343179Y136511D01*
X343010Y137097D01*
X342787Y137664D01*
X342712Y137803D01*
X342615Y137928D01*
X342500Y138037D01*
X342370Y138126D01*
X342227Y138194D01*
X342106Y138229D01*
Y146000D01*
G37*
G36*
Y56000D02*X336852D01*
Y58236D01*
X337231Y58145D01*
X338000Y58085D01*
X338769Y58145D01*
X339519Y58325D01*
X340231Y58621D01*
X340889Y59024D01*
X341476Y59524D01*
X341976Y60111D01*
X342106Y60322D01*
Y56000D01*
G37*
G36*
X336852Y146000D02*X342106D01*
Y138229D01*
X342075Y138238D01*
X341918Y138258D01*
X341760Y138254D01*
X341604Y138224D01*
X341455Y138171D01*
X341317Y138095D01*
X341191Y137999D01*
X341083Y137884D01*
X340994Y137753D01*
X340926Y137610D01*
X340881Y137458D01*
X340861Y137301D01*
X340866Y137143D01*
X340895Y136988D01*
X340951Y136840D01*
X341110Y136450D01*
X341227Y136045D01*
X341306Y135631D01*
X341345Y135211D01*
Y134789D01*
X341306Y134369D01*
X341227Y133955D01*
X341110Y133550D01*
X340956Y133158D01*
X340900Y133011D01*
X340871Y132856D01*
X340866Y132699D01*
X340886Y132543D01*
X340931Y132392D01*
X340998Y132249D01*
X341087Y132119D01*
X341195Y132005D01*
X341319Y131909D01*
X341457Y131833D01*
X341606Y131780D01*
X341760Y131751D01*
X341918Y131747D01*
X342074Y131767D01*
X342106Y131776D01*
Y85388D01*
X342050Y85414D01*
X341936Y85448D01*
X341818Y85462D01*
X341700Y85459D01*
X341583Y85437D01*
X341472Y85396D01*
X341368Y85339D01*
X341274Y85266D01*
X341193Y85180D01*
X341126Y85082D01*
X341075Y84975D01*
X341042Y84861D01*
X341027Y84743D01*
X341031Y84624D01*
X341053Y84508D01*
X341096Y84397D01*
X341217Y84101D01*
X341306Y83793D01*
X341366Y83479D01*
X341396Y83160D01*
Y82840D01*
X341366Y82521D01*
X341306Y82207D01*
X341217Y81899D01*
X341099Y81601D01*
X341057Y81491D01*
X341035Y81375D01*
X341031Y81257D01*
X341046Y81140D01*
X341079Y81027D01*
X341129Y80920D01*
X341196Y80822D01*
X341276Y80736D01*
X341370Y80664D01*
X341473Y80607D01*
X341584Y80567D01*
X341700Y80545D01*
X341818Y80541D01*
X341935Y80556D01*
X342049Y80589D01*
X342106Y80616D01*
Y65678D01*
X341976Y65889D01*
X341476Y66476D01*
X340889Y66976D01*
X340231Y67379D01*
X339519Y67675D01*
X338769Y67855D01*
X338000Y67915D01*
X337231Y67855D01*
X336852Y67764D01*
Y78231D01*
X336855Y78230D01*
X337309Y78143D01*
X337769Y78100D01*
X338231D01*
X338691Y78143D01*
X339145Y78230D01*
X339588Y78359D01*
X340018Y78529D01*
X340122Y78585D01*
X340216Y78658D01*
X340297Y78745D01*
X340364Y78843D01*
X340414Y78950D01*
X340448Y79064D01*
X340462Y79182D01*
X340459Y79300D01*
X340436Y79417D01*
X340396Y79528D01*
X340339Y79632D01*
X340266Y79726D01*
X340180Y79807D01*
X340082Y79874D01*
X339975Y79925D01*
X339861Y79958D01*
X339743Y79973D01*
X339624Y79969D01*
X339508Y79947D01*
X339397Y79904D01*
X339101Y79783D01*
X338793Y79694D01*
X338479Y79634D01*
X338160Y79604D01*
X337840D01*
X337521Y79634D01*
X337207Y79694D01*
X336899Y79783D01*
X336852Y79802D01*
Y86198D01*
X336899Y86217D01*
X337207Y86306D01*
X337521Y86366D01*
X337840Y86396D01*
X338160D01*
X338479Y86366D01*
X338793Y86306D01*
X339101Y86217D01*
X339399Y86099D01*
X339509Y86057D01*
X339625Y86035D01*
X339743Y86031D01*
X339860Y86046D01*
X339973Y86079D01*
X340080Y86129D01*
X340178Y86196D01*
X340264Y86276D01*
X340336Y86370D01*
X340393Y86473D01*
X340433Y86584D01*
X340455Y86700D01*
X340459Y86818D01*
X340444Y86935D01*
X340411Y87049D01*
X340361Y87155D01*
X340294Y87253D01*
X340213Y87339D01*
X340120Y87411D01*
X340016Y87466D01*
X339588Y87641D01*
X339145Y87770D01*
X338691Y87857D01*
X338231Y87900D01*
X337769D01*
X337309Y87857D01*
X336855Y87770D01*
X336852Y87769D01*
Y128500D01*
X337155D01*
X337762Y128557D01*
X338361Y128671D01*
X338946Y128840D01*
X339514Y129063D01*
X339653Y129138D01*
X339778Y129235D01*
X339887Y129350D01*
X339976Y129480D01*
X340044Y129623D01*
X340088Y129775D01*
X340108Y129932D01*
X340104Y130090D01*
X340074Y130246D01*
X340021Y130395D01*
X339945Y130533D01*
X339849Y130659D01*
X339734Y130767D01*
X339603Y130856D01*
X339460Y130924D01*
X339308Y130969D01*
X339151Y130989D01*
X338993Y130984D01*
X338838Y130955D01*
X338690Y130899D01*
X338300Y130740D01*
X337895Y130623D01*
X337481Y130544D01*
X337061Y130505D01*
X336852D01*
Y139495D01*
X337061D01*
X337481Y139456D01*
X337895Y139377D01*
X338300Y139260D01*
X338692Y139106D01*
X338839Y139050D01*
X338994Y139021D01*
X339151Y139016D01*
X339307Y139036D01*
X339458Y139081D01*
X339601Y139148D01*
X339731Y139237D01*
X339845Y139345D01*
X339941Y139469D01*
X340017Y139607D01*
X340070Y139756D01*
X340099Y139910D01*
X340103Y140068D01*
X340083Y140224D01*
X340039Y140375D01*
X339972Y140517D01*
X339883Y140647D01*
X339775Y140762D01*
X339650Y140858D01*
X339511Y140930D01*
X338946Y141160D01*
X338361Y141329D01*
X337762Y141443D01*
X337155Y141500D01*
X336852D01*
Y146000D01*
G37*
G36*
X334036Y60096D02*X334524Y59524D01*
X335111Y59024D01*
X335769Y58621D01*
X336481Y58325D01*
X336852Y58236D01*
Y56000D01*
X334036D01*
Y60096D01*
G37*
G36*
Y129153D02*X334050Y129142D01*
X334189Y129070D01*
X334753Y128840D01*
X335339Y128671D01*
X335938Y128557D01*
X336545Y128500D01*
X336852D01*
Y87769D01*
X336412Y87641D01*
X335982Y87471D01*
X335878Y87415D01*
X335784Y87342D01*
X335703Y87255D01*
X335636Y87157D01*
X335586Y87050D01*
X335552Y86936D01*
X335538Y86818D01*
X335541Y86700D01*
X335563Y86583D01*
X335604Y86472D01*
X335661Y86368D01*
X335734Y86274D01*
X335820Y86193D01*
X335918Y86126D01*
X336025Y86075D01*
X336139Y86042D01*
X336257Y86027D01*
X336376Y86031D01*
X336492Y86053D01*
X336603Y86096D01*
X336852Y86198D01*
Y79802D01*
X336601Y79901D01*
X336491Y79943D01*
X336375Y79965D01*
X336257Y79969D01*
X336140Y79954D01*
X336027Y79921D01*
X335920Y79871D01*
X335822Y79804D01*
X335736Y79724D01*
X335664Y79630D01*
X335607Y79527D01*
X335567Y79416D01*
X335545Y79300D01*
X335541Y79182D01*
X335556Y79065D01*
X335589Y78951D01*
X335639Y78845D01*
X335706Y78747D01*
X335787Y78661D01*
X335880Y78589D01*
X335984Y78534D01*
X336412Y78359D01*
X336852Y78231D01*
Y67764D01*
X336481Y67675D01*
X335769Y67379D01*
X335111Y66976D01*
X334524Y66476D01*
X334036Y65904D01*
Y80560D01*
X334064Y80552D01*
X334182Y80538D01*
X334300Y80541D01*
X334417Y80564D01*
X334528Y80604D01*
X334632Y80661D01*
X334726Y80734D01*
X334807Y80820D01*
X334874Y80918D01*
X334925Y81025D01*
X334958Y81139D01*
X334973Y81257D01*
X334969Y81376D01*
X334947Y81492D01*
X334904Y81603D01*
X334783Y81899D01*
X334694Y82207D01*
X334634Y82521D01*
X334604Y82840D01*
Y83160D01*
X334634Y83479D01*
X334694Y83793D01*
X334783Y84101D01*
X334901Y84399D01*
X334943Y84509D01*
X334965Y84625D01*
X334969Y84743D01*
X334954Y84860D01*
X334921Y84973D01*
X334871Y85080D01*
X334804Y85178D01*
X334724Y85264D01*
X334630Y85336D01*
X334527Y85393D01*
X334416Y85433D01*
X334300Y85455D01*
X334182Y85459D01*
X334065Y85444D01*
X334036Y85436D01*
Y129153D01*
G37*
G36*
Y139185D02*X334097Y139144D01*
X334240Y139076D01*
X334392Y139031D01*
X334549Y139011D01*
X334707Y139016D01*
X334862Y139045D01*
X335010Y139101D01*
X335400Y139260D01*
X335805Y139377D01*
X336219Y139456D01*
X336639Y139495D01*
X336852D01*
Y130505D01*
X336639D01*
X336219Y130544D01*
X335805Y130623D01*
X335400Y130740D01*
X335008Y130894D01*
X334861Y130950D01*
X334706Y130979D01*
X334549Y130984D01*
X334393Y130964D01*
X334242Y130919D01*
X334099Y130852D01*
X334036Y130809D01*
Y139185D01*
G37*
G36*
Y146000D02*X336852D01*
Y141500D01*
X336545D01*
X335938Y141443D01*
X335339Y141329D01*
X334753Y141160D01*
X334186Y140937D01*
X334047Y140862D01*
X334036Y140854D01*
Y146000D01*
G37*
G36*
X331594D02*X334036D01*
Y140854D01*
X333922Y140765D01*
X333813Y140650D01*
X333724Y140520D01*
X333656Y140377D01*
X333612Y140225D01*
X333592Y140068D01*
X333596Y139910D01*
X333626Y139754D01*
X333679Y139605D01*
X333755Y139467D01*
X333851Y139341D01*
X333966Y139233D01*
X334036Y139185D01*
Y130809D01*
X333969Y130763D01*
X333855Y130655D01*
X333759Y130531D01*
X333683Y130393D01*
X333630Y130244D01*
X333601Y130090D01*
X333597Y129932D01*
X333617Y129776D01*
X333661Y129625D01*
X333728Y129483D01*
X333817Y129353D01*
X333925Y129238D01*
X334036Y129153D01*
Y85436D01*
X333951Y85411D01*
X333845Y85361D01*
X333747Y85294D01*
X333661Y85213D01*
X333589Y85120D01*
X333534Y85016D01*
X333359Y84588D01*
X333230Y84145D01*
X333143Y83691D01*
X333100Y83231D01*
Y82769D01*
X333143Y82309D01*
X333230Y81855D01*
X333359Y81412D01*
X333529Y80982D01*
X333585Y80878D01*
X333658Y80784D01*
X333745Y80703D01*
X333843Y80636D01*
X333950Y80586D01*
X334036Y80560D01*
Y65904D01*
X334024Y65889D01*
X333621Y65231D01*
X333325Y64519D01*
X333145Y63769D01*
X333085Y63000D01*
X333145Y62231D01*
X333325Y61481D01*
X333621Y60769D01*
X334024Y60111D01*
X334036Y60096D01*
Y56000D01*
X331594D01*
Y131771D01*
X331625Y131762D01*
X331782Y131742D01*
X331940Y131746D01*
X332096Y131776D01*
X332245Y131829D01*
X332383Y131905D01*
X332509Y132001D01*
X332617Y132116D01*
X332706Y132247D01*
X332774Y132390D01*
X332819Y132542D01*
X332839Y132699D01*
X332834Y132857D01*
X332805Y133012D01*
X332749Y133160D01*
X332590Y133550D01*
X332473Y133955D01*
X332394Y134369D01*
X332355Y134789D01*
Y135211D01*
X332394Y135631D01*
X332473Y136045D01*
X332590Y136450D01*
X332744Y136842D01*
X332800Y136989D01*
X332829Y137144D01*
X332834Y137301D01*
X332814Y137457D01*
X332769Y137608D01*
X332702Y137751D01*
X332613Y137881D01*
X332505Y137995D01*
X332381Y138091D01*
X332243Y138167D01*
X332094Y138220D01*
X331940Y138249D01*
X331782Y138253D01*
X331626Y138233D01*
X331594Y138224D01*
Y146000D01*
G37*
G36*
X327000D02*X331594D01*
Y138224D01*
X331475Y138189D01*
X331333Y138122D01*
X331203Y138033D01*
X331088Y137925D01*
X330992Y137800D01*
X330920Y137661D01*
X330690Y137097D01*
X330521Y136511D01*
X330407Y135912D01*
X330350Y135305D01*
Y134695D01*
X330407Y134088D01*
X330521Y133489D01*
X330690Y132904D01*
X330913Y132336D01*
X330988Y132197D01*
X331085Y132072D01*
X331200Y131963D01*
X331330Y131874D01*
X331473Y131806D01*
X331594Y131771D01*
Y56000D01*
X327000D01*
Y146000D01*
G37*
G36*
X322406Y156000D02*X324500D01*
Y112000D01*
X322406D01*
Y131776D01*
X322525Y131811D01*
X322667Y131878D01*
X322797Y131967D01*
X322912Y132075D01*
X323008Y132200D01*
X323080Y132339D01*
X323310Y132904D01*
X323479Y133489D01*
X323593Y134088D01*
X323650Y134695D01*
Y135305D01*
X323593Y135912D01*
X323479Y136511D01*
X323310Y137097D01*
X323087Y137664D01*
X323012Y137803D01*
X322915Y137928D01*
X322800Y138037D01*
X322670Y138126D01*
X322527Y138194D01*
X322406Y138229D01*
Y156000D01*
G37*
G36*
X317152D02*X322406D01*
Y138229D01*
X322375Y138238D01*
X322218Y138258D01*
X322060Y138254D01*
X321904Y138224D01*
X321755Y138171D01*
X321617Y138095D01*
X321491Y137999D01*
X321383Y137884D01*
X321294Y137753D01*
X321226Y137610D01*
X321181Y137458D01*
X321161Y137301D01*
X321166Y137143D01*
X321195Y136988D01*
X321251Y136840D01*
X321410Y136450D01*
X321527Y136045D01*
X321606Y135631D01*
X321645Y135211D01*
Y134789D01*
X321606Y134369D01*
X321527Y133955D01*
X321410Y133550D01*
X321256Y133158D01*
X321200Y133011D01*
X321171Y132856D01*
X321166Y132699D01*
X321186Y132543D01*
X321231Y132392D01*
X321298Y132249D01*
X321387Y132119D01*
X321495Y132005D01*
X321619Y131909D01*
X321757Y131833D01*
X321906Y131780D01*
X322060Y131751D01*
X322218Y131747D01*
X322374Y131767D01*
X322406Y131776D01*
Y112000D01*
X317152D01*
Y128500D01*
X317455D01*
X318062Y128557D01*
X318661Y128671D01*
X319246Y128840D01*
X319814Y129063D01*
X319953Y129138D01*
X320078Y129235D01*
X320187Y129350D01*
X320276Y129480D01*
X320344Y129623D01*
X320388Y129775D01*
X320408Y129932D01*
X320404Y130090D01*
X320374Y130246D01*
X320321Y130395D01*
X320245Y130533D01*
X320149Y130659D01*
X320034Y130767D01*
X319903Y130856D01*
X319760Y130924D01*
X319608Y130969D01*
X319451Y130989D01*
X319293Y130984D01*
X319138Y130955D01*
X318990Y130899D01*
X318600Y130740D01*
X318195Y130623D01*
X317781Y130544D01*
X317361Y130505D01*
X317152D01*
Y139495D01*
X317361D01*
X317781Y139456D01*
X318195Y139377D01*
X318600Y139260D01*
X318992Y139106D01*
X319139Y139050D01*
X319294Y139021D01*
X319451Y139016D01*
X319607Y139036D01*
X319758Y139081D01*
X319901Y139148D01*
X320031Y139237D01*
X320145Y139345D01*
X320241Y139469D01*
X320317Y139607D01*
X320370Y139756D01*
X320399Y139910D01*
X320403Y140068D01*
X320383Y140224D01*
X320339Y140375D01*
X320272Y140517D01*
X320183Y140647D01*
X320075Y140762D01*
X319950Y140858D01*
X319811Y140930D01*
X319246Y141160D01*
X318661Y141329D01*
X318062Y141443D01*
X317455Y141500D01*
X317152D01*
Y156000D01*
G37*
G36*
X311894D02*X317152D01*
Y141500D01*
X316845D01*
X316238Y141443D01*
X315639Y141329D01*
X315053Y141160D01*
X314486Y140937D01*
X314347Y140862D01*
X314222Y140765D01*
X314113Y140650D01*
X314024Y140520D01*
X313956Y140377D01*
X313912Y140225D01*
X313892Y140068D01*
X313896Y139910D01*
X313926Y139754D01*
X313979Y139605D01*
X314055Y139467D01*
X314151Y139341D01*
X314266Y139233D01*
X314397Y139144D01*
X314540Y139076D01*
X314692Y139031D01*
X314849Y139011D01*
X315007Y139016D01*
X315162Y139045D01*
X315310Y139101D01*
X315700Y139260D01*
X316105Y139377D01*
X316519Y139456D01*
X316939Y139495D01*
X317152D01*
Y130505D01*
X316939D01*
X316519Y130544D01*
X316105Y130623D01*
X315700Y130740D01*
X315308Y130894D01*
X315161Y130950D01*
X315006Y130979D01*
X314849Y130984D01*
X314693Y130964D01*
X314542Y130919D01*
X314399Y130852D01*
X314269Y130763D01*
X314155Y130655D01*
X314059Y130531D01*
X313983Y130393D01*
X313930Y130244D01*
X313901Y130090D01*
X313897Y129932D01*
X313917Y129776D01*
X313961Y129625D01*
X314028Y129483D01*
X314117Y129353D01*
X314225Y129238D01*
X314350Y129142D01*
X314489Y129070D01*
X315053Y128840D01*
X315639Y128671D01*
X316238Y128557D01*
X316845Y128500D01*
X317152D01*
Y112000D01*
X311894D01*
Y131771D01*
X311925Y131762D01*
X312082Y131742D01*
X312240Y131746D01*
X312396Y131776D01*
X312545Y131829D01*
X312683Y131905D01*
X312809Y132001D01*
X312917Y132116D01*
X313006Y132247D01*
X313074Y132390D01*
X313119Y132542D01*
X313139Y132699D01*
X313134Y132857D01*
X313105Y133012D01*
X313049Y133160D01*
X312890Y133550D01*
X312773Y133955D01*
X312694Y134369D01*
X312655Y134789D01*
Y135211D01*
X312694Y135631D01*
X312773Y136045D01*
X312890Y136450D01*
X313044Y136842D01*
X313100Y136989D01*
X313129Y137144D01*
X313134Y137301D01*
X313114Y137457D01*
X313069Y137608D01*
X313002Y137751D01*
X312913Y137881D01*
X312805Y137995D01*
X312681Y138091D01*
X312543Y138167D01*
X312394Y138220D01*
X312240Y138249D01*
X312082Y138253D01*
X311926Y138233D01*
X311894Y138224D01*
Y156000D01*
G37*
G36*
X293000D02*X311894D01*
Y138224D01*
X311775Y138189D01*
X311633Y138122D01*
X311503Y138033D01*
X311388Y137925D01*
X311292Y137800D01*
X311220Y137661D01*
X310990Y137097D01*
X310821Y136511D01*
X310707Y135912D01*
X310650Y135305D01*
Y134695D01*
X310707Y134088D01*
X310821Y133489D01*
X310990Y132904D01*
X311213Y132336D01*
X311288Y132197D01*
X311385Y132072D01*
X311500Y131963D01*
X311630Y131874D01*
X311773Y131806D01*
X311894Y131771D01*
Y112000D01*
X293000D01*
Y156000D01*
G37*
G36*
X324500Y74500D02*X311964D01*
Y80564D01*
X312049Y80589D01*
X312155Y80639D01*
X312253Y80706D01*
X312339Y80787D01*
X312411Y80880D01*
X312466Y80984D01*
X312641Y81412D01*
X312770Y81855D01*
X312857Y82309D01*
X312900Y82769D01*
Y83231D01*
X312857Y83691D01*
X312770Y84145D01*
X312641Y84588D01*
X312471Y85018D01*
X312415Y85122D01*
X312342Y85216D01*
X312255Y85297D01*
X312157Y85364D01*
X312050Y85414D01*
X311964Y85440D01*
Y105000D01*
X324500D01*
Y74500D01*
G37*
G36*
X311964D02*X308002D01*
Y78100D01*
X308231D01*
X308691Y78143D01*
X309145Y78230D01*
X309588Y78359D01*
X310018Y78529D01*
X310122Y78585D01*
X310216Y78658D01*
X310297Y78745D01*
X310364Y78843D01*
X310414Y78950D01*
X310448Y79064D01*
X310462Y79182D01*
X310459Y79300D01*
X310436Y79417D01*
X310396Y79528D01*
X310339Y79632D01*
X310266Y79726D01*
X310180Y79807D01*
X310082Y79874D01*
X309975Y79925D01*
X309861Y79958D01*
X309743Y79973D01*
X309624Y79969D01*
X309508Y79947D01*
X309397Y79904D01*
X309101Y79783D01*
X308793Y79694D01*
X308479Y79634D01*
X308160Y79604D01*
X308002D01*
Y86396D01*
X308160D01*
X308479Y86366D01*
X308793Y86306D01*
X309101Y86217D01*
X309399Y86099D01*
X309509Y86057D01*
X309625Y86035D01*
X309743Y86031D01*
X309860Y86046D01*
X309973Y86079D01*
X310080Y86129D01*
X310178Y86196D01*
X310264Y86276D01*
X310336Y86370D01*
X310393Y86473D01*
X310433Y86584D01*
X310455Y86700D01*
X310459Y86818D01*
X310444Y86935D01*
X310411Y87049D01*
X310361Y87155D01*
X310294Y87253D01*
X310213Y87339D01*
X310120Y87411D01*
X310016Y87466D01*
X309588Y87641D01*
X309145Y87770D01*
X308691Y87857D01*
X308231Y87900D01*
X308002D01*
Y103002D01*
X310000Y105000D01*
X311964D01*
Y85440D01*
X311936Y85448D01*
X311818Y85462D01*
X311700Y85459D01*
X311583Y85437D01*
X311472Y85396D01*
X311368Y85339D01*
X311274Y85266D01*
X311193Y85180D01*
X311126Y85082D01*
X311075Y84975D01*
X311042Y84861D01*
X311027Y84743D01*
X311031Y84624D01*
X311053Y84508D01*
X311096Y84397D01*
X311217Y84101D01*
X311306Y83793D01*
X311366Y83479D01*
X311396Y83160D01*
Y82840D01*
X311366Y82521D01*
X311306Y82207D01*
X311217Y81899D01*
X311099Y81601D01*
X311057Y81491D01*
X311035Y81375D01*
X311031Y81257D01*
X311046Y81140D01*
X311079Y81027D01*
X311129Y80920D01*
X311196Y80822D01*
X311276Y80736D01*
X311370Y80664D01*
X311473Y80607D01*
X311584Y80567D01*
X311700Y80545D01*
X311818Y80541D01*
X311935Y80556D01*
X311964Y80564D01*
Y74500D01*
G37*
G36*
X308002D02*X304036D01*
Y80560D01*
X304064Y80552D01*
X304182Y80538D01*
X304300Y80541D01*
X304417Y80564D01*
X304528Y80604D01*
X304632Y80661D01*
X304726Y80734D01*
X304807Y80820D01*
X304874Y80918D01*
X304925Y81025D01*
X304958Y81139D01*
X304973Y81257D01*
X304969Y81376D01*
X304947Y81492D01*
X304904Y81603D01*
X304783Y81899D01*
X304694Y82207D01*
X304634Y82521D01*
X304604Y82840D01*
Y83160D01*
X304634Y83479D01*
X304694Y83793D01*
X304783Y84101D01*
X304901Y84399D01*
X304943Y84509D01*
X304965Y84625D01*
X304969Y84743D01*
X304954Y84860D01*
X304921Y84973D01*
X304871Y85080D01*
X304804Y85178D01*
X304724Y85264D01*
X304630Y85336D01*
X304527Y85393D01*
X304416Y85433D01*
X304300Y85455D01*
X304182Y85459D01*
X304065Y85444D01*
X304036Y85436D01*
Y99036D01*
X308002Y103002D01*
Y87900D01*
X307769D01*
X307309Y87857D01*
X306855Y87770D01*
X306412Y87641D01*
X305982Y87471D01*
X305878Y87415D01*
X305784Y87342D01*
X305703Y87255D01*
X305636Y87157D01*
X305586Y87050D01*
X305552Y86936D01*
X305538Y86818D01*
X305541Y86700D01*
X305563Y86583D01*
X305604Y86472D01*
X305661Y86368D01*
X305734Y86274D01*
X305820Y86193D01*
X305918Y86126D01*
X306025Y86075D01*
X306139Y86042D01*
X306257Y86027D01*
X306376Y86031D01*
X306492Y86053D01*
X306603Y86096D01*
X306899Y86217D01*
X307207Y86306D01*
X307521Y86366D01*
X307840Y86396D01*
X308002D01*
Y79604D01*
X307840D01*
X307521Y79634D01*
X307207Y79694D01*
X306899Y79783D01*
X306601Y79901D01*
X306491Y79943D01*
X306375Y79965D01*
X306257Y79969D01*
X306140Y79954D01*
X306027Y79921D01*
X305920Y79871D01*
X305822Y79804D01*
X305736Y79724D01*
X305664Y79630D01*
X305607Y79527D01*
X305567Y79416D01*
X305545Y79300D01*
X305541Y79182D01*
X305556Y79065D01*
X305589Y78951D01*
X305639Y78845D01*
X305706Y78747D01*
X305787Y78661D01*
X305880Y78589D01*
X305984Y78534D01*
X306412Y78359D01*
X306855Y78230D01*
X307309Y78143D01*
X307769Y78100D01*
X308002D01*
Y74500D01*
G37*
G36*
X304036D02*X301000D01*
Y96000D01*
X304036Y99036D01*
Y85436D01*
X303951Y85411D01*
X303845Y85361D01*
X303747Y85294D01*
X303661Y85213D01*
X303589Y85120D01*
X303534Y85016D01*
X303359Y84588D01*
X303230Y84145D01*
X303143Y83691D01*
X303100Y83231D01*
Y82769D01*
X303143Y82309D01*
X303230Y81855D01*
X303359Y81412D01*
X303529Y80982D01*
X303585Y80878D01*
X303658Y80784D01*
X303745Y80703D01*
X303843Y80636D01*
X303950Y80586D01*
X304036Y80560D01*
Y74500D01*
G37*
G36*
X291500Y115000D02*X311000D01*
Y112000D01*
X298000Y99000D01*
X291500D01*
Y115000D01*
G37*
G54D12*X282000Y279500D02*X300000D01*
X278100Y287700D02*Y298143D01*
G54D13*X285900Y287700D02*X281800Y283600D01*
X273000D01*
X257000Y290000D02*X266600D01*
X273000Y283600D01*
X267500Y273000D02*X275500D01*
X282000Y279500D01*
X248000Y270500D02*X252500D01*
X255000Y273000D01*
X260414D01*
X248000Y276000D02*X252500D01*
X257000Y280500D01*
Y290000D01*
X296500Y212500D02*X310000D01*
X315000Y217500D01*
Y224500D01*
X316500Y226000D01*
X308000Y222500D02*Y237000D01*
X311000Y240000D01*
X232000Y270500D02*X233500Y272000D01*
Y276000D01*
G54D14*X364500Y316000D02*X361000D01*
X360000Y317000D01*
Y330000D01*
X364500Y319000D02*Y324500D01*
X360000Y330000D02*X361500Y331500D01*
X365500D01*
X372000Y337000D02*X365000D01*
X364000Y338000D01*
Y343000D01*
X364500Y324500D02*X365500Y325500D01*
X370500D01*
X371500Y326500D01*
Y331500D01*
X373000Y343000D02*Y338000D01*
X372000Y337000D01*
X217000Y307000D02*X228000D01*
X231000Y304000D01*
Y298500D01*
X229000Y280500D02*X231000Y282500D01*
Y301000D01*
X223000Y280000D02*X228500D01*
X230000Y281500D01*
G54D15*X257000Y300000D02*X241000D01*
G54D14*X387000Y221000D02*Y316500D01*
X385000Y314000D02*Y226500D01*
X384500Y217500D02*X387000Y220000D01*
Y222500D01*
X385000Y224000D02*Y228500D01*
X387000Y316500D02*X384500Y319000D01*
X383000Y316000D02*X385000Y314000D01*
X384500Y319000D02*X371500D01*
Y316000D02*X383000D01*
X375500Y240000D02*X373500Y238000D01*
X380000Y211500D02*X376500Y215000D01*
X375500Y213000D02*X378000Y210500D01*
Y208500D01*
X376500Y215000D02*X377500Y214000D01*
X378000Y217500D02*X384500D01*
X378000Y222500D02*X383500D01*
X365000Y216500D02*X368500Y213000D01*
X375500D01*
X371000Y216000D02*X372000Y215000D01*
X376500D01*
X365000Y216500D02*X366500Y215000D01*
X365000Y219000D02*Y216500D01*
G54D13*X328000Y212500D02*X335500D01*
G54D12*X321000D02*Y221000D01*
X326500D01*
G54D13*X316500Y226000D02*X334500D01*
X338000Y222500D01*
Y215000D02*Y222500D01*
X335500Y212500D02*X338000Y215000D01*
X342500D01*
X345000Y217500D01*
X347500D01*
G54D16*X357500D02*X345500D01*
G54D14*X357500Y232500D02*X351500D01*
X357500Y227500D02*X362000D01*
X363000Y228500D01*
X351500Y232500D02*X349500Y230500D01*
Y221500D01*
X351000Y220000D01*
X364000D01*
X365000Y219000D01*
X357500Y222500D02*X363500D01*
X365000Y224000D01*
X363000Y228500D02*Y232000D01*
X365000Y224000D02*Y233000D01*
X368000Y236000D01*
X378500D01*
X363000Y233500D02*Y231000D01*
X373500Y238000D02*X367500D01*
G54D13*X311000Y240000D02*X364500D01*
G54D14*X367500Y238000D02*X363000Y233500D01*
X383500Y222500D02*X385000Y224000D01*
X378000Y227500D02*X372500D01*
X371000Y226000D01*
Y216000D01*
X373000Y232500D02*X370500Y230000D01*
X377500Y232500D02*X373000D01*
X378500Y236000D02*X380000Y237500D01*
Y240000D01*
G54D13*X187500Y153500D02*Y121500D01*
Y150500D02*Y186500D01*
Y121500D02*X190000Y119000D01*
G54D12*X138600Y127600D02*X139000Y128000D01*
G54D13*X184000Y119500D02*Y152000D01*
X168000Y168000D02*X159250D01*
G54D14*X170000Y180000D02*X168000Y178000D01*
X159500D01*
X174000Y162000D02*X170000Y158000D01*
X159500D01*
G54D13*X168000Y148000D02*X159250D01*
G54D14*X159500Y153000D02*X152500D01*
X159500Y163000D02*X152000D01*
X159500Y173000D02*X151500D01*
G54D13*X180000Y223250D02*Y266500D01*
Y270500D02*Y264000D01*
X185000Y223250D02*Y267500D01*
G54D12*X173400Y242000D02*Y284400D01*
X173500Y284500D01*
G54D17*X163500D02*Y272000D01*
G54D14*X180500Y299000D02*X173500D01*
G54D13*X227000Y276000D02*X185500D01*
X180000Y270500D01*
X185000Y267500D02*X188000Y270500D01*
X232000D01*
X208000Y276000D03*
X194000Y283500D02*X200914D01*
X225000Y285500D02*X217500D01*
X210000Y293000D02*X147000D01*
G54D14*X220000D02*X225000D01*
X224000Y280000D02*X216000D01*
X166500Y299000D02*X151000D01*
X134000D02*X147000D01*
X151000D02*X147500Y302500D01*
X147000Y299000D02*X149000Y301000D01*
X132500Y271000D02*Y297500D01*
X134000Y299000D01*
X128000Y278000D02*X129000Y279000D01*
Y301500D01*
X132500Y273000D02*Y259000D01*
X128000Y254500D01*
G54D13*X208000Y283500D02*Y276000D01*
X217500Y285500D02*X210000Y293000D01*
G54D14*X213000Y300000D02*X220000Y293000D01*
X205500Y303000D02*X213000D01*
X217000Y307000D01*
X198500Y303000D02*X194500D01*
X193500Y302000D01*
Y293000D01*
X198500Y300000D02*X193500D01*
X213000D02*X202500D01*
X202000Y300500D01*
Y305000D01*
X202500Y305500D01*
X211000D01*
X213500Y330000D02*X189500D01*
X212000Y328000D02*X189000D01*
X217000Y307000D02*Y326500D01*
X213500Y330000D01*
X211000Y305500D02*X215000Y309500D01*
Y325000D01*
X212000Y328000D01*
X186500Y336000D02*Y332500D01*
X189000Y330000D01*
X191000D01*
X192000Y328000D02*X187000D01*
X183000Y332000D01*
X186500Y335000D02*Y341500D01*
X188500Y328000D02*Y320000D01*
X183000Y332000D02*Y338500D01*
X147500Y302500D02*Y313000D01*
G54D18*X147000Y357500D02*X169500D01*
X133500D02*X150500D01*
G54D12*X142500Y347500D02*Y357500D01*
G54D15*X132500Y347500D02*X142500D01*
G54D12*X128000Y370000D02*Y357500D01*
G54D13*X164250Y223250D02*X163000Y222000D01*
G54D14*X175000Y232500D02*Y223250D01*
G54D13*Y194000D02*X184000Y185000D01*
G54D14*X170000Y190000D02*Y180000D01*
Y193500D02*X174000Y189500D01*
Y162000D01*
G54D13*X184000Y185000D02*Y145000D01*
X185000Y202750D02*Y213000D01*
X180000Y194000D02*Y202750D01*
X187500Y186500D02*X180000Y194000D01*
X175000Y202750D02*Y194000D01*
G54D14*X164000Y203000D02*Y197500D01*
Y199500D02*Y196000D01*
X170000Y190000D01*
Y203500D02*Y193500D01*
X131000Y168000D02*X139250D01*
Y158000D02*X128000D01*
X130000Y163000D02*X139250D01*
G54D13*X190000Y119000D02*X230500D01*
X234000Y115500D01*
X228500D02*X188000D01*
X184000Y119500D01*
X234000Y115500D02*Y81000D01*
Y81500D02*Y66500D01*
X233500Y66000D01*
X230500Y71500D02*Y113500D01*
X228500Y115500D01*
Y69500D02*X230500Y71500D01*
G54D12*X209500Y75500D02*X224900D01*
X225000Y75600D01*
G54D13*X228500Y60500D02*Y69500D01*
Y60500D02*X222500D01*
X219500Y63500D01*
X210500D01*
X197500D02*X203414D01*
X278500Y79500D02*X264000D01*
X278500Y71700D02*X282600Y75800D01*
Y90700D01*
X269500Y79500D02*X257500D01*
X257000Y80000D01*
Y70500D02*Y80000D01*
X286700Y75600D02*X294900D01*
X300500Y70000D01*
X266500Y62500D02*X301500D01*
X248000Y66000D02*X252500D01*
X257000Y70500D01*
X260414Y62500D02*X255000D01*
X253000Y60500D01*
X248000D01*
G54D18*X257000Y90000D02*X242000D01*
G54D13*X299500Y4500D02*X170500D01*
X167000Y8000D01*
X182800Y20000D02*Y9200D01*
X183000Y9000D01*
X172000Y14000D02*X175000Y17000D01*
Y20000D01*
X167000Y8000D02*Y26000D01*
X169000Y28000D01*
X175000D01*
X308000Y13000D02*X299500Y4500D01*
G54D14*X187500Y26000D02*X186000Y24500D01*
X180500D01*
X179000Y23000D01*
Y20500D01*
G54D12*X128500Y83000D02*Y53000D01*
X148500Y83000D02*Y53000D01*
X168500Y83000D02*Y53000D01*
G54D14*X174000Y93000D02*X95500D01*
X174500Y95000D02*X96500D01*
G54D12*X112000Y27500D02*Y38000D01*
X116500Y42500D01*
X145500D01*
X148500Y45500D01*
Y53500D01*
X168500Y52500D02*Y44000D01*
X152000Y27500D01*
G54D13*X182800Y28200D02*Y34300D01*
X183000Y34500D01*
G54D14*X181000Y43000D02*X187500Y36500D01*
Y26000D01*
X179000Y28000D02*Y88000D01*
X174000Y93000D01*
X174500Y95000D02*X181000Y88500D01*
Y43000D01*
G54D12*X190500Y80500D02*Y70500D01*
G54D14*X365500Y118000D02*Y134500D01*
X367000Y136000D01*
X371500D01*
Y118000D02*Y133000D01*
X378500D02*X376000D01*
X375000Y134000D01*
Y139000D01*
X378000Y142000D01*
G54D13*X362000Y145000D02*X366000D01*
X365000D02*X372000D01*
G54D14*X378500Y136000D02*Y139500D01*
X380000Y141000D01*
X364000Y105500D02*Y110500D01*
X365500Y112000D01*
X371500D01*
X373000Y110500D01*
Y106000D01*
X378000Y142000D02*Y210000D01*
X380000Y141000D02*Y211500D01*
G54D13*X326000Y162000D02*X353457D01*
X360500Y161000D02*X366500D01*
X370000Y157500D01*
G54D12*X42000Y83000D02*Y53000D01*
X82000Y83000D02*Y53000D01*
X62000Y83000D02*Y37500D01*
X52000Y27500D01*
X82000Y53500D02*Y37500D01*
X92000Y27500D01*
G54D13*X20500Y91500D02*X12000Y83000D01*
X20500Y91500D02*X61500D01*
G54D14*X62500Y146000D02*Y119000D01*
X64500Y145000D02*Y111500D01*
X66500Y143500D02*Y107000D01*
Y108000D02*Y102500D01*
X68000Y101000D01*
X62500Y119000D02*X58000Y114500D01*
X64500Y111500D02*X57500Y104500D01*
X58000Y114500D02*X50950D01*
X57500Y104500D02*X50950D01*
X70000Y114000D02*X68500Y115500D01*
Y143000D01*
X70500Y117500D02*Y142000D01*
X72500Y119000D02*Y141000D01*
X29000Y101800D02*X28900Y101700D01*
X68000Y101000D02*X72000D01*
G54D13*X61500Y91500D02*X67000Y97000D01*
X72500D01*
X80500Y92000D02*Y96500D01*
G54D14*Y101000D02*X77500D01*
G54D13*X80500Y104800D02*X84700D01*
X86000Y103500D01*
Y95500D01*
X98500Y83000D01*
G54D14*X95500Y93000D02*X90500Y98000D01*
Y106500D01*
X92500Y99000D02*Y107500D01*
X96500Y95000D02*X92500Y99000D01*
G54D13*X72000Y109500D02*Y105000D01*
G54D14*X77500Y101000D02*X76500Y102000D01*
Y111000D01*
X73500Y114000D01*
X70000D01*
X90500Y106500D02*X81000Y116000D01*
X72000D01*
X70500Y117500D01*
X92500Y107500D02*X82000Y118000D01*
X97000Y131500D02*X93500Y135000D01*
X82000Y118000D02*X73500D01*
X72500Y119000D01*
X64000Y209000D02*X63000Y210000D01*
X63250Y207250D02*X61000Y209500D01*
X57721Y206023D02*Y207279D01*
X55000Y210000D01*
X95279Y193425D02*X102075D01*
X95279Y196575D02*X109968D01*
X110000Y196543D01*
G54D13*Y202000D02*Y196500D01*
G54D14*X95279Y199725D02*X100725D01*
X103000Y202000D01*
X102075Y193425D02*X106000Y189500D01*
X109957D01*
X95279Y183977D02*X115023D01*
X119000Y180000D01*
X87524Y176221D02*X109779D01*
X112500Y181000D02*X113000Y180500D01*
X95279Y187126D02*X86374D01*
X90000Y204000D02*Y201000D01*
X88500Y199500D01*
X86500D01*
X57575Y196575D02*X67925D01*
X57575D02*X54425D01*
X57275Y190275D02*X67275D01*
X57725D02*X46725D01*
X57724Y199724D02*X62724D01*
X63500Y200500D01*
Y204000D01*
X46725Y190275D02*X44500Y192500D01*
X54425Y196575D02*X49000Y202000D01*
Y206000D01*
X48000Y207000D01*
X44586D01*
X44500Y206914D01*
X39000Y202000D02*Y200000D01*
X39500Y199500D01*
X45000D01*
X75750Y207250D02*X63250D01*
X72500Y209000D02*X77000D01*
X78000Y210000D01*
X75250Y207250D02*X79750D01*
X81000Y208500D01*
X81224Y208724D02*X80500Y208000D01*
X95279Y202874D02*X98874D01*
X95279Y206024D02*X92024D01*
X90000Y204000D01*
X100000D02*X99000Y203000D01*
X87523Y207523D02*X82500Y202500D01*
X84374Y208874D02*X79500Y204000D01*
X73500D01*
X76500D02*X68500D01*
X65477Y176221D02*Y151977D01*
X60500Y147000D01*
Y127000D01*
X58000Y124500D01*
X50950D01*
X68626Y176221D02*Y152126D01*
X71776Y176221D02*Y152276D01*
X78075Y176221D02*Y155075D01*
X81225Y176221D02*Y155725D01*
X78000Y152500D01*
X68626Y152126D02*X62500Y146000D01*
X71776Y152276D02*X64500Y145000D01*
X78075Y155075D02*X66500Y143500D01*
X68500Y143000D02*X81000Y155500D01*
X70500Y142000D02*X84500Y156000D01*
Y158000D01*
X88000Y156500D02*Y162000D01*
X86500Y166500D02*X86000Y167000D01*
X72500Y141000D02*X88000Y156500D01*
X109957Y189500D02*X110000Y189457D01*
X109779Y176221D02*X114000Y172000D01*
X75000Y180000D02*X76000Y181000D01*
X112500D01*
G54D13*X126000Y178000D02*X138000D01*
G54D14*X119000Y180000D02*Y167000D01*
G54D13*X124000Y172000D02*Y176000D01*
X126000Y178000D01*
G54D14*Y167000D02*X130000Y163000D01*
X119000Y167000D02*X114000Y162000D01*
X128000Y158000D02*X124000Y162000D01*
X119000Y167000D02*X126000D01*
X124000Y162000D02*X119000Y157000D01*
X105000D02*X95500Y166500D01*
X86500D01*
X119000Y157000D02*X105000D01*
X84374Y176221D02*Y168626D01*
X86500Y166500D01*
X75000Y176000D02*Y180000D01*
X93500Y135000D02*Y162000D01*
G54D12*X121200Y127600D02*X138600D01*
G54D14*X113000Y131500D02*X97000D01*
G54D15*X77500Y347500D02*X87500D01*
G54D18*Y353000D01*
X137000Y357500D02*X92000D01*
X87500Y353000D01*
X156000Y347500D02*X146000Y337500D01*
X59000Y361500D02*Y376000D01*
X63500Y380500D01*
X95000D01*
X98000Y377500D01*
Y357500D01*
G54D14*X64500Y354000D02*X71000D01*
X72500Y352500D01*
G54D18*X56000Y358500D02*X59000Y361500D01*
X27500Y345000D02*Y354000D01*
X32000Y358500D01*
G54D12*X47000Y317500D02*Y315500D01*
G54D18*X32000Y358500D02*X56000D01*
G54D14*X62500Y344000D02*Y352000D01*
X64500Y354000D01*
X62500Y344000D02*X61000Y342500D01*
X58000D01*
X53000Y337500D01*
G54D12*X62500D02*Y326500D01*
X68500Y320500D01*
X51500Y326000D02*X63000D01*
X59000Y317500D02*X63000Y313500D01*
X69000D01*
G54D13*X67500Y330500D02*Y333500D01*
X69000Y313500D02*X81000D01*
X82500Y315000D01*
Y320500D01*
X87500Y321500D02*Y314000D01*
X89000Y312500D01*
X100500D01*
G54D18*X182500Y347500D02*X156000D01*
X146000Y337500D02*X137500D01*
G54D13*X125000Y331000D02*X127500Y333500D01*
Y337500D01*
X121500Y330500D02*Y321500D01*
G54D14*X72500Y352500D02*Y345000D01*
G54D13*X67500Y340500D02*Y347500D01*
G54D14*Y334500D01*
G54D13*Y332000D02*Y334500D01*
X70500Y327500D02*X67500Y330500D01*
G54D14*X72500Y345000D02*X75000Y342500D01*
X102500D01*
X107500Y337500D01*
G54D13*X72500Y334000D02*X75500Y331000D01*
X125000D01*
X72500Y334000D02*Y337500D01*
X86000Y327500D02*X70500D01*
X92500Y320000D02*Y330500D01*
X87500Y320500D02*Y326000D01*
X86000Y327500D01*
G54D12*X47000Y315500D02*X42500Y311000D01*
X13000D01*
G54D13*X11000Y272500D02*Y290000D01*
X31500Y272500D02*Y276500D01*
X26000Y282000D01*
X18000Y272500D02*X22000D01*
G54D14*X5000Y300500D02*Y265500D01*
X7000Y263500D01*
G54D13*X22000Y272500D02*X28000Y266500D01*
X35500D02*X28000D01*
X26500Y268000D01*
G54D14*X7000Y263500D02*X39000D01*
X38500D02*X39500D01*
X33500Y283500D02*X31500Y285500D01*
Y300500D01*
X28500Y303500D01*
G54D13*X11000Y290000D02*X16000Y295000D01*
X25000D01*
G54D14*X28500Y303500D02*X8000D01*
X5000Y300500D01*
X37000Y283500D02*X33500D01*
G54D13*X44500Y274500D02*X42500Y272500D01*
X50500Y280500D02*X43500Y273500D01*
G54D14*X53000Y275500D02*X41000Y263500D01*
G54D13*X42500Y272500D02*X38500D01*
Y269500D01*
X35500Y266500D01*
G54D14*X41000Y263500D02*X37000D01*
X9500Y229000D02*X6000Y225500D01*
X10500Y227000D02*X8000Y224500D01*
X9500Y229000D02*X8500Y228000D01*
X10500Y227000D02*X42500D01*
X9500Y229000D02*X43000D01*
X45250Y226750D01*
X21476Y183976D02*X18500Y181000D01*
G54D13*X27000Y174500D02*X33543D01*
X34000Y174957D01*
G54D14*X29476Y183976D02*X21476D01*
X20500Y183000D01*
X18500Y181000D02*Y167783D01*
Y190000D02*Y203217D01*
X21374Y187126D02*X18500Y190000D01*
G54D13*X27000Y196000D02*X33957D01*
X34000Y196043D01*
G54D14*X30000Y187126D02*X21374D01*
X20500Y188000D01*
X6000Y225500D02*Y153000D01*
X8000Y224500D02*Y154500D01*
G54D13*X110500Y291500D02*Y296500D01*
G54D14*Y303000D02*X122000Y291500D01*
G54D13*X110500Y296500D02*X108000Y299000D01*
X104500D01*
G54D14*X122000Y278000D02*X128000D01*
X122000Y291500D02*Y281000D01*
X110500Y311500D02*Y303000D01*
G54D13*X100500Y312500D02*X102000Y311000D01*
Y301500D01*
X104500Y299000D01*
G54D14*X115000Y281000D02*X112000D01*
X110000Y279000D01*
X115000Y272000D02*Y278000D01*
X87500Y301000D02*Y295500D01*
X82500Y300000D02*Y295500D01*
X79500Y292500D01*
X87500Y295500D02*X85000Y293000D01*
Y289000D01*
X79500Y292500D02*Y286000D01*
X87500Y300000D02*Y307500D01*
G54D13*X76500Y289500D02*Y313500D01*
Y291000D02*Y273500D01*
G54D14*X79500Y280500D02*Y277500D01*
G54D13*X76500Y273500D02*X80000Y270000D01*
G54D14*X79500Y277500D02*X82500Y274500D01*
X89500Y289500D02*Y283000D01*
X88500Y282000D01*
X85500D01*
X92500Y300500D02*Y292500D01*
X89500Y289500D01*
X97500Y300500D02*Y288000D01*
X93500D01*
X85000Y262500D02*Y282000D01*
G54D13*X80000Y270000D02*Y262500D01*
G54D14*X79500Y279500D02*Y288000D01*
G54D13*X80000Y263500D02*Y256000D01*
G54D14*X83500D02*X82500Y257000D01*
Y274500D01*
X93500Y288000D02*X92000Y286500D01*
Y281500D01*
X100000Y274500D02*X98500Y276000D01*
Y281000D01*
X92000Y273500D02*Y283000D01*
X90000Y262500D02*Y271500D01*
X92000Y273500D01*
G54D13*X105000Y262500D02*Y271500D01*
G54D14*X93500Y256000D02*X83500D01*
G54D13*X80000D02*X82500Y253500D01*
X108500D01*
G54D14*X100000Y274500D02*Y253500D01*
X110000Y279000D02*Y262500D01*
X95000Y263000D02*Y257500D01*
X93500Y256000D01*
G54D13*X110000Y262500D02*Y253500D01*
X50500Y280500D02*X76500D01*
G54D14*X67500Y275500D02*X53000D01*
X85000Y233000D02*Y242000D01*
Y232000D02*Y233500D01*
X80000Y242250D02*Y248000D01*
X82000Y250000D01*
X90000Y231000D02*X86500Y227500D01*
X82500Y229500D02*X85000Y232000D01*
X92000Y225500D02*X95000Y228500D01*
X90000Y242000D02*Y231000D01*
X95000Y228500D02*Y242000D01*
X97500Y226500D02*Y247000D01*
X98500Y248000D01*
X101500D01*
X102500Y247000D01*
X82000Y250000D02*X108000D01*
X110000Y248000D01*
Y242250D01*
X100000Y242000D02*Y204000D01*
X94500Y223500D02*X97500Y226500D01*
X105000Y235000D02*Y233000D01*
X107000Y231000D01*
X110000D01*
X104500Y229500D02*Y219000D01*
X107000Y216500D01*
X121000D01*
X84374Y213779D02*Y208874D01*
X121000Y185000D02*Y216500D01*
X103000Y202000D02*Y216000D01*
X63000Y224500D02*Y247000D01*
X61000Y209500D02*Y243500D01*
X57500Y247000D01*
X52500D02*Y246000D01*
X57000Y241500D01*
Y224000D01*
X105000Y242500D02*Y234500D01*
X102500Y247000D02*Y231500D01*
X104500Y229500D01*
G54D13*X107000Y253500D02*X119500D01*
G54D14*X57721Y183976D02*X26976D01*
X57721Y187126D02*X26874D01*
X51000Y203000D02*X54000Y200000D01*
X57721Y193425D02*X51075D01*
X49000Y195500D01*
Y198500D01*
X48000Y199500D01*
X44586D01*
X57721Y199724D02*X54276D01*
X53500Y200500D01*
X57721Y202874D02*X54126D01*
X6000Y153000D02*X8500Y150500D01*
X8000Y154500D02*X10000Y152500D01*
X8500Y150500D02*X49500D01*
X10000Y152500D02*X55500D01*
X49500Y150500D02*X51000Y149000D01*
Y144550D01*
X50950Y144500D01*
X55500Y152500D02*X57500Y150500D01*
Y135500D01*
X56500Y134500D01*
X50950D01*
X68500Y225000D02*Y213905D01*
X63000Y210000D02*Y225500D01*
X61000Y226500D02*Y224500D01*
X65500Y213803D02*Y226000D01*
X44500Y214000D02*X48500D01*
X53000Y216500D02*X42500Y227000D01*
X43500Y226000D01*
X55000Y217000D02*X44500Y227500D01*
X57000Y220500D02*Y226500D01*
X48500Y214000D02*X51000Y211500D01*
Y203000D01*
X53000Y204000D02*Y210000D01*
X54126Y202874D02*X53000Y204000D01*
Y209500D02*Y216500D01*
X55000Y210000D02*Y217000D01*
X65500Y213803D02*X65476Y213779D01*
X68500Y213905D02*X68626Y213779D01*
X73000Y209000D02*X64000D01*
X73500Y225500D02*X72000Y224000D01*
X71775Y213779D02*Y223775D01*
X73000Y225000D01*
X74925Y213779D02*Y221925D01*
X71000Y227500D02*X68500Y225000D01*
X65500Y226000D02*X69000Y229500D01*
X74925Y221925D02*X76500Y223500D01*
X86500Y227500D02*X71000D01*
X69000Y229500D02*X82500D01*
X73500Y225500D02*X92000D01*
X76500Y223500D02*X94500D01*
X78000Y210000D02*Y213704D01*
X78075Y213779D01*
X81224D02*Y208724D01*
X87523Y213779D02*Y207523D01*
G54D19*X87500Y347500D03*
X82500Y337500D03*
X72500D03*
X62500D03*
X52500D03*
X77500Y347500D03*
X67500D03*
X57500D03*
G54D20*X47500Y372500D03*
G54D21*X17000Y373000D03*
G54D17*X68000Y370000D03*
G54D11*G36*
X84000Y374000D02*Y366000D01*
X92000D01*
Y374000D01*
X84000D01*
G37*
G54D21*X17500Y17000D03*
G54D11*G36*
X48000Y31500D02*Y23500D01*
X56000D01*
Y31500D01*
X48000D01*
G37*
G54D17*X72000Y27500D03*
G54D11*G36*
X8600Y56400D02*Y49600D01*
X15400D01*
Y56400D01*
X8600D01*
G37*
G54D22*X12000Y83000D03*
X42000Y53000D03*
Y83000D03*
X62000Y53000D03*
Y83000D03*
X82000Y53000D03*
Y83000D03*
G54D23*X225000Y82800D03*
Y90000D03*
Y97200D03*
G54D24*X257000Y100000D03*
Y90000D03*
G54D11*G36*
X253063Y83937D02*Y76063D01*
X260937D01*
Y83937D01*
X253063D01*
G37*
G36*
X221750Y107650D02*Y101150D01*
X228250D01*
Y107650D01*
X221750D01*
G37*
G54D25*X241000Y140000D03*
G54D19*X142500Y347500D03*
X137500Y337500D03*
X132500Y347500D03*
G54D20*X147500Y372500D03*
G54D19*X127500Y337500D03*
X122500Y347500D03*
X117500Y337500D03*
X112500Y347500D03*
X107500Y337500D03*
G54D24*X153500Y284500D03*
X163500D03*
G54D11*G36*
X169563Y288437D02*Y280563D01*
X177437D01*
Y288437D01*
X169563D01*
G37*
G36*
X124000Y374000D02*Y366000D01*
X132000D01*
Y374000D01*
X124000D01*
G37*
G54D17*X108000Y370000D03*
G54D23*X225000Y75600D03*
G54D25*X241000Y40000D03*
G54D11*G36*
X88000Y31500D02*Y23500D01*
X96000D01*
Y31500D01*
X88000D01*
G37*
G54D17*X112000Y27500D03*
G54D11*G36*
X128000Y31500D02*Y23500D01*
X136000D01*
Y31500D01*
X128000D01*
G37*
G54D17*X152000Y27500D03*
G54D11*G36*
X95100Y56400D02*Y49600D01*
X101900D01*
Y56400D01*
X95100D01*
G37*
G54D22*X98500Y83000D03*
X128500Y53000D03*
Y83000D03*
X148500Y53000D03*
Y83000D03*
X168500Y53000D03*
Y83000D03*
G54D11*G36*
X146000Y131000D02*Y125000D01*
X152000D01*
Y131000D01*
X146000D01*
G37*
G54D15*X139000Y128000D03*
G54D11*G36*
X111000Y175000D02*Y169000D01*
X117000D01*
Y175000D01*
X111000D01*
G37*
G54D15*X114000Y162000D03*
Y152000D03*
X124000Y172000D03*
Y162000D03*
Y152000D03*
G54D11*G36*
X334600Y225900D02*Y219100D01*
X341400D01*
Y225900D01*
X334600D01*
G37*
G54D22*X338000Y252500D03*
Y272500D03*
Y292500D03*
X308000Y252500D03*
Y222500D03*
G54D26*X336000Y185000D03*
G54D27*X360000D03*
X348000Y204000D03*
G54D17*X368500Y83500D03*
G54D28*X336850Y135000D03*
G54D11*G36*
X364500Y67500D02*Y59500D01*
X372500D01*
Y67500D01*
X364500D01*
G37*
G54D21*X373000Y17000D03*
G54D11*G36*
X334600Y16400D02*Y9600D01*
X341400D01*
Y16400D01*
X334600D01*
G37*
G54D22*X338000Y43000D03*
Y63000D03*
G54D28*X317150Y135000D03*
G54D22*X338000Y83000D03*
X308000D03*
Y63000D03*
Y43000D03*
Y13000D03*
Y292500D03*
G54D11*G36*
X364500Y276000D02*Y268000D01*
X372500D01*
Y276000D01*
X364500D01*
G37*
G54D17*X368500Y292000D03*
G54D22*X308000Y272500D03*
G54D25*X241000Y250000D03*
G54D21*X373000Y373000D03*
G54D28*X335850Y345000D03*
X316150D03*
G54D23*X225000Y285600D03*
Y292800D03*
Y300000D03*
Y307200D03*
G54D11*G36*
X221750Y317650D02*Y311150D01*
X228250D01*
Y317650D01*
X221750D01*
G37*
G54D25*X241000Y350000D03*
G54D24*X257000Y310000D03*
Y300000D03*
G54D11*G36*
X253063Y293937D02*Y286063D01*
X260937D01*
Y293937D01*
X253063D01*
G37*
G54D29*X204413Y299925D02*X206283D01*
G54D30*X200914Y283893D02*Y283107D01*
X208000Y283893D02*Y283107D01*
G54D29*X204413Y303075D02*X206283D01*
X197717D02*X199587D01*
G54D31*X178760Y367500D02*X185413D01*
X164587Y357500D02*X171240D01*
X178760Y347500D02*X185413D01*
X164587Y337500D02*X171240D01*
G54D29*X197717Y299925D02*X199587D01*
G54D30*X166457Y299393D02*Y298607D01*
X173543Y299393D02*Y298607D01*
X147107Y319543D02*X147893D01*
X147107Y312457D02*X147893D01*
G54D29*X363717Y319075D02*X365587D01*
X363717Y315925D02*X365587D01*
X370413D02*X372283D01*
X370413Y319075D02*X372283D01*
G54D32*X371450Y343700D02*Y342100D01*
X365550Y343700D02*Y342100D01*
X371450Y331900D02*Y330300D01*
X365550Y331900D02*Y330300D01*
G54D30*X203414Y63893D02*Y63107D01*
X210500Y63893D02*Y63107D01*
G54D33*X175000Y20800D02*Y19200D01*
X178900Y20800D02*Y19200D01*
X182800Y20800D02*Y19200D01*
Y29000D02*Y27400D01*
X178900Y29000D02*Y27400D01*
X175000Y29000D02*Y27400D01*
G54D32*X215500Y212500D02*Y203500D01*
X268500Y212500D02*Y203500D01*
X215500Y187000D02*Y177900D01*
X268500Y187000D02*Y177900D01*
G54D30*X260414Y273393D02*Y272607D01*
X267500Y273393D02*Y272607D01*
X278107Y299457D02*X278893D01*
X278107Y306543D02*X278893D01*
G54D34*X278100Y288000D02*Y287400D01*
X285900Y288000D02*Y287400D01*
G54D35*X319142Y309500D02*X319929D01*
X336071D02*X336858D01*
G54D34*X282000Y279800D02*Y279200D01*
G54D30*X328043Y212893D02*Y212107D01*
X320957Y212893D02*Y212107D01*
X260414Y62893D02*Y62107D01*
X267500Y62893D02*Y62107D01*
X282107Y89657D02*X282893D01*
X282107Y96743D02*X282893D01*
G54D34*X278200Y79500D02*X278800D01*
X278200Y71700D02*X278800D01*
X286400Y75600D02*X287000D01*
G54D35*X319142Y100500D02*X319929D01*
X336071D02*X336858D01*
G54D29*X370717Y136075D02*X372587D01*
X370717Y132925D02*X372587D01*
X377413D02*X379283D01*
X377413Y136075D02*X379283D01*
G54D30*X370319Y145095D02*X372681D01*
X360543Y161393D02*Y160607D01*
X370319Y156905D02*X372681D01*
X353457Y161393D02*Y160607D01*
G54D32*X365550Y106900D02*Y105300D01*
X371450Y106900D02*Y105300D01*
X365550Y118700D02*Y117100D01*
X371450Y118700D02*Y117100D01*
G54D36*X374500Y217500D02*X381000D01*
X374500Y222500D02*X381000D01*
X374500Y227500D02*X381000D01*
X374500Y232500D02*X381000D01*
X354000D02*X360500D01*
X354000Y227500D02*X360500D01*
X354000Y222500D02*X360500D01*
X354000Y217500D02*X360500D01*
G54D30*X162607Y214914D02*X163393D01*
X162607Y222000D02*X163393D01*
G54D36*X185000Y226500D02*Y220000D01*
X180000Y226500D02*Y220000D01*
X175000Y226500D02*Y220000D01*
X170000Y226500D02*Y220000D01*
X175000Y206000D02*Y199500D01*
X180000Y206000D02*Y199500D01*
X185000Y206000D02*Y199500D01*
G54D37*X160500Y242600D02*Y241400D01*
X173400Y242600D02*Y241400D01*
G54D30*X152457Y252893D02*Y252107D01*
X159543Y252893D02*Y252107D01*
X118607Y233457D02*X119393D01*
X120457Y216893D02*Y216107D01*
X127543Y216893D02*Y216107D01*
X104457Y224893D02*Y224107D01*
X111543Y224893D02*Y224107D01*
G54D36*X110000Y266000D02*Y259500D01*
X105000Y266000D02*Y259500D01*
X100000Y266000D02*Y259500D01*
G54D30*X117607Y261543D02*X118393D01*
G54D36*X95000Y266000D02*Y259500D01*
Y245500D02*Y239000D01*
X90000Y266000D02*Y259500D01*
Y245500D02*Y239000D01*
X85000Y266000D02*Y259500D01*
Y245500D02*Y239000D01*
X80000Y266000D02*Y259500D01*
X75000Y266000D02*Y259500D01*
Y245500D02*Y239000D01*
X80000Y245500D02*Y239000D01*
X100000Y245500D02*Y239000D01*
X105000Y245500D02*Y239000D01*
X110000Y245500D02*Y239000D01*
G54D30*X118607Y240543D02*X119393D01*
X117607Y254457D02*X118393D01*
G54D36*X170000Y206000D02*Y199500D01*
G54D30*X151914Y186893D02*Y186107D01*
X159000Y186893D02*Y186107D01*
X109607Y189457D02*X110393D01*
X109607Y196543D02*X110393D01*
G54D36*X136000Y178000D02*X142500D01*
X136000Y173000D02*X142500D01*
X136000Y168000D02*X142500D01*
X136000Y163000D02*X142500D01*
X136000Y158000D02*X142500D01*
X136000Y153000D02*X142500D01*
X136000Y148000D02*X142500D01*
X156500D02*X163000D01*
X156500Y153000D02*X163000D01*
X156500Y158000D02*X163000D01*
X156500Y163000D02*X163000D01*
X156500Y168000D02*X163000D01*
X156500Y173000D02*X163000D01*
X156500Y178000D02*X163000D01*
G54D30*X37405Y284681D02*Y282319D01*
Y296181D02*Y293819D01*
X25595Y284681D02*Y282319D01*
Y296181D02*Y293819D01*
G54D37*X27500Y345600D02*Y344400D01*
X14600Y345600D02*Y344400D01*
G54D30*X31457Y272893D02*Y272107D01*
X38543Y272893D02*Y272107D01*
X10957Y272893D02*Y272107D01*
X18043Y272893D02*Y272107D01*
G54D38*X7508Y322500D02*X13807D01*
X27193D02*X33492D01*
G54D39*X14450Y144500D02*X19650D01*
X14450Y134500D02*X19650D01*
X14450Y124500D02*X19650D01*
X14450Y114500D02*X19650D01*
X14450Y104500D02*X19650D01*
G54D40*X18500Y175657D02*Y159909D01*
G54D30*X44107Y192500D02*X44893D01*
X44107Y199586D02*X44893D01*
G54D40*X18500Y211091D02*Y195343D01*
G54D30*X44107Y206914D02*X44893D01*
X44107Y214000D02*X44893D01*
X33607Y188957D02*X34393D01*
X33607Y196043D02*X34393D01*
X33607Y182043D02*X34393D01*
X33607Y174957D02*X34393D01*
G54D41*X68626Y215992D02*Y211566D01*
X65476Y215992D02*Y211566D01*
G54D39*X48350Y144500D02*X53550D01*
X48350Y134500D02*X53550D01*
X48350Y124500D02*X53550D01*
X48350Y114500D02*X53550D01*
X48350Y104500D02*X53550D01*
G54D33*X79700Y97000D02*X81300D01*
X79700Y100900D02*X81300D01*
X79700Y104800D02*X81300D01*
X71500D02*X73100D01*
X71500Y100900D02*X73100D01*
X71500Y97000D02*X73100D01*
G54D30*X84607Y289043D02*X85393D01*
X84607Y281957D02*X85393D01*
X98107Y280957D02*X98893D01*
G54D11*G36*
X48275Y310665D02*X51115Y313505D01*
X52535Y312085D01*
X49695Y309245D01*
X48275Y310665D01*
G37*
G54D30*X98107Y288043D02*X98893D01*
G54D36*X82500Y303500D02*Y297000D01*
X87500Y303500D02*Y297000D01*
X92500Y303500D02*Y297000D01*
X97500Y303500D02*Y297000D01*
G54D29*X114217Y281075D02*X116087D01*
X114217Y277925D02*X116087D01*
X120913D02*X122783D01*
X120913Y281075D02*X122783D01*
G54D42*X53000Y305940D02*Y304050D01*
G54D30*X68607Y313457D02*X69393D01*
X68607Y320543D02*X69393D01*
G54D43*X58906Y319484D02*Y315390D01*
X53000Y319484D02*Y307674D01*
G54D11*G36*
X54885Y313505D02*X57725Y310665D01*
X56305Y309245D01*
X53465Y312085D01*
X54885Y313505D01*
G37*
G54D43*X47094Y319484D02*Y315390D01*
G54D31*X107087Y291500D02*X113740D01*
X121260Y301500D02*X127913D01*
X107087Y311500D02*X113740D01*
X121260Y321500D02*X127913D01*
G54D36*X97500Y324000D02*Y317500D01*
X92500Y324000D02*Y317500D01*
X87500Y324000D02*Y317500D01*
X82500Y324000D02*Y317500D01*
G54D34*X112700Y131500D02*X113300D01*
X112700Y123700D02*X113300D01*
X120900Y127600D02*X121500D01*
G54D41*X55508Y206023D02*X59934D01*
X55508Y202874D02*X59934D01*
X55508Y199724D02*X59934D01*
X55508Y196575D02*X59934D01*
X55508Y193425D02*X59934D01*
X55508Y190275D02*X59934D01*
X55508Y187126D02*X59934D01*
X55508Y183976D02*X59934D01*
X65477Y178434D02*Y174008D01*
X68626Y178434D02*Y174008D01*
X71776Y178434D02*Y174008D01*
X74925Y178434D02*Y174008D01*
X78075Y178434D02*Y174008D01*
X81225Y178434D02*Y174008D01*
X84374Y178434D02*Y174008D01*
X87524Y178434D02*Y174008D01*
X93066Y183977D02*X97492D01*
X93066Y187126D02*X97492D01*
X93066Y190276D02*X97492D01*
X93066Y193425D02*X97492D01*
X93066Y196575D02*X97492D01*
X93066Y199725D02*X97492D01*
X93066Y202874D02*X97492D01*
X93066Y206024D02*X97492D01*
X87523Y215992D02*Y211566D01*
X84374Y215992D02*Y211566D01*
X81224Y215992D02*Y211566D01*
X78075Y215992D02*Y211566D01*
X74925Y215992D02*Y211566D01*
X71775Y215992D02*Y211566D01*
G54D44*X315500Y194500D03*
X320500D03*
X315500Y189500D03*
X320500D03*
X315500Y184500D03*
X320500D03*
X305500Y194500D03*
X310500D03*
X305500Y189500D03*
X310500D03*
X326500Y221000D03*
X321000D03*
X296500Y212500D03*
X315500Y179500D03*
X320500D03*
X315500Y175000D03*
X310500D03*
X320500D03*
X350000Y174000D03*
X355000D03*
X350000Y169000D03*
X355000D03*
X305500Y184500D03*
X310500D03*
X305500Y179500D03*
X310500D03*
X305500Y175000D03*
X267000Y144000D03*
X272000D03*
X267000Y139500D03*
X272000D03*
X277000D03*
Y144000D03*
X267000Y135000D03*
X272000D03*
X277000D03*
X362000Y145000D03*
X277000Y149000D03*
Y154000D03*
X267000Y149000D03*
X272000D03*
Y154000D03*
X267000D03*
Y159000D03*
X272000D03*
X277000D03*
X370500Y230000D03*
X380000Y240000D03*
X375500D03*
X364500D03*
X368500Y337000D03*
X360000Y209000D03*
Y204000D03*
Y199000D03*
Y169000D03*
X365000Y209000D03*
Y204000D03*
X370000D03*
X365000Y199000D03*
X370000D03*
X372500Y194000D03*
Y189000D03*
Y184000D03*
Y179000D03*
Y174000D03*
Y169000D03*
X368500Y112000D03*
X236000Y226000D03*
X241000D03*
X246000D03*
Y221000D03*
Y216000D03*
X251000Y221000D03*
X233500Y66000D03*
X248000Y60500D03*
Y66000D03*
X228500Y60500D03*
X236000Y221000D03*
X241000D03*
X236000Y216000D03*
X241000D03*
X236000Y211000D03*
X241000D03*
Y206500D03*
Y202000D03*
X246000Y211000D03*
Y206500D03*
Y202000D03*
X236000Y206500D03*
Y202000D03*
X233500Y276000D03*
X248000Y270500D03*
Y276000D03*
X227000D03*
X216000Y280000D03*
X256000Y221000D03*
X261000D03*
X266000D03*
X271000D03*
X276000D03*
X251000Y226000D03*
X256000D03*
X261000D03*
X266000D03*
X271000D03*
X276000D03*
X195000Y192000D03*
X200000D03*
X195000Y187000D03*
X200000D03*
X194000Y283500D03*
X195000Y182500D03*
X200000D03*
X195000Y178000D03*
X200000D03*
X205000Y192000D03*
Y187000D03*
Y182500D03*
Y178000D03*
X197500Y63500D03*
X183000Y9000D03*
X172000Y14000D03*
X183000Y34500D03*
X190500Y75500D03*
Y71000D03*
X175000Y232500D03*
X164000Y228000D03*
Y233000D03*
X161000Y269500D03*
Y274500D03*
X166000Y269500D03*
Y274500D03*
X186500Y341500D03*
X183000Y338500D03*
X188500Y320000D03*
X164500Y314000D03*
X158000D03*
X164500Y308500D03*
X158000D03*
X162000Y347500D03*
X167000D03*
X171000Y314000D03*
X177500D03*
X171000Y308500D03*
X177500D03*
X180500Y299000D03*
X42000Y341500D03*
Y330000D03*
X47000D03*
X42000Y336000D03*
Y347000D03*
X47000D03*
X39500Y301500D03*
X44500D03*
X53000Y295000D03*
X58000D03*
X48000D03*
X103500Y324500D03*
X76500Y321500D03*
X87500Y307500D03*
X103500Y319500D03*
X61000Y301500D03*
X66000D03*
X67500Y275500D03*
X69500Y265500D03*
Y260500D03*
X68500Y242500D03*
Y237500D03*
X63000Y247000D03*
X57500D03*
X128000Y254500D03*
X52500Y247000D03*
X105000Y271500D03*
X115000Y272000D03*
X112000Y233000D03*
X119000Y224500D03*
X115000Y267000D03*
X119500Y269500D03*
X81500Y275500D03*
X80500Y92000D03*
X84500Y158000D03*
X88000Y162000D03*
X9500Y109000D03*
X113000Y180500D03*
X72000Y109500D03*
X93500Y162000D03*
X107000Y118000D03*
X111500D03*
X107000Y123000D03*
X27000Y174500D03*
X9500Y139500D03*
Y129500D03*
Y119500D03*
X27000Y196000D03*
X50000Y212500D03*
X39000Y202000D03*
X51500Y193500D03*
X57000Y220500D03*
X74500Y192500D03*
X79500D03*
X84500D03*
X63500Y204000D03*
X82500Y202500D03*
X86500Y199500D03*
X68500Y204000D03*
X164000Y203000D03*
X110000Y202000D03*
X103000Y216000D03*
X158957Y196500D03*
X121000Y185000D03*
X137000Y192500D03*
X132000D03*
X142000D03*
X147000D03*
X149000Y136500D03*
Y141000D03*
Y145500D03*
Y150500D03*
Y155000D03*
X131000Y168000D03*
X130000Y142000D03*
Y137000D03*
X134500D03*
X139000D03*
X168000Y168000D03*
Y148000D03*
X164500Y186500D03*
G54D45*G54D46*G54D47*G54D48*G54D49*G54D48*G54D49*G54D50*G54D51*G54D50*G54D52*G54D46*G54D47*G54D46*G54D51*G54D49*G54D50*G54D52*G54D49*G54D50*G54D53*G54D54*G54D49*G54D12*G54D49*G54D48*G54D50*G54D12*G54D50*G54D49*G54D50*G54D52*G54D48*G54D12*G54D50*G54D52*G54D51*M02*
